<?xml version="1.0" encoding="UTF-8" standalone="no"?>
<!-- Created with Inkscape (http://www.inkscape.org/) -->

<svg
   width="64.0px"
   height="64.0px"
   viewBox="0 0 64.0 64.0"
   version="1.1"
   id="SVGRoot"
   sodipodi:docname="explosives_icon.svg"
   inkscape:version="1.2.2 (b0a8486541, 2022-12-01)"
   xmlns:inkscape="http://www.inkscape.org/namespaces/inkscape"
   xmlns:sodipodi="http://sodipodi.sourceforge.net/DTD/sodipodi-0.dtd"
   xmlns="http://www.w3.org/2000/svg"
   xmlns:svg="http://www.w3.org/2000/svg">
  <sodipodi:namedview
     id="namedview326"
     pagecolor="#ffffff"
     bordercolor="#000000"
     borderopacity="0.25"
     inkscape:showpageshadow="2"
     inkscape:pageopacity="0.0"
     inkscape:pagecheckerboard="0"
     inkscape:deskcolor="#d1d1d1"
     inkscape:document-units="px"
     showgrid="true"
     inkscape:zoom="14.638496"
     inkscape:cx="25.890638"
     inkscape:cy="35.07874"
     inkscape:window-width="2560"
     inkscape:window-height="1332"
     inkscape:window-x="0"
     inkscape:window-y="32"
     inkscape:window-maximized="1"
     inkscape:current-layer="layer1">
    <inkscape:grid
       type="xygrid"
       id="grid449" />
  </sodipodi:namedview>
  <defs
     id="defs321">
    <inkscape:path-effect
       effect="bspline"
       id="path-effect4852"
       is_visible="true"
       lpeversion="1"
       weight="33.333333"
       steps="2"
       helper_size="0"
       apply_no_weight="true"
       apply_with_weight="true"
       only_selected="false" />
    <inkscape:path-effect
       effect="bspline"
       id="path-effect4848"
       is_visible="true"
       lpeversion="1"
       weight="33.333333"
       steps="2"
       helper_size="0"
       apply_no_weight="true"
       apply_with_weight="true"
       only_selected="false" />
    <inkscape:path-effect
       effect="bspline"
       id="path-effect4844"
       is_visible="true"
       lpeversion="1"
       weight="33.333333"
       steps="2"
       helper_size="0"
       apply_no_weight="true"
       apply_with_weight="true"
       only_selected="false" />
    <inkscape:path-effect
       effect="bspline"
       id="path-effect4840"
       is_visible="true"
       lpeversion="1"
       weight="33.333333"
       steps="2"
       helper_size="0"
       apply_no_weight="true"
       apply_with_weight="true"
       only_selected="false" />
    <inkscape:path-effect
       effect="bspline"
       id="path-effect4521"
       is_visible="true"
       lpeversion="1"
       weight="33.333333"
       steps="2"
       helper_size="0"
       apply_no_weight="true"
       apply_with_weight="true"
       only_selected="false" />
    <inkscape:path-effect
       effect="bspline"
       id="path-effect4517"
       is_visible="true"
       lpeversion="1"
       weight="33.333333"
       steps="2"
       helper_size="0"
       apply_no_weight="true"
       apply_with_weight="true"
       only_selected="false" />
    <inkscape:path-effect
       effect="bspline"
       id="path-effect4505"
       is_visible="true"
       lpeversion="1"
       weight="33.333333"
       steps="2"
       helper_size="0"
       apply_no_weight="true"
       apply_with_weight="true"
       only_selected="false" />
    <inkscape:path-effect
       effect="bspline"
       id="path-effect4123"
       is_visible="true"
       lpeversion="1"
       weight="33.333333"
       steps="2"
       helper_size="0"
       apply_no_weight="true"
       apply_with_weight="true"
       only_selected="false" />
    <inkscape:path-effect
       effect="bspline"
       id="path-effect3073"
       is_visible="true"
       lpeversion="1"
       weight="33.333333"
       steps="2"
       helper_size="0"
       apply_no_weight="true"
       apply_with_weight="true"
       only_selected="false" />
    <inkscape:path-effect
       effect="bspline"
       id="path-effect3069"
       is_visible="true"
       lpeversion="1"
       weight="33.333333"
       steps="2"
       helper_size="0"
       apply_no_weight="true"
       apply_with_weight="true"
       only_selected="false" />
    <inkscape:path-effect
       effect="bspline"
       id="path-effect3065"
       is_visible="true"
       lpeversion="1"
       weight="33.333333"
       steps="2"
       helper_size="0"
       apply_no_weight="true"
       apply_with_weight="true"
       only_selected="false" />
    <inkscape:path-effect
       effect="bspline"
       id="path-effect3061"
       is_visible="true"
       lpeversion="1"
       weight="33.333333"
       steps="2"
       helper_size="0"
       apply_no_weight="true"
       apply_with_weight="true"
       only_selected="false" />
    <inkscape:path-effect
       effect="bspline"
       id="path-effect3057"
       is_visible="true"
       lpeversion="1"
       weight="33.333333"
       steps="2"
       helper_size="0"
       apply_no_weight="true"
       apply_with_weight="true"
       only_selected="false" />
    <inkscape:path-effect
       effect="bspline"
       id="path-effect3053"
       is_visible="true"
       lpeversion="1"
       weight="33.333333"
       steps="2"
       helper_size="0"
       apply_no_weight="true"
       apply_with_weight="true"
       only_selected="false" />
    <inkscape:path-effect
       effect="bspline"
       id="path-effect3049"
       is_visible="true"
       lpeversion="1"
       weight="33.333333"
       steps="2"
       helper_size="0"
       apply_no_weight="true"
       apply_with_weight="true"
       only_selected="false" />
    <inkscape:path-effect
       effect="bspline"
       id="path-effect3045"
       is_visible="true"
       lpeversion="1"
       weight="33.333333"
       steps="2"
       helper_size="0"
       apply_no_weight="true"
       apply_with_weight="true"
       only_selected="false" />
    <inkscape:path-effect
       effect="bspline"
       id="path-effect3041"
       is_visible="true"
       lpeversion="1"
       weight="33.333333"
       steps="2"
       helper_size="0"
       apply_no_weight="true"
       apply_with_weight="true"
       only_selected="false" />
    <inkscape:path-effect
       effect="bspline"
       id="path-effect3037"
       is_visible="true"
       lpeversion="1"
       weight="33.333333"
       steps="2"
       helper_size="0"
       apply_no_weight="true"
       apply_with_weight="true"
       only_selected="false" />
    <inkscape:path-effect
       effect="bspline"
       id="path-effect3033"
       is_visible="true"
       lpeversion="1"
       weight="33.333333"
       steps="2"
       helper_size="0"
       apply_no_weight="true"
       apply_with_weight="true"
       only_selected="false" />
  </defs>
  <g
     inkscape:label="Layer 1"
     inkscape:groupmode="layer"
     id="layer1">
    <rect
       style="fill:#ffffff;stroke-width:2.64567;stroke-linecap:round;stroke-linejoin:round;paint-order:stroke fill markers;fill-opacity:1;stroke:#000000;stroke-opacity:1"
       id="rect508"
       width="60"
       height="60"
       x="2"
       y="2"
       ry="5" />
    <rect
       style="fill:#000000;fill-opacity:1;stroke-width:2.64567;stroke-linecap:round;stroke-linejoin:round;paint-order:stroke fill markers"
       id="rect602"
       width="50"
       height="50"
       x="7"
       y="7"
       ry="5" />
    <path
       style="fill:#ffffff;fill-opacity:1;stroke:#000000;stroke-width:2.64567;stroke-linecap:round;stroke-linejoin:round;stroke-opacity:1;paint-order:stroke fill markers"
       id="path1581"
       sodipodi:type="arc"
       sodipodi:cx="15.643683"
       sodipodi:cy="47.819118"
       sodipodi:rx="6.2847986"
       sodipodi:ry="6.0115466"
       sodipodi:start="0"
       sodipodi:end="0.011515806"
       sodipodi:open="true"
       sodipodi:arc-type="arc"
       d="m 21.928482,47.819118 a 6.2847986,6.0115466 0 0 1 -4.17e-4,0.06923" />
    <path
       style="fill:#ffffff;fill-opacity:1;stroke:#ffffff;stroke-width:0;stroke-linecap:round;stroke-linejoin:round;stroke-dasharray:none;stroke-opacity:1;paint-order:stroke fill markers"
       id="path2915"
       sodipodi:type="arc"
       sodipodi:cx="20.254814"
       sodipodi:cy="43.378773"
       sodipodi:rx="8.1634073"
       sodipodi:ry="8.6757545"
       sodipodi:start="0.5932411"
       sodipodi:end="4.1786264"
       sodipodi:arc-type="slice"
       d="m 27.023365,48.228964 a 8.1634073,8.6757545 0 0 1 -8.53071,3.621025 8.1634073,8.6757545 0 0 1 -6.299443,-7.105332 8.1634073,8.6757545 0 0 1 3.908255,-8.834831 l 4.153347,7.468947 z" />
    <path
       style="fill:#ffffff;fill-opacity:1;stroke:#ffffff;stroke-width:0;stroke-linecap:round;stroke-linejoin:round;stroke-dasharray:none;stroke-opacity:1;paint-order:stroke fill markers"
       d="m 16.042176,36.080664 c 0.05693,-0.05693 0.170783,-0.170782 0.244095,-0.22771 0.07331,-0.05693 0.09608,-0.05693 0.102468,-0.0747 0.0064,-0.01777 0.0064,-0.06331 0.06478,-0.126121 0.0584,-0.06281 0.172254,-0.131126 0.227711,-0.170785 0.05546,-0.03966 0.05546,-0.06243 0.09461,-0.07881 0.03916,-0.01638 0.107471,-0.01638 0.136627,-0.03416 0.02916,-0.01777 0.02916,-0.06331 0.03954,-0.111853 0.01038,-0.04854 0.03315,-0.09408 0.09016,-0.196939 0.05701,-0.102856 0.148089,-0.262253 0.194554,-0.315797 0.04647,-0.05354 0.04647,-0.008 0.06285,0.02616 0.01638,0.03416 0.03916,0.05693 0.05722,0.273512 0.01806,0.216585 0.04083,0.626463 0.09108,0.826141 0.05025,0.199677 0.118564,0.199677 0.14772,0.216062 0.02916,0.01638 0.02916,0.03916 0.136626,0.04554 0.10747,0.0064 0.31241,0.0064 0.449804,0.033 0.137393,0.02662 0.205709,0.07216 0.284639,0.09108 0.07893,0.01892 0.170013,0.01892 0.210555,0.03531 0.04054,0.01638 0.04054,0.03916 0.05693,0.04554 0.01638,0.0064 0.03916,0.0064 0.05992,0.03516 0.02077,0.02877 0.04354,0.07431 0.102468,0.09108 0.05893,0.01677 0.150011,0.01677 0.190553,0.03316 0.04054,0.01638 0.04054,0.03916 0.0807,0.05892 0.04016,0.01977 0.108471,0.04254 0.136627,0.06831 0.02816,0.02577 0.02816,0.04854 -9.98e-4,0.05492 -0.02915,0.0064 -0.09747,0.0064 -0.149012,0.03116 -0.05154,0.02477 -0.07431,0.07031 -0.126708,0.101587 -0.0524,0.03127 -0.143483,0.05404 -0.239019,0.147625 -0.09554,0.09358 -0.186621,0.25298 -0.23124,0.370218 -0.04462,0.117238 -0.04462,0.185554 0.108392,0.21471 0.153012,0.02916 0.449035,0.02916 0.592046,0.250481 0.143012,0.221325 0.143012,0.653974 0.159397,0.865298 0.01639,0.211325 0.03916,0.211325 0.04554,0.22771 0.0064,0.01638 0.0064,0.03916 0.02277,0.04554 0.01638,0.0064 0.03916,0.0064 0.05992,0.03515 0.02077,0.02877 0.04354,0.07431 0.113853,0.09108 0.07031,0.01677 0.184168,0.01677 0.236095,0.101469 0.05193,0.0847 0.05193,0.244097 0.01689,0.377193 -0.03504,0.133096 -0.103353,0.246952 -0.143012,0.302409 -0.03966,0.05546 -0.06243,0.05546 -0.07881,0.185697 -0.01638,0.130241 -0.01638,0.380722 -0.01638,0.540117 0,0.159396 0,0.227712 0.06193,0.256868 0.06193,0.02916 0.175783,0.02916 0.22771,0.113855 0.05193,0.0847 0.05193,0.244096 0.05193,0.437649 0,0.193554 0,0.421265 -0.04474,0.563675 -0.04474,0.14241 -0.135828,0.210726 -0.18217,0.30741 -0.04634,0.09668 -0.04634,0.210539 -0.04634,0.324394 0,0.113855 0,0.22771 0.164016,0.267923 0.164017,0.04021 0.482812,0.01744 0.7177,-0.06228 0.234888,-0.07972 0.394285,-0.216347 0.577739,-0.342178 0.183454,-0.125831 0.388393,-0.239686 0.50555,-0.29567 0.117156,-0.05598 0.139926,-0.05598 0.146311,-0.06237 0.0064,-0.0064 0.0064,-0.02916 0.04554,-0.04554 0.03916,-0.01638 0.107471,-0.01638 0.136627,-0.02277 0.02916,-0.0064 0.02916,-0.02915 0.103146,-0.03321 0.07399,-0.0041 0.210614,0.01872 0.285583,0.103144 0.07497,0.08443 0.09774,0.221053 0.261189,0.283691 0.163451,0.06264 0.459474,0.06264 0.675798,0.06264 0.216325,0 0.352951,0 0.416264,-0.01777 0.06331,-0.01777 0.06331,-0.06331 0.100468,-0.103468 0.03716,-0.04016 0.105471,-0.06293 0.136628,-0.05693 0.03116,0.006 0.03116,0.02877 0.05993,0.04954 0.02877,0.02077 0.07431,0.04354 0.09108,0.06831 0.01677,0.02477 0.01677,0.04754 0.04454,0.05392 0.02777,0.0064 0.07331,0.0064 0.09108,0.102469 0.01777,0.09608 0.01777,0.278252 0.01777,0.676744 0,0.398493 0,1.013311 0.03836,1.366861 0.03836,0.35355 0.10667,0.444635 0.165397,0.498961 0.05873,0.05433 0.10427,0.0771 0.121041,0.101868 0.01677,0.02477 0.01677,0.04754 0.04454,0.05392 0.02777,0.0064 0.07331,0.0064 0.301024,0.0064 0.227711,0 0.637589,0 0.88507,-0.02377 0.24748,-0.02377 0.338563,-0.06931 0.47819,-0.09108 0.139627,-0.02177 0.321795,-0.02177 0.407879,-0.0054 0.08608,0.01638 0.08608,0.03915 0.126239,0.05892 0.04015,0.01977 0.108471,0.04254 0.136627,0.0797 0.02816,0.03715 0.02816,0.0827 0.112855,0.10047 0.0847,0.01777 0.244096,0.01777 0.410679,-0.05114 0.166583,-0.06891 0.348751,-0.205539 0.439035,-0.245482 0.09028,-0.03994 0.09028,0.0056 0.05516,0.140438 -0.03512,0.134836 -0.103433,0.362547 -0.143011,0.473191 -0.03958,0.110644 -0.06235,0.110644 -0.07873,0.138414 -0.01638,0.02777 -0.01638,0.07331 -0.02277,0.09108 -0.0064,0.01777 -0.02916,0.01777 -0.06935,0.07728 -0.04019,0.05951 -0.08573,0.173368 -0.130239,0.25048 -0.04451,0.07711 -0.09005,0.122654 -0.124806,0.229325 -0.03476,0.106671 -0.05753,0.266068 -0.08908,0.351951 -0.03156,0.08588 -0.0771,0.108656 -0.101873,0.274052 -0.02477,0.165395 -0.02477,0.461418 -0.04254,0.604429 -0.01777,0.143012 -0.06331,0.143012 -0.09108,0.182167 -0.02777,0.03916 -0.02777,0.107471 -0.05693,0.136627 -0.02915,0.02916 -0.09747,0.02916 -0.136628,0.05693 -0.03916,0.02777 -0.03916,0.07331 -0.04554,0.09108 -0.0064,0.01777 -0.02916,0.01777 -0.05793,0.05493 -0.02877,0.03716 -0.05154,0.105471 -0.102465,0.136628 -0.05092,0.03116 -0.142013,0.03116 -0.292705,0.07567 -0.150692,0.04451 -0.355631,0.135595 -0.831141,0.182168 -0.475511,0.04657 -1.226955,0.04657 -1.715568,0.01421 -0.488613,-0.03237 -0.716323,-0.100681 -0.853912,-0.154397 -0.137588,-0.05371 -0.183128,-0.09925 -0.239056,-0.136413 -0.05593,-0.03716 -0.124244,-0.05993 -0.173786,-0.101468 -0.04954,-0.04154 -0.07231,-0.109856 -0.113852,-0.159397 -0.04154,-0.04954 -0.109856,-0.07231 -0.236097,-0.171781 -0.12624,-0.09947 -0.308408,-0.281637 -0.434447,-0.417661 -0.126039,-0.136024 -0.194355,-0.227112 -0.386296,-0.376987 -0.191941,-0.149875 -0.510735,-0.354814 -0.88791,-0.728766 -0.377175,-0.373951 -0.809824,-0.920455 -1.036893,-1.199214 -0.227069,-0.278759 -0.249839,-0.278759 -0.319097,-0.352782 -0.06926,-0.07402 -0.183114,-0.23342 -0.260866,-0.327179 -0.07775,-0.09376 -0.123292,-0.116528 -0.161449,-0.159068 -0.03816,-0.04254 -0.06093,-0.110857 -0.13878,-0.247714 -0.07785,-0.136857 -0.214478,-0.341796 -0.314792,-0.45942 -0.100314,-0.117623 -0.16863,-0.140394 -0.208787,-0.171549 -0.04016,-0.03116 -0.04016,-0.0767 -0.07131,-0.16678 -0.03116,-0.09009 -0.09947,-0.226713 -0.153397,-0.309411 -0.05393,-0.0827 -0.09947,-0.10547 -0.158199,-0.159794 -0.05872,-0.05432 -0.12704,-0.145412 -0.165397,-0.202939 -0.03836,-0.05753 -0.03836,-0.0803 -0.05513,-0.105067 -0.01677,-0.02477 -0.06231,-0.04754 -0.09108,-0.07969 -0.02877,-0.03216 -0.02877,-0.0777 -0.03516,-0.105469 -0.0064,-0.02777 -0.02915,-0.02777 -0.05392,-0.04454 -0.02477,-0.01677 -0.04754,-0.06231 -0.06192,-0.131623 -0.01439,-0.06931 -0.01439,-0.160401 -0.04434,-0.250883 -0.02995,-0.09048 -0.09827,-0.18157 -0.169168,-0.35203 -0.0709,-0.170459 -0.139211,-0.420941 -0.174983,-0.581259 -0.03577,-0.160319 -0.03577,-0.228635 -0.0547,-0.296177 -0.01892,-0.06754 -0.06447,-0.135857 -0.09108,-0.227711 -0.02662,-0.09185 -0.02662,-0.205709 -0.05898,-0.375528 -0.03237,-0.169819 -0.100681,-0.397529 -0.147319,-0.602894 -0.04664,-0.205364 -0.06941,-0.387532 -0.112642,-0.546467 -0.04323,-0.158935 -0.111547,-0.295562 -0.155089,-0.369875 -0.04354,-0.07431 -0.06631,-0.07431 -0.0827,-0.240096 -0.01638,-0.165782 -0.01638,-0.507347 -0.02277,-0.68313 -0.0064,-0.175782 -0.02915,-0.175782 -0.04554,-0.22771 -0.01638,-0.05193 -0.01638,-0.165782 -0.02277,-0.22771 -0.0064,-0.06193 -0.02915,-0.06193 -0.05654,-0.215995 -0.02739,-0.154067 -0.05016,-0.472861 -0.06193,-0.637588 -0.01177,-0.164727 -0.01178,-0.164712 0.04514,-0.22164 z"
       id="path3031"
       inkscape:path-effect="#path-effect3033"
       inkscape:original-d="m 15.985249,36.137592 c 0.123855,-0.103855 0.23771,-0.21771 0.341565,-0.341565 0.03277,0.01 0.05554,0.01 0.06831,0 0.01,-0.03554 0.01,-0.08108 0,-0.136626 0.123855,-0.05831 0.23771,-0.126626 0.341565,-0.204939 0.01,-0.01277 0.01,-0.03554 0,-0.06831 0.07831,0.01 0.146626,0.01 0.204939,0 0.01,-0.03554 0.01,-0.08108 0,-0.136626 0.03277,-0.03554 0.05554,-0.08108 0.06831,-0.136626 0.101084,-0.149397 0.192168,-0.308794 0.273252,-0.478191 0.01,0.05554 0.01,0.101084 0,0.136626 0.03277,0.03277 0.05554,0.05554 0.06831,0.06831 0.03277,0.419878 0.05554,0.829756 0.06831,1.229634 0.07831,0.01 0.146626,0.01 0.204939,0 0.01,0.03277 0.01,0.05554 0,0.06831 0.214939,0.01 0.419879,0.01 0.614818,0 0.07831,0.05554 0.146626,0.101084 0.204939,0.136626 0.101084,0.01 0.192168,0.01 0.273252,0 0.01,0.03277 0.01,0.05554 0,0.06831 0.03277,0.01 0.05554,0.01 0.06831,0 0.03277,0.05554 0.05554,0.101084 0.06831,0.136626 0.101084,0.01 0.192168,0.01 0.273252,0 0.01,0.03277 0.01,0.05554 0,0.06831 0.07831,0.03277 0.146626,0.05554 0.204939,0.06831 0.01,0.03277 0.01,0.05554 0,0.06831 -0.05831,0.01 -0.126626,0.01 -0.204939,0 -0.01277,0.05554 -0.03554,0.101084 -0.06831,0.136626 -0.08108,0.03277 -0.172168,0.05554 -0.273252,0.06831 -0.08108,0.169398 -0.172168,0.328795 -0.273252,0.478192 0.01,0.07831 0.01,0.146626 0,0.204939 0.306023,0.01 0.602046,0.01 0.888069,0 0.01,0.442649 0.01,0.875298 0,1.297947 0.03277,0.01 0.05554,0.01 0.06831,0 0.01,0.03277 0.01,0.05554 0,0.06831 0.03277,0.01 0.05554,0.01 0.06831,0 0.03277,0.05554 0.05554,0.101084 0.06831,0.136626 0.123855,0.01 0.23771,0.01 0.341565,0 0.01,0.169397 0.01,0.328795 0,0.478192 -0.05831,0.123855 -0.126626,0.23771 -0.204939,0.341565 -0.01277,0.01 -0.03554,0.01 -0.06831,0 0.01,0.260481 0.01,0.510962 0,0.751443 0.01,0.07831 0.01,0.146626 0,0.204939 0.123855,0.01 0.23771,0.01 0.341565,0 0.01,0.169397 0.01,0.328794 0,0.478191 0.01,0.23771 0.01,0.465421 0,0.683131 -0.08108,0.07831 -0.172168,0.146626 -0.273252,0.204939 0.01,0.123855 0.01,0.23771 0,0.341565 0.01,0.123855 0.01,0.23771 0,0.341565 0.328794,-0.01277 0.647589,-0.03554 0.956383,-0.06831 0.169397,-0.126626 0.328794,-0.263252 0.478191,-0.409878 0.214939,-0.103855 0.419878,-0.21771 0.614817,-0.341565 0.03277,0.01 0.05554,0.01 0.06831,0 0.01,-0.01277 0.01,-0.03554 0,-0.06831 0.07831,0.01 0.146626,0.01 0.204939,0 0.01,-0.01277 0.01,-0.03554 0,-0.06831 0.146626,0.03277 0.283252,0.05554 0.409878,0.06831 0.03277,0.146626 0.05554,0.283252 0.06831,0.409878 0.306024,0.01 0.602047,0.01 0.88807,0 0.146626,0.01 0.283252,0.01 0.409878,0 0.01,-0.03554 0.01,-0.08108 0,-0.136626 0.07831,-0.01277 0.146626,-0.03554 0.204939,-0.06831 0.01,0.03277 0.01,0.05554 0,0.06831 0.05554,0.03277 0.101084,0.05554 0.136626,0.06831 0.01,0.03277 0.01,0.05554 0,0.06831 0.05554,0.01 0.101084,0.01 0.136626,0 0.01,0.192168 0.01,0.374336 0,0.546504 0.01,0.624817 0.01,1.239635 0,1.844452 0.07831,0.101084 0.146626,0.192168 0.204939,0.273252 0.05554,0.03277 0.101084,0.05554 0.136626,0.06831 0.01,0.03277 0.01,0.05554 0,0.06831 0.05554,0.01 0.101084,0.01 0.136626,0 0.419879,0.01 0.829757,0.01 1.229635,0 0.101084,-0.03554 0.192168,-0.08108 0.273252,-0.136626 0.192168,0.01 0.374336,0.01 0.546504,0 0.01,0.03277 0.01,0.05554 0,0.06831 0.07831,0.03277 0.146626,0.05554 0.204939,0.06831 0.01,0.05554 0.01,0.101084 0,0.136626 0.169397,0.01 0.328794,0.01 0.478192,0 0.192168,-0.126626 0.374336,-0.263252 0.546504,-0.409878 0.01,0.05554 0.01,0.101084 0,0.136626 -0.05831,0.23771 -0.126626,0.46542 -0.204939,0.68313 -0.01277,0.01 -0.03554,0.01 -0.06831,0 0.01,0.05554 0.01,0.101084 0,0.136626 -0.01277,0.01 -0.03554,0.01 -0.06831,0 -0.03554,0.123855 -0.08108,0.23771 -0.136626,0.341565 -0.03554,0.05554 -0.08108,0.101084 -0.136626,0.136626 -0.01277,0.169398 -0.03554,0.328795 -0.06831,0.478192 -0.03554,0.03277 -0.08109,0.05554 -0.136627,0.06831 0.01,0.306023 0.01,0.602046 0,0.888069 -0.03554,0.01 -0.08108,0.01 -0.136626,0 0.01,0.07831 0.01,0.146626 0,0.204939 -0.05831,0.01 -0.126626,0.01 -0.204939,0 0.01,0.05554 0.01,0.101084 0,0.136626 -0.01277,0.01 -0.03554,0.01 -0.06831,0 -0.01277,0.07831 -0.03554,0.146626 -0.06831,0.204939 -0.08108,0.01 -0.172168,0.01 -0.273252,0 -0.194939,0.101084 -0.399878,0.192168 -0.614817,0.273252 -0.741443,0.01 -1.492887,0.01 -2.25433,0 -0.21771,-0.05831 -0.44542,-0.126626 -0.68313,-0.204939 -0.03554,-0.03554 -0.08108,-0.08108 -0.136626,-0.136626 -0.05831,-0.01277 -0.126626,-0.03554 -0.20494,-0.06831 -0.01277,-0.05831 -0.03554,-0.126626 -0.06831,-0.204939 -0.05831,-0.01277 -0.126626,-0.03554 -0.204939,-0.06831 -0.172168,-0.172168 -0.354336,-0.354336 -0.546504,-0.546504 -0.05831,-0.08108 -0.126626,-0.172168 -0.204939,-0.273252 -0.308794,-0.194939 -0.627588,-0.399878 -0.956382,-0.614817 -0.42265,-0.536505 -0.855299,-1.083009 -1.297948,-1.639513 -0.01277,0.01 -0.03554,0.01 -0.06831,0 -0.103855,-0.149397 -0.21771,-0.308794 -0.341565,-0.478191 -0.03554,-0.01277 -0.08108,-0.03554 -0.136626,-0.06831 -0.01277,-0.05831 -0.03554,-0.126626 -0.06831,-0.204939 -0.126626,-0.19494 -0.263252,-0.399879 -0.409878,-0.614818 -0.05831,-0.01277 -0.126626,-0.03554 -0.204939,-0.06831 0.01,-0.03554 0.01,-0.08108 0,-0.136626 -0.05831,-0.126626 -0.126626,-0.263252 -0.204939,-0.409878 -0.03554,-0.01277 -0.08109,-0.03554 -0.136627,-0.06831 -0.05831,-0.08108 -0.126626,-0.172168 -0.204939,-0.273252 0.01,-0.01277 0.01,-0.03554 0,-0.06831 -0.03554,-0.01277 -0.08108,-0.03554 -0.136626,-0.06831 0.01,-0.03554 0.01,-0.08108 0,-0.136626 -0.01277,0.01 -0.03554,0.01 -0.06831,0 -0.01277,-0.03554 -0.03554,-0.08108 -0.06831,-0.136626 0.01,-0.08108 0.01,-0.172168 0,-0.273252 -0.05831,-0.08108 -0.126626,-0.172168 -0.204939,-0.273253 -0.05831,-0.240481 -0.126626,-0.490962 -0.204939,-0.751443 0.01,-0.05831 0.01,-0.126626 0,-0.204939 -0.03554,-0.05831 -0.08108,-0.126626 -0.136626,-0.204939 0.01,-0.103855 0.01,-0.21771 0,-0.341565 -0.05831,-0.21771 -0.126626,-0.44542 -0.204939,-0.68313 -0.01277,-0.172169 -0.03554,-0.354337 -0.06831,-0.546505 -0.05831,-0.126626 -0.126626,-0.263252 -0.204939,-0.409878 -0.01277,0.01 -0.03554,0.01 -0.06831,0 0.01,-0.331565 0.01,-0.67313 0,-1.024695 -0.01277,0.01 -0.03554,0.01 -0.06831,0 0.01,-0.103855 0.01,-0.21771 0,-0.341565 -0.01277,0.01 -0.03554,0.01 -0.06831,0 -0.01277,-0.308795 -0.03554,-0.627589 -0.06831,-0.956383 z" />
    <path
       style="fill:#ffffff;fill-opacity:1;stroke:#ffffff;stroke-width:0;stroke-linecap:round;stroke-linejoin:round;stroke-dasharray:none;stroke-opacity:1;paint-order:stroke fill markers"
       d="m 23.880403,38.596861 c -0.234095,0 -0.712286,0 -0.956382,0.06193 -0.244095,0.06193 -0.244095,0.175783 -0.244095,0.289638 0,0.113855 0,0.22771 0.01639,0.279638 0.01638,0.05193 0.03915,0.05193 0.0584,0.103352 0.01924,0.05143 0.04201,0.142509 0.06831,0.182168 0.0263,0.03966 0.04907,0.03966 0.05545,0.05604 0.0064,0.01638 0.0064,0.03916 0.03415,0.07331 0.02777,0.03415 0.07331,0.0797 0.116856,0.149012 0.04354,0.06931 0.08908,0.160397 0.12524,0.199939 0.03616,0.03954 0.05893,0.03954 0.06531,0.05593 0.0064,0.01638 0.0064,0.03916 0.06935,0.07072 0.06296,0.03157 0.176817,0.07711 0.22771,0.204938 0.05089,0.127827 0.05089,0.332766 0.06728,0.430235 0.01638,0.09747 0.03915,0.09747 0.312406,0.09747 0.273252,0 0.796985,0 1.112249,-0.03504 0.315265,-0.03504 0.429121,-0.103353 0.518733,-0.170782 0.08961,-0.06743 0.157928,-0.135745 0.208469,-0.169902 0.05054,-0.03416 0.07331,-0.03416 0.0797,-0.06331 0.0064,-0.02915 0.0064,-0.09747 -0.04554,-0.136628 -0.05193,-0.03916 -0.165782,-0.03916 -0.313194,-0.103269 -0.147411,-0.06411 -0.329579,-0.200739 -0.426264,-0.461805 -0.09668,-0.261067 -0.09668,-0.648175 -0.137224,-0.846729 -0.04054,-0.198553 -0.131628,-0.198553 -0.267716,-0.209246 -0.136087,-0.01069 -0.318255,-0.03346 -0.414878,-0.04554 -0.09662,-0.01208 -0.0966,-0.01207 -0.3307,-0.01207 z"
       id="path3035"
       inkscape:path-effect="#path-effect3037"
       inkscape:original-d="m 24.114499,38.596861 c -0.468191,0.01 -0.946382,0.01 -1.434573,0 0.01,0.123855 0.01,0.23771 0,0.341565 0.01,0.123855 0.01,0.23771 0,0.341565 0.03277,0.01 0.05554,0.01 0.06831,0 0.03277,0.101085 0.05554,0.192169 0.06831,0.273253 0.03277,0.01 0.05554,0.01 0.06831,0 0.01,0.03277 0.01,0.05554 0,0.06831 0.05554,0.05554 0.101084,0.101084 0.136626,0.136626 0.05554,0.101084 0.101084,0.192168 0.136626,0.273252 0.03277,0.01 0.05554,0.01 0.06831,0 0.01,0.03277 0.01,0.05554 0,0.06831 0.123855,0.05554 0.23771,0.101084 0.341565,0.136626 0.01,0.214939 0.01,0.419878 0,0.614817 0.03277,0.01 0.05554,0.01 0.06831,0 0.533733,0.01 1.057466,0.01 1.5712,0 0.123855,-0.05831 0.23771,-0.126626 0.341565,-0.204939 0.07831,-0.05831 0.146626,-0.126626 0.204939,-0.204939 0.03277,0.01 0.05554,0.01 0.06831,0 0.01,-0.05831 0.01,-0.126626 0,-0.204939 -0.103855,0.01 -0.21771,0.01 -0.341565,0 -0.172168,-0.126626 -0.354336,-0.263252 -0.546505,-0.409878 0.01,-0.377107 0.01,-0.764215 0,-1.161322 -0.08108,0.01 -0.172168,0.01 -0.273252,0 -0.172168,-0.01277 -0.354336,-0.03554 -0.546504,-0.06831 z" />
    <path
       style="fill:#ffffff;fill-opacity:1;stroke:#ffffff;stroke-width:0;stroke-linecap:round;stroke-linejoin:round;stroke-dasharray:none;stroke-opacity:1;paint-order:stroke fill markers"
       d="m 22.816552,36.210905 c 0,-0.131626 0,-0.404878 0,-0.598432 0,-0.193553 0,-0.307408 0.02777,-0.369335 0.02777,-0.06193 0.07331,-0.06193 0.10147,-0.0827 0.02815,-0.02077 0.05092,-0.06631 0.08808,-0.103468 0.03716,-0.03716 0.0827,-0.05993 0.10347,-0.258867 0.02077,-0.198938 0.02077,-0.586046 0.02077,-0.859298 0,-0.273252 0,-0.432649 -0.0064,-0.517347 -0.0064,-0.0847 -0.02915,-0.0847 -0.05392,-0.101469 -0.02477,-0.01677 -0.04754,-0.06231 -0.261602,-0.102176 -0.214064,-0.03986 -0.623942,-0.06264 -0.834142,-0.03516 -0.210201,0.02748 -0.210201,0.09579 -0.230971,0.135335 -0.02077,0.03954 -0.06631,0.06231 -0.103468,0.111851 -0.03716,0.04954 -0.05993,0.117857 -0.0767,0.149014 -0.01677,0.03116 -0.03954,0.03116 -0.05592,0.138626 -0.01639,0.107469 -0.01639,0.312408 0.04642,0.447563 0.06281,0.135155 0.176666,0.203469 0.192955,0.280437 0.01629,0.07697 -0.05203,0.168055 -0.103352,0.212797 -0.05133,0.04474 -0.09687,0.04474 -0.137024,0.06951 -0.04016,0.02477 -0.06293,0.07031 -0.182168,0.09108 -0.11924,0.02077 -0.34695,0.02077 -0.49696,0.03116 -0.15001,0.01038 -0.218326,0.03315 -0.239097,0.04554 -0.02077,0.01239 0.002,0.01239 0.02277,0.04116 0.02077,0.02877 0.04354,0.07431 0.114341,0.141017 0.0708,0.0667 0.184656,0.157787 0.25048,0.227709 0.06582,0.06992 0.08859,0.115466 0.318304,0.132237 0.22971,0.01677 0.662359,0.01677 0.873684,0.06731 0.211324,0.05054 0.211324,0.141626 0.235566,0.279134 0.02424,0.137508 0.06978,0.319677 0.09108,0.421263 0.0213,0.101587 0.0213,0.124357 0.07184,0.130742 0.05054,0.0064 0.141626,0.0064 0.182168,0.0064 0.04054,0 0.04054,3e-6 0.04054,-0.131623 z"
       id="path3039"
       inkscape:path-effect="#path-effect3041"
       inkscape:original-d="m 22.816552,36.342531 c 0.01,-0.263252 0.01,-0.536504 0,-0.819756 0.01,-0.103855 0.01,-0.21771 0,-0.341565 0.05554,0.01 0.101084,0.01 0.136626,0 0.03277,-0.03554 0.05554,-0.08108 0.06831,-0.136626 0.05554,-0.01277 0.101084,-0.03554 0.136626,-0.06831 0.01,-0.377107 0.01,-0.764215 0,-1.161322 0.01,-0.149397 0.01,-0.308794 0,-0.478191 -0.01277,0.01 -0.03554,0.01 -0.06831,0 -0.01277,-0.03554 -0.03554,-0.08108 -0.06831,-0.136626 -0.399879,-0.01277 -0.809757,-0.03554 -1.229635,-0.06831 0.01,0.07831 0.01,0.146626 0,0.204939 -0.03554,0.03277 -0.08108,0.05554 -0.136626,0.06831 -0.01277,0.07831 -0.03554,0.146626 -0.06831,0.204939 -0.01277,0.01 -0.03554,0.01 -0.06831,0 0.01,0.214939 0.01,0.419878 0,0.614817 0.123855,0.07831 0.23771,0.146626 0.341565,0.204939 -0.05831,0.101084 -0.126626,0.192169 -0.204939,0.273253 -0.03554,0.01 -0.08108,0.01 -0.136626,0 -0.01277,0.05554 -0.03554,0.101084 -0.06831,0.136626 -0.21771,0.01 -0.44542,0.01 -0.68313,0 -0.05831,0.03277 -0.126626,0.05554 -0.204939,0.06831 0.03277,0.01 0.05554,0.01 0.06831,0 0.03277,0.05554 0.05554,0.101084 0.06831,0.136626 0.123855,0.101084 0.23771,0.192168 0.341565,0.273252 0.03277,0.05554 0.05554,0.101084 0.06831,0.136626 0.442649,0.01 0.875298,0.01 1.297947,0 0.01,0.101084 0.01,0.192168 0,0.273252 0.05554,0.192168 0.101084,0.374336 0.136626,0.546504 0.01,0.03277 0.01,0.05554 0,0.06831 0.101085,0.01 0.192169,0.01 0.273253,0 z" />
    <path
       style="fill:#ffffff;fill-opacity:1;stroke:#ffffff;stroke-width:0;stroke-linecap:round;stroke-linejoin:round;stroke-dasharray:none;stroke-opacity:1;paint-order:stroke fill markers"
       d="m 26.06562,43.999191 c -0.09827,-0.131027 -0.303208,-0.404279 -0.409878,-0.564275 -0.106669,-0.159996 -0.106669,-0.205536 -0.0576,-0.245576 0.04907,-0.04004 0.140156,-0.06281 0.192553,-0.104468 0.0524,-0.04166 0.07517,-0.109974 0.103938,-0.14713 0.02877,-0.03716 0.05154,-0.03716 0.08069,-0.05993 0.02915,-0.02277 0.0747,-0.06831 0.09747,-0.165783 0.02277,-0.09747 0.02277,-0.256867 0.118856,-0.341565 0.09608,-0.0847 0.278252,-0.0847 0.364336,-0.04554 0.08608,0.03916 0.08608,0.107471 0.110855,0.21094 0.02477,0.103469 0.07031,0.240096 0.09108,0.352951 0.02077,0.112855 0.02077,0.203939 0.173782,0.244481 0.153012,0.04054 0.449035,0.04054 0.592047,0.10247 0.143012,0.06193 0.143012,0.175782 0.143012,0.392106 0,0.216325 0,0.53512 0,0.728672 0,0.193552 0,0.261868 0,0.30741 0,0.04554 0,0.06831 -0.0099,0.03504 -0.0099,-0.03327 -0.03268,-0.12436 -0.14301,-0.175785 -0.110325,-0.05142 -0.315265,-0.05142 -0.463275,-0.05142 -0.148009,0 -0.239097,0 -0.289639,-0.0064 -0.05054,-0.0064 -0.05054,-0.02916 -0.05693,-0.04554 -0.0064,-0.01638 -0.02915,-0.01638 -0.05545,-0.05604 -0.0263,-0.03966 -0.04907,-0.130745 -0.06831,-0.18217 -0.01924,-0.05142 -0.04201,-0.05142 -0.110324,-0.05142 -0.06831,0 -0.182167,0 -0.244095,0 -0.06193,0 -0.06193,-3e-6 -0.160203,-0.131029 z"
       id="path3043"
       inkscape:path-effect="#path-effect3045"
       inkscape:original-d="m 26.16389,44.130217 c -0.194939,-0.263253 -0.399878,-0.536505 -0.614817,-0.819757 0.01,-0.03554 0.01,-0.08108 0,-0.136626 0.101084,-0.01277 0.192168,-0.03554 0.273252,-0.06831 0.03277,-0.05831 0.05554,-0.126626 0.06831,-0.204939 0.03277,0.01 0.05554,0.01 0.06831,0 0.05554,-0.03554 0.101084,-0.08108 0.136626,-0.136626 0.01,-0.149397 0.01,-0.308794 0,-0.478191 0.192168,0.01 0.374336,0.01 0.546504,0 0.01,0.07831 0.01,0.146626 0,0.204939 0.05554,0.146626 0.101084,0.283252 0.136626,0.409878 0.01,0.101084 0.01,0.192168 0,0.273252 0.306023,0.01 0.602046,0.01 0.88807,0 0.01,0.123855 0.01,0.23771 0,0.341565 0.01,0.328794 0.01,0.647589 0,0.956383 0.01,0.07831 0.01,0.146626 0,0.204939 0.01,0.03277 0.01,0.05554 0,0.06831 -0.01277,-0.08108 -0.03554,-0.172168 -0.06831,-0.273252 -0.194939,0.01 -0.399879,0.01 -0.614818,0 -0.08108,0.01 -0.172168,0.01 -0.273252,0 0.01,-0.01277 0.01,-0.03554 0,-0.06831 -0.01277,0.01 -0.03554,0.01 -0.06831,0 -0.01277,-0.08108 -0.03554,-0.172168 -0.06831,-0.273252 -0.01277,0.01 -0.03554,0.01 -0.06831,0 -0.103855,0.01 -0.21771,0.01 -0.341565,0 z" />
    <path
       style="fill:#ffffff;fill-opacity:1;stroke:#ffffff;stroke-width:0;stroke-linecap:round;stroke-linejoin:round;stroke-dasharray:none;stroke-opacity:1;paint-order:stroke fill markers"
       d="m 29.307987,33.973403 c 0.206637,-0.114799 0.616516,-0.342509 0.890069,-0.490577 0.273554,-0.148067 0.410181,-0.216381 0.499264,-0.272308 0.08908,-0.05593 0.134625,-0.101468 0.367044,-0.135887 0.232418,-0.03442 0.642296,-0.05719 0.915841,-0.06831 0.273545,-0.01112 0.410171,-0.01112 0.473484,0.0053 0.06331,0.01638 0.06331,0.03916 0.103468,0.05892 0.04016,0.01977 0.108471,0.04254 0.21035,0.113362 0.10188,0.07082 0.238506,0.184675 0.38646,0.309996 0.147955,0.12532 0.307352,0.261946 0.375312,0.325671 0.06796,0.06373 0.04519,0.06373 -0.116043,0.108294 -0.161235,0.04457 -0.457258,0.135653 -0.620262,0.300479 -0.163004,0.164825 -0.185774,0.392536 -0.282798,0.501935 -0.09702,0.1094 -0.279191,0.1094 -0.427203,0.1094 -0.148012,0 -0.261867,0 -0.341565,-0.01777 -0.0797,-0.01777 -0.125237,-0.06331 -0.284636,-0.09108 -0.159399,-0.02777 -0.432651,-0.02777 -0.592047,-0.04554 -0.159396,-0.01777 -0.204936,-0.06331 -0.239094,-0.09108 -0.03416,-0.02777 -0.05693,-0.02777 -0.07331,-0.03416 -0.01638,-0.0064 -0.01638,-0.02915 -0.05692,-0.04554 -0.04054,-0.01638 -0.131628,-0.01638 -0.188555,-0.02277 -0.05693,-0.0064 -0.0797,-0.02916 -0.227708,-0.04554 -0.148011,-0.01638 -0.421264,-0.01638 -0.604041,-0.06782 -0.182777,-0.05144 -0.273863,-0.165295 -0.323795,-0.227711 -0.04993,-0.06242 -0.04994,-0.06242 0.156693,-0.177217 z"
       id="path3047"
       inkscape:path-effect="#path-effect3049"
       inkscape:original-d="m 29.10135,34.088201 c 0.419878,-0.21771 0.829757,-0.44542 1.229635,-0.68313 0.146626,-0.05831 0.283252,-0.126626 0.409878,-0.204939 0.05554,-0.03554 0.101084,-0.08108 0.136626,-0.136626 0.419878,-0.01277 0.829756,-0.03554 1.229634,-0.06831 0.146627,0.01 0.283253,0.01 0.409879,0 0.01,0.03277 0.01,0.05554 0,0.06831 0.07831,0.03277 0.146626,0.05554 0.204939,0.06831 0.146626,0.123855 0.283252,0.23771 0.409878,0.341565 0.169397,0.146626 0.328794,0.283252 0.478191,0.409878 -0.01277,0.01 -0.03554,0.01 -0.06831,0 -0.286023,0.101084 -0.582046,0.192168 -0.888069,0.273252 -0.01277,0.23771 -0.03554,0.465421 -0.06831,0.683131 -0.172168,0.01 -0.354336,0.01 -0.546505,0 -0.103855,0.01 -0.21771,0.01 -0.341565,0 -0.03554,-0.03554 -0.08108,-0.08108 -0.136626,-0.136626 -0.263252,0.01 -0.536504,0.01 -0.819756,0 -0.03554,-0.03554 -0.08108,-0.08108 -0.136626,-0.136626 -0.01277,0.01 -0.03554,0.01 -0.06831,0 0.01,-0.01277 0.01,-0.03554 0,-0.06831 -0.08108,0.01 -0.172168,0.01 -0.273252,0 -0.01277,-0.01277 -0.03554,-0.03554 -0.06831,-0.06831 -0.263252,0.01 -0.536505,0.01 -0.819757,0 -0.08108,-0.103855 -0.172168,-0.21771 -0.273252,-0.341565 z" />
    <path
       style="fill:#ffffff;fill-opacity:1;stroke:#ffffff;stroke-width:0;stroke-linecap:round;stroke-linejoin:round;stroke-dasharray:none;stroke-opacity:1;paint-order:stroke fill markers"
       d="m 29.904336,49.552717 c 0.05154,0.02577 0.142626,0.07131 0.142628,0.07131 2e-6,10e-7 -0.09108,-0.04554 -0.0569,-0.03457 0.03419,0.01097 0.193588,0.07928 0.408878,0.110855 0.21529,0.03157 0.488542,0.03157 0.620168,0.04795 0.131626,0.01638 0.131626,0.03916 0.159396,0.04554 0.02777,0.0064 0.07331,0.0064 0.142226,0.04474 0.06891,0.03836 0.159998,0.10667 0.262355,0.186559 0.102358,0.07989 0.216213,0.170972 0.317041,0.286206 0.100828,0.115234 0.191912,0.25186 0.546504,0.34917 0.354592,0.09731 0.96941,0.165624 1.401571,0.19917 0.432161,0.03355 0.682642,0.03355 0.802883,-0.01838 0.120241,-0.05193 0.120241,-0.165783 0.113856,-0.22771 -0.0064,-0.06193 -0.02916,-0.06193 -0.05492,-0.09008 -0.02577,-0.02815 -0.04854,-0.09647 -0.06831,-0.136628 -0.01977,-0.04016 -0.04254,-0.04016 -0.121468,-0.08185 -0.07893,-0.0417 -0.215556,-0.132781 -0.444036,-0.182169 -0.228479,-0.04939 -0.547273,-0.04939 -0.773983,-0.07016 -0.226709,-0.02077 -0.363335,-0.06631 -0.455418,-0.09108 -0.09208,-0.02477 -0.137624,-0.02477 -0.165397,-0.04254 -0.02777,-0.01777 -0.02777,-0.06331 -0.04454,-0.09947 -0.01677,-0.03616 -0.06231,-0.05893 -0.11144,-0.124205 -0.04913,-0.06528 -0.09467,-0.179133 -0.136627,-0.25048 -0.04196,-0.07135 -0.0875,-0.09412 -0.147425,-0.170815 -0.05993,-0.0767 -0.128243,-0.213325 -0.193555,-0.297023 -0.06531,-0.0837 -0.133627,-0.106468 -0.173784,-0.126238 -0.04016,-0.01977 -0.04016,-0.04254 -0.114854,-0.05893 -0.0747,-0.01638 -0.234096,-0.01638 -0.689516,-0.01638 -0.45542,0 -1.206863,0 -1.628125,0 -0.421262,0 -0.51235,0 -0.562892,0.02777 -0.05054,0.02777 -0.05054,0.07331 -0.05054,0.153014 0,0.0797 0,0.193553 0.01638,0.245481 0.01638,0.05193 0.03916,0.05193 0.09708,0.0777 0.05793,0.02577 0.149011,0.07131 0.308177,0.115009 0.159166,0.0437 0.386876,0.08924 0.494963,0.110855 0.108086,0.02162 0.10808,0.02161 0.159622,0.04738 z"
       id="path3051"
       inkscape:path-effect="#path-effect3053"
       inkscape:original-d="m 29.852794,49.526946 c 0.101084,0.05554 0.192168,0.101084 0.273252,0.136626 -0.08108,-0.03554 -0.172168,-0.08108 -0.273252,-0.136626 0.169397,0.07831 0.328794,0.146626 0.478191,0.204939 0.283252,0.01 0.556504,0.01 0.819756,0 0.01,0.03277 0.01,0.05554 0,0.06831 0.05554,0.01 0.101084,0.01 0.136626,0 0.101084,0.07831 0.192168,0.146626 0.273252,0.204939 0.123855,0.101084 0.23771,0.192168 0.341565,0.273252 0.101084,0.146626 0.192168,0.283252 0.273253,0.409878 0.624817,0.07831 1.239634,0.146626 1.844451,0.204939 0.260481,0.01 0.510962,0.01 0.751444,0 0.01,-0.103855 0.01,-0.21771 0,-0.341565 -0.01277,0.01 -0.03554,0.01 -0.06831,0 -0.01277,-0.05831 -0.03554,-0.126626 -0.06831,-0.204939 -0.01277,0.01 -0.03554,0.01 -0.06831,0 -0.126627,-0.08108 -0.263253,-0.172168 -0.409879,-0.273252 -0.308794,0.01 -0.627588,0.01 -0.956382,0 -0.126626,-0.03554 -0.263252,-0.08108 -0.409878,-0.136626 -0.03554,0.01 -0.08108,0.01 -0.136626,0 0.01,-0.03554 0.01,-0.08108 0,-0.136626 -0.03554,-0.01277 -0.08108,-0.03554 -0.136626,-0.06831 -0.03554,-0.103855 -0.08108,-0.21771 -0.136626,-0.341565 -0.03554,-0.01277 -0.08108,-0.03554 -0.136626,-0.06831 -0.05831,-0.126626 -0.126627,-0.263252 -0.20494,-0.409878 -0.05831,-0.01277 -0.126626,-0.03554 -0.204939,-0.06831 0.01,-0.01277 0.01,-0.03554 0,-0.06831 -0.149397,0.01 -0.308794,0.01 -0.478191,0 -0.741443,0.01 -1.492886,0.01 -2.25433,0 -0.08108,0.01 -0.172168,0.01 -0.273252,0 0.01,0.05554 0.01,0.101085 0,0.136627 0.01,0.123855 0.01,0.23771 0,0.341565 0.03277,0.01 0.05554,0.01 0.06831,0 0.101084,0.05554 0.192168,0.101084 0.273252,0.136626 0.23771,0.05554 0.46542,0.101084 0.683131,0.136626 z" />
    <path
       style="fill:#ffffff;fill-opacity:1;stroke:#ffffff;stroke-width:0;stroke-linecap:round;stroke-linejoin:round;stroke-dasharray:none;stroke-opacity:1;paint-order:stroke fill markers"
       d="m 15.711997,33.444227 c 0,-0.370721 0,-1.122164 0.01122,-1.839623 0.01122,-0.717459 0.03399,-1.400589 0.01491,-1.798027 -0.01908,-0.397438 -0.08739,-0.511294 -0.14185,-0.582489 -0.05446,-0.07119 -0.1,-0.09396 -0.14854,-0.147889 -0.04854,-0.05393 -0.09409,-0.145012 -0.170902,-0.227182 -0.07682,-0.08217 -0.190672,-0.150483 -0.253482,-0.319795 -0.06281,-0.169312 -0.06281,-0.442564 -0.06281,-0.647503 0,-0.204939 0,-0.341565 0.07399,-0.402547 0.07399,-0.06098 0.210614,-0.03821 0.287636,9.97e-4 0.07702,0.03921 0.09979,0.08475 0.17114,0.126709 0.07135,0.04196 0.185203,0.0875 0.25048,0.136625 0.06528,0.04913 0.08805,0.09467 0.135589,0.111442 0.04754,0.01677 0.115856,0.01677 0.172783,0.04454 0.05693,0.02777 0.10247,0.07331 0.160396,0.104469 0.05793,0.03116 0.126242,0.05393 0.154398,0.25048 0.02816,0.196553 0.02816,0.560889 0.04254,0.766827 0.01439,0.205938 0.03716,0.251482 0.06193,0.268253 0.02477,0.01677 0.04754,0.01677 0.05392,0.0787 0.0064,0.06193 0.0064,0.175783 0.03216,0.279252 0.02577,0.103469 0.07131,0.194555 0.09108,0.261867 0.01977,0.06731 0.01977,0.112856 0.04639,0.170551 0.02662,0.0577 0.07216,0.126011 0.09108,0.432651 0.01892,0.306639 0.01892,0.853143 0.01892,1.274407 0,0.421264 0,0.717287 -0.02077,0.870683 -0.02077,0.153396 -0.06631,0.176165 -0.126122,0.246949 -0.05981,0.07078 -0.128125,0.184639 -0.190554,0.240096 -0.06243,0.05546 -0.130745,0.05546 -0.182286,0.09261 -0.05154,0.03715 -0.07431,0.105471 -0.102467,0.136628 -0.02816,0.03116 -0.0737,0.03116 -0.101468,0.04754 -0.02777,0.01638 -0.02777,0.03916 -0.0847,0.102467 -0.05693,0.06331 -0.170783,0.177168 -0.22771,0.234095 -0.05693,0.05693 -0.05692,0.05694 -0.05692,-0.313785 z"
       id="path3055"
       inkscape:path-effect="#path-effect3057"
       inkscape:original-d="m 15.711997,33.814949 c 0.01,-0.741443 0.01,-1.492886 0,-2.25433 0.03277,-0.67313 0.05554,-1.35626 0.06831,-2.049391 -0.05831,-0.103855 -0.126626,-0.21771 -0.204939,-0.341565 -0.03554,-0.01277 -0.08108,-0.03554 -0.136627,-0.06831 -0.03554,-0.08108 -0.08108,-0.172168 -0.136626,-0.273252 -0.103855,-0.05831 -0.21771,-0.126626 -0.341565,-0.204939 0.01,-0.263252 0.01,-0.536504 0,-0.819756 0.01,-0.126626 0.01,-0.263252 0,-0.409878 0.146626,0.03277 0.283252,0.05554 0.409878,0.06831 0.03277,0.05554 0.05554,0.101084 0.06831,0.136626 0.123856,0.05554 0.237711,0.101084 0.341566,0.136626 0.03277,0.05554 0.05554,0.101084 0.06831,0.136626 0.07831,0.01 0.146626,0.01 0.204939,0 0.05554,0.05554 0.101084,0.101084 0.136626,0.136626 0.07831,0.03277 0.146626,0.05554 0.204939,0.06831 0.01,0.374336 0.01,0.738672 0,1.093008 0.03277,0.05554 0.05554,0.101084 0.06831,0.136626 0.03277,0.01 0.05554,0.01 0.06831,0 0.01,0.123855 0.01,0.23771 0,0.341565 0.05554,0.101084 0.101084,0.192169 0.136626,0.273253 0.01,0.05554 0.01,0.101084 0,0.136626 0.05554,0.07831 0.101084,0.146626 0.136626,0.204939 0.01,0.556504 0.01,1.103008 0,1.639512 0.01,0.306024 0.01,0.602047 0,0.88807 -0.03554,0.03277 -0.08108,0.05554 -0.136626,0.06831 -0.05831,0.123855 -0.126626,0.23771 -0.204939,0.341565 -0.05831,0.01 -0.126626,0.01 -0.204939,0 -0.01277,0.07831 -0.03554,0.146626 -0.06831,0.204939 -0.03554,0.01 -0.08108,0.01 -0.136626,0 0.01,0.03277 0.01,0.05554 0,0.06831 -0.103855,0.123855 -0.21771,0.23771 -0.341565,0.341565 z" />
    <path
       style="fill:#ffffff;fill-opacity:1;stroke:#ffffff;stroke-width:0;stroke-linecap:round;stroke-linejoin:round;stroke-dasharray:none;stroke-opacity:1;paint-order:stroke fill markers"
       d="m 17.693074,23.846247 c 0,-0.199939 0,-0.609817 -0.01677,-0.828141 -0.01677,-0.218323 -0.06231,-0.241093 -0.09947,-0.272249 -0.03716,-0.03116 -0.05993,-0.0767 -0.0807,-0.105469 -0.02077,-0.02877 -0.04354,-0.02877 -0.05993,-0.04654 -0.01638,-0.01777 -0.01638,-0.06331 -0.05754,-0.142522 -0.04115,-0.07921 -0.132237,-0.193068 -0.245072,-0.307903 -0.112835,-0.114835 -0.249461,-0.22869 -0.323184,-0.433137 -0.07372,-0.204447 -0.07372,-0.50047 -0.07372,-0.739566 0,-0.239095 0,-0.421263 0.02777,-0.517347 0.02777,-0.09608 0.07331,-0.09608 0.09108,-0.0797 0.01777,0.01638 0.01777,0.03915 0.114698,0.106119 0.09693,0.06696 0.279094,0.180819 0.380721,0.234095 0.101626,0.05328 0.124396,0.05328 0.130781,0.06966 0.0064,0.01638 0.0064,0.03915 0.03415,0.04554 0.02777,0.0064 0.07331,0.0064 0.09108,0.03415 0.01777,0.02777 0.01777,0.07331 0.04654,0.105469 0.02877,0.03216 0.07431,0.05493 0.175092,0.17132 0.100777,0.116393 0.260174,0.321332 0.35195,0.418263 0.09178,0.09693 0.114546,0.09693 0.120931,0.113316 0.0064,0.01638 0.0064,0.03916 0.03415,0.04554 0.02777,0.0064 0.07331,0.0064 0.09108,0.02277 0.01777,0.01638 0.01777,0.03916 0.03416,0.04554 0.01639,0.0064 0.03916,0.0064 0.07216,0.04631 0.033,0.03992 0.07854,0.10824 0.12524,0.136628 0.04669,0.02839 0.09224,0.02839 0.11001,0.04477 0.01777,0.01638 0.01777,0.03916 0.04554,0.04554 0.02777,0.0064 0.07331,0.0064 0.116856,0.05793 0.04354,0.05154 0.08908,0.142626 0.136625,0.182168 0.04754,0.03954 0.09309,0.03954 0.110856,0.09008 0.01777,0.05054 0.01777,0.141626 0.01777,0.244096 0,0.10247 0,0.216325 -0.01239,0.293023 -0.01238,0.0767 -0.03515,0.122241 -0.103411,0.24718 -0.06826,0.124938 -0.182111,0.329877 -0.335564,0.430649 -0.153454,0.100771 -0.358393,0.100771 -0.465863,0.117156 -0.107469,0.01638 -0.107469,0.03915 -0.125239,0.04554 -0.01777,0.0064 -0.06331,0.0064 -0.09108,0.02277 -0.02777,0.01639 -0.02777,0.03916 -0.08323,0.07881 -0.05546,0.03966 -0.169314,0.107972 -0.227712,0.143011 -0.0584,0.03504 -0.0584,0.03506 -0.0584,-0.164879 z"
       id="path3059"
       inkscape:path-effect="#path-effect3061"
       inkscape:original-d="m 17.693074,24.046186 c 0.01,-0.399878 0.01,-0.809756 0,-1.229634 -0.03554,-0.01277 -0.08108,-0.03554 -0.136626,-0.06831 -0.01277,-0.03554 -0.03554,-0.08108 -0.06831,-0.136627 -0.01277,0.01 -0.03554,0.01 -0.06831,0 0.01,-0.03554 0.01,-0.08108 0,-0.136626 -0.08108,-0.103855 -0.172168,-0.21771 -0.273252,-0.341565 -0.126626,-0.103855 -0.263252,-0.21771 -0.409878,-0.341565 0.01,-0.286023 0.01,-0.582046 0,-0.888069 0.01,-0.172168 0.01,-0.354336 0,-0.546504 0.05554,0.01 0.101084,0.01 0.136626,0 0.01,0.03277 0.01,0.05554 0,0.06831 0.192168,0.123855 0.374336,0.23771 0.546504,0.341565 0.03277,0.01 0.05554,0.01 0.06831,0 0.01,0.03277 0.01,0.05554 0,0.06831 0.05554,0.01 0.101084,0.01 0.136626,0 0.01,0.05554 0.01,0.101084 0,0.136626 0.05554,0.03277 0.101084,0.05554 0.136626,0.06831 0.169398,0.214939 0.328795,0.419878 0.478192,0.614817 0.03277,0.01 0.05554,0.01 0.06831,0 0.01,0.03277 0.01,0.05554 0,0.06831 0.05554,0.01 0.101084,0.01 0.136626,0 0.01,0.03277 0.01,0.05554 0,0.06831 0.03277,0.01 0.05554,0.01 0.06831,0 0.05554,0.07831 0.101084,0.146626 0.136626,0.204939 0.05554,0.01 0.101084,0.01 0.136626,0 0.01,0.03277 0.01,0.05554 0,0.06831 0.05554,0.01 0.101084,0.01 0.136626,0 0.05554,0.101084 0.101084,0.192168 0.136626,0.273252 0.05554,0.01 0.101084,0.01 0.136626,0 0.01,0.101084 0.01,0.192168 0,0.273252 0.01,0.123856 0.01,0.237711 0,0.341566 -0.01277,0.05554 -0.03554,0.101084 -0.06831,0.136626 -0.103855,0.214939 -0.21771,0.419878 -0.341565,0.614817 -0.194939,0.01 -0.399878,0.01 -0.614817,0 0.01,0.03277 0.01,0.05554 0,0.06831 -0.03554,0.01 -0.08108,0.01 -0.136626,0 0.01,0.03277 0.01,0.05554 0,0.06831 -0.103855,0.07831 -0.217711,0.146626 -0.341566,0.204939 z" />
    <path
       style="fill:#ffffff;fill-opacity:1;stroke:#ffffff;stroke-width:0;stroke-linecap:round;stroke-linejoin:round;stroke-dasharray:none;stroke-opacity:1;paint-order:stroke fill markers"
       d="m 35.117449,14.504754 c -0.2687,0.02239 -0.815206,0.06793 -1.181353,0.124213 -0.366148,0.05628 -0.548317,0.124592 -0.671295,0.159776 -0.122979,0.03518 -0.191295,0.03518 -0.286769,0.08024 -0.09547,0.04505 -0.209329,0.136138 -0.308877,0.19267 -0.09955,0.05653 -0.190636,0.0793 -0.239708,0.130726 -0.04907,0.05142 -0.04907,0.119738 -0.06046,0.16028 -0.01139,0.04054 -0.03415,0.06331 -0.04554,0.261864 -0.01138,0.198554 -0.01138,0.56289 0.03635,0.87132 0.04773,0.308431 0.138816,0.558912 0.12524,0.735058 -0.01358,0.176146 -0.12743,0.290001 -0.208072,0.429929 -0.08064,0.139927 -0.126184,0.299324 -0.170782,0.398492 -0.0446,0.09917 -0.09014,0.144709 -0.125297,0.204636 -0.03516,0.05993 -0.05793,0.128243 -0.08908,0.169784 -0.03116,0.04154 -0.0767,0.06431 -0.101468,0.115851 -0.02477,0.05154 -0.02477,0.119857 -0.03116,0.149013 -0.0064,0.02916 -0.02915,0.02916 -0.02915,0.02916 0,0 0.02277,0 0.0797,0 0.05693,0 0.148011,0 0.33018,0 0.182168,0 0.45542,0 0.633387,-0.03476 0.177968,-0.03476 0.269053,-0.10307 0.360136,-0.171382 0.09108,-0.06831 0.182169,-0.136627 0.308224,-0.216648 0.126055,-0.08002 0.285454,-0.171106 0.385273,-0.270066 0.09982,-0.09896 0.145362,-0.212817 0.185553,-0.27233 0.04019,-0.05951 0.06296,-0.05951 0.06935,-0.19114 0.0064,-0.131626 0.0064,-0.404878 0.03966,-0.60196 0.03327,-0.197083 0.101587,-0.310939 0.147011,-0.390107 0.04542,-0.07917 0.06819,-0.124709 0.277381,-0.207364 0.209188,-0.08266 0.596295,-0.196511 0.848527,-0.252483 0.252233,-0.05597 0.366088,-0.05597 0.418016,-0.09651 0.05193,-0.04054 0.05193,-0.131628 0.0297,-0.404435 -0.02223,-0.272807 -0.06777,-0.728227 -0.144166,-0.950766 -0.0764,-0.22254 -0.190252,-0.19977 -0.251025,-0.187616 -0.06077,0.01215 -0.06077,0.01217 -0.329474,0.03456 z"
       id="path3063"
       inkscape:path-effect="#path-effect3065"
       inkscape:original-d="m 35.386149,14.482362 c -0.536504,0.05554 -1.083009,0.101084 -1.639513,0.136626 -0.172168,0.07831 -0.354336,0.146626 -0.546504,0.204939 -0.05831,0.01 -0.126626,0.01 -0.204939,0 -0.103855,0.101084 -0.21771,0.192168 -0.341565,0.273252 -0.08108,0.03277 -0.172168,0.05554 -0.273252,0.06831 0.01,0.07831 0.01,0.146626 0,0.204939 -0.01277,0.03277 -0.03554,0.05554 -0.06831,0.06831 0.01,0.374337 0.01,0.738673 0,1.093009 0.101084,0.260481 0.192168,0.510962 0.273252,0.751443 -0.103855,0.123855 -0.21771,0.23771 -0.341565,0.341565 -0.03554,0.169397 -0.08108,0.328795 -0.136627,0.478192 -0.03554,0.05554 -0.08108,0.101084 -0.136626,0.136626 -0.01277,0.07831 -0.03554,0.146626 -0.06831,0.204939 -0.03554,0.03277 -0.08108,0.05554 -0.136626,0.06831 0.01,0.07831 0.01,0.146626 0,0.204939 -0.01277,0.01 -0.03554,0.01 -0.06831,0 0.03277,0.01 0.05554,0.01 0.06831,0 0.101084,0.01 0.192168,0.01 0.273252,0 0.283253,0.01 0.556505,0.01 0.819757,0 0.101084,-0.05831 0.192168,-0.126626 0.273252,-0.204939 0.101084,-0.05831 0.192168,-0.126626 0.273252,-0.204939 0.169397,-0.08108 0.328794,-0.172168 0.478191,-0.273252 0.05554,-0.103855 0.101084,-0.217711 0.136626,-0.341566 0.03277,0.01 0.05554,0.01 0.06831,0 0.01,-0.263252 0.01,-0.536504 0,-0.819756 0.07831,-0.103855 0.146626,-0.21771 0.204939,-0.341565 0.03277,-0.03554 0.05554,-0.08108 0.06831,-0.136626 0.397108,-0.103855 0.784215,-0.21771 1.161322,-0.341565 0.123855,0.01 0.23771,0.01 0.341565,0 0.01,-0.08108 0.01,-0.172168 0,-0.273252 -0.03554,-0.445421 -0.08108,-0.900841 -0.136626,-1.366261 -0.103855,0.03277 -0.21771,0.05554 -0.341565,0.06831 z" />
    <path
       style="fill:#ffffff;fill-opacity:1;stroke:#ffffff;stroke-width:0;stroke-linecap:round;stroke-linejoin:round;stroke-dasharray:none;stroke-opacity:1;paint-order:stroke fill markers"
       d="m 45.695031,23.294743 c -0.211325,0 -0.643974,0 -0.865299,0.164397 -0.221324,0.164397 -0.221324,0.483191 -0.299407,0.682207 -0.07808,0.199016 -0.23748,0.2901 -0.318794,0.37572 -0.08131,0.08562 -0.08131,0.153936 0.04995,0.24276 0.131268,0.08882 0.381749,0.202679 0.79017,0.23373 0.408421,0.03105 0.977697,-0.01449 1.348848,-0.12798 0.371151,-0.11349 0.553319,-0.295658 0.693474,-0.399009 0.140156,-0.103352 0.23124,-0.126122 0.296022,-0.159394 0.06478,-0.03327 0.110325,-0.07881 0.160867,-0.101587 0.05054,-0.02277 0.09609,-0.02277 0.184169,-0.05793 0.08808,-0.03516 0.224711,-0.10347 0.498283,-0.228741 0.273571,-0.125272 0.68345,-0.30744 0.945583,-0.421298 0.262133,-0.113859 0.375987,-0.1594 0.430329,-0.187522 0.05434,-0.02812 0.05434,-0.05089 0.0935,-0.06728 0.03915,-0.01638 0.107471,-0.01638 0.136627,-0.113854 0.02916,-0.09747 0.02916,-0.302409 -0.07899,-0.485584 -0.108151,-0.183175 -0.335861,-0.342572 -0.529443,-0.479138 -0.193583,-0.136565 -0.35298,-0.25042 -0.683619,-0.322549 -0.330639,-0.07213 -0.831601,-0.0949 -1.127839,-0.106522 -0.296237,-0.01162 -0.387325,-0.01162 -0.437867,-0.143248 -0.05054,-0.131626 -0.05054,-0.404878 -0.138886,-0.513375 -0.08834,-0.108497 -0.270513,-0.04018 -0.388108,0.04254 -0.117595,0.08272 -0.163136,0.173808 -0.25399,0.320975 -0.09085,0.147166 -0.227479,0.352105 -0.283362,0.674993 -0.05588,0.322889 -0.03311,0.755539 -0.022,0.966615 0.01111,0.211076 0.01111,0.211067 -0.200212,0.211067 z"
       id="path3067"
       inkscape:path-effect="#path-effect3069"
       inkscape:original-d="m 45.906355,23.294743 c -0.422649,0.01 -0.855298,0.01 -1.297947,0 0.01,0.328794 0.01,0.647588 0,0.956382 -0.149397,0.101084 -0.308794,0.192168 -0.478191,0.273252 0.01,0.07831 0.01,0.146626 0,0.204939 0.260481,0.123855 0.510962,0.23771 0.751443,0.341566 0.579275,-0.03554 1.14855,-0.08109 1.707826,-0.136627 0.192168,-0.172168 0.374336,-0.354336 0.546504,-0.546504 0.101084,-0.01277 0.192168,-0.03554 0.273252,-0.06831 0.05554,-0.03554 0.101084,-0.08108 0.136626,-0.136626 0.05554,0.01 0.101084,0.01 0.136626,0 0.146626,-0.05831 0.283252,-0.126626 0.409878,-0.204939 0.419878,-0.172168 0.829757,-0.354336 1.229635,-0.546504 0.123855,-0.03554 0.23771,-0.08108 0.341565,-0.136626 0.01,-0.01277 0.01,-0.03554 0,-0.06831 0.07831,0.01 0.146626,0.01 0.204939,0 0.01,-0.194939 0.01,-0.399878 0,-0.614818 -0.21771,-0.149397 -0.44542,-0.308794 -0.68313,-0.478191 -0.149397,-0.103855 -0.308794,-0.21771 -0.478192,-0.341565 -0.490962,-0.01277 -0.991924,-0.03554 -1.502886,-0.06831 -0.08108,0.01 -0.172168,0.01 -0.273252,0 0.01,-0.263252 0.01,-0.536504 0,-0.819756 -0.172168,0.07831 -0.354336,0.146626 -0.546505,0.204939 -0.03554,0.101084 -0.08108,0.192168 -0.136626,0.273252 -0.126626,0.214939 -0.263252,0.419878 -0.409878,0.614817 0.03277,0.442649 0.05554,0.875299 0.06831,1.297948 z" />
    <path
       style="fill:#ffffff;fill-opacity:1;stroke:#ffffff;stroke-width:0;stroke-linecap:round;stroke-linejoin:round;stroke-dasharray:none;stroke-opacity:1;paint-order:stroke fill markers"
       d="m 35.568882,40.702721 c 0.182732,-0.148471 0.547068,-0.444494 0.796985,-0.660359 0.249916,-0.215866 0.386542,-0.352492 0.505397,-0.420805 0.118856,-0.06831 0.20994,-0.06831 0.285791,-0.09185 0.07585,-0.02354 0.144165,-0.06908 0.22771,-0.09108 0.08355,-0.022 0.17463,-0.022 0.299071,-0.03399 0.12444,-0.01198 0.283837,-0.03475 0.625976,-0.05713 0.342138,-0.02238 0.865871,-0.04515 1.46953,-0.05632 0.603658,-0.01118 1.286788,-0.01118 1.674495,0.02718 0.387706,0.03836 0.478792,0.106671 0.546504,0.136627 0.06771,0.02996 0.113256,0.02996 0.131027,0.04634 0.01777,0.01638 0.01777,0.03916 0.04554,0.04554 0.02777,0.0064 0.07331,0.0064 0.17543,0.102779 0.102115,0.09639 0.261512,0.278561 0.336565,0.392106 0.07505,0.113544 0.07505,0.159088 0.09144,0.176859 0.01638,0.01777 0.03916,0.01777 0.142162,0.02985 0.103008,0.01208 0.285176,0.03485 0.383577,0.09696 0.0984,0.06212 0.121171,0.153201 0.124701,0.19286 0.0035,0.03966 -0.01924,0.03966 -0.0594,0.110973 -0.04016,0.07131 -0.0857,0.207938 -0.218738,0.317759 -0.13304,0.109821 -0.36075,0.200905 -0.489575,0.284637 -0.128826,0.08373 -0.151597,0.152047 -0.205522,0.204974 -0.05392,0.05293 -0.145013,0.09847 -0.227516,0.285394 -0.0825,0.186925 -0.150817,0.505719 -0.247481,0.66136 -0.09667,0.155641 -0.233291,0.155641 -0.516905,0.07816 -0.283613,-0.07748 -0.716262,-0.236876 -0.956381,-0.336564 -0.240119,-0.09969 -0.285659,-0.145228 -0.410901,-0.173001 -0.125243,-0.02777 -0.330182,-0.02777 -0.437652,-0.03416 -0.107469,-0.0064 -0.107469,-0.02915 -0.125239,-0.04554 -0.01777,-0.01638 -0.06331,-0.01638 -0.119469,-0.03531 -0.05616,-0.01892 -0.124474,-0.06447 -0.227713,-0.09108 -0.10324,-0.02662 -0.239866,-0.02662 -0.341565,-0.04554 -0.101698,-0.01892 -0.170017,-0.06447 -0.329259,-0.123627 -0.159241,-0.05916 -0.409723,-0.127471 -0.558656,-0.181013 -0.148934,-0.05354 -0.194474,-0.09908 -0.274175,-0.126855 -0.0797,-0.02777 -0.193555,-0.02777 -0.329237,-0.04885 -0.135683,-0.02107 -0.295079,-0.06661 -0.443265,-0.132779 -0.148186,-0.06616 -0.284814,-0.15725 -0.536064,-0.206638 -0.25125,-0.04939 -0.615586,-0.04939 -0.802754,-0.04939 -0.187168,0 -0.187168,-4e-6 -0.0044,-0.148474 z"
       id="path3071"
       inkscape:path-effect="#path-effect3073"
       inkscape:original-d="m 35.386149,40.851191 c 0.374336,-0.286023 0.738672,-0.582046 1.093008,-0.888069 0.146626,-0.126626 0.283252,-0.263252 0.409878,-0.409878 0.101085,0.01 0.192169,0.01 0.273253,0 0.07831,-0.03554 0.146626,-0.08108 0.204939,-0.136626 0.101084,0.01 0.192168,0.01 0.273252,0 0.169397,-0.01277 0.328794,-0.03554 0.478191,-0.06831 0.533733,-0.01277 1.057466,-0.03554 1.5712,-0.06831 0.69313,0.01 1.37626,0.01 2.049391,0 0.101084,0.07831 0.192168,0.146627 0.273252,0.20494 0.05554,0.01 0.101084,0.01 0.136626,0 0.01,0.03277 0.01,0.05554 0,0.06831 0.05554,0.01 0.101084,0.01 0.136626,0 0.169397,0.192168 0.328794,0.374336 0.478191,0.546504 0.01,0.05554 0.01,0.101084 0,0.136626 0.03277,0.01 0.05554,0.01 0.06831,0 0.192168,0.03277 0.374336,0.05554 0.546504,0.06831 0.03277,0.101084 0.05554,0.192168 0.06831,0.273252 -0.01277,0.01 -0.03554,0.01 -0.06831,0 -0.03554,0.146626 -0.08108,0.283252 -0.136626,0.409878 -0.21771,0.101084 -0.44542,0.192168 -0.68313,0.273252 -0.01277,0.07831 -0.03554,0.146626 -0.06831,0.204939 -0.08108,0.05554 -0.172168,0.101084 -0.273252,0.136626 -0.05831,0.328795 -0.126626,0.647589 -0.204939,0.956383 -0.126626,0.01 -0.263252,0.01 -0.409879,0 -0.422649,-0.149397 -0.855298,-0.308794 -1.297947,-0.478191 -0.03554,-0.03554 -0.08108,-0.08108 -0.136626,-0.136626 -0.194939,0.01 -0.399878,0.01 -0.614817,0 0.01,-0.01277 0.01,-0.03554 0,-0.06831 -0.03554,0.01 -0.08108,0.01 -0.136626,0 -0.05831,-0.03554 -0.126627,-0.08108 -0.20494,-0.136626 -0.126626,0.01 -0.263252,0.01 -0.409878,0 -0.05831,-0.03554 -0.126626,-0.08109 -0.204939,-0.136627 -0.240481,-0.05831 -0.490962,-0.126626 -0.751443,-0.204939 -0.03554,-0.03554 -0.08108,-0.08108 -0.136626,-0.136626 -0.103855,0.01 -0.21771,0.01 -0.341565,0 -0.149397,-0.03554 -0.308794,-0.08108 -0.478192,-0.136626 -0.126626,-0.08108 -0.263252,-0.172168 -0.409878,-0.273252 -0.354336,0.01 -0.718672,0.01 -1.093008,0 z" />
    <path
       style="fill:#ffffff;fill-opacity:1;stroke:#ffffff;stroke-width:0;stroke-linecap:round;stroke-linejoin:round;stroke-dasharray:none;stroke-opacity:1;paint-order:stroke fill markers"
       d="M 22.474986,6.1481726 21.996795,31.833871 25.344134,5.6699814 Z"
       id="path3129" />
    <path
       style="fill:#ffffff;fill-opacity:1;stroke:#ffffff;stroke-width:0;stroke-linecap:round;stroke-linejoin:round;stroke-dasharray:none;stroke-opacity:1;paint-order:stroke fill markers"
       d="M 26.983646,31.423993 47.614181,6.1481726 h 4.576973 z"
       id="path3131" />
    <path
       style="fill:#ffffff;fill-opacity:1;stroke:#ffffff;stroke-width:0;stroke-linecap:round;stroke-linejoin:round;stroke-dasharray:none;stroke-opacity:1;paint-order:stroke fill markers"
       d="M 27.188585,31.970497 57.246318,11.27165 57.382944,14.004171 Z"
       id="path3133" />
    <path
       style="fill:#ffffff;fill-opacity:1;stroke:#ffffff;stroke-width:0;stroke-linecap:round;stroke-linejoin:round;stroke-dasharray:none;stroke-opacity:1;paint-order:stroke fill markers"
       d="M 28.896411,38.460235 57.246318,24.661003 v 3.620591 z"
       id="path3135" />
    <path
       style="fill:#ffffff;fill-opacity:1;stroke:#ffffff;stroke-width:0;stroke-linecap:round;stroke-linejoin:round;stroke-dasharray:none;stroke-opacity:1;paint-order:stroke fill markers"
       d="m 31.492306,44.19853 26.16389,3.279025 -0.136626,-4.235408 z"
       id="path3137" />
    <path
       style="fill:#ffffff;fill-opacity:1;stroke:#ffffff;stroke-width:0;stroke-linecap:round;stroke-linejoin:round;stroke-dasharray:none;stroke-opacity:1;paint-order:stroke fill markers"
       d="M 15.028866,6.6263638 17.283196,19.264274 16.736692,5.8749205 Z"
       id="path3139" />
    <path
       style="fill:#000000;fill-opacity:1;stroke:#ffffff;stroke-width:0;stroke-linecap:round;stroke-linejoin:round;stroke-dasharray:none;stroke-opacity:1;paint-order:stroke fill markers"
       d="M 56.83644,25.48076 40.782878,33.405071 56.83644,27.803402 Z"
       id="path3141"
       sodipodi:nodetypes="cccc" />
    <path
       style="fill:#fefefe;fill-opacity:1;stroke:#ffffff;stroke-width:0;stroke-linecap:round;stroke-linejoin:round;stroke-dasharray:none;stroke-opacity:1;paint-order:stroke fill markers"
       d="M 29.921107,6.4897377 25.822325,26.710394 32.721941,6.3531117 Z"
       id="path4056" />
    <path
       style="fill:#000000;fill-opacity:1;stroke:#ffffff;stroke-width:0;stroke-linecap:round;stroke-linejoin:round;stroke-dasharray:none;stroke-opacity:1;paint-order:stroke fill markers"
       d="m 47.060791,44.471367 c 0.744558,-0.06873 2.224674,-0.205355 3.238484,-0.273252 1.01381,-0.0679 1.560314,-0.0679 1.879707,-0.02954 0.319394,0.03836 0.410479,0.10667 0.52441,0.148957 0.11393,0.04229 0.250556,0.06506 0.327578,0.104267 0.07702,0.03921 0.09979,0.08475 0.135948,0.101524 0.03616,0.01677 0.0817,0.01677 0.161885,0.0667 0.08019,0.04993 0.194042,0.141016 0.352951,0.182168 0.15891,0.04115 0.363849,0.04115 0.403642,0.341069 0.03979,0.299918 -0.07406,0.891964 -0.15301,1.206863 -0.07895,0.314899 -0.124491,0.360441 -0.147263,0.399598 -0.02277,0.03916 -0.02277,0.06193 -0.05193,0.06831 -0.02916,0.0064 -0.09747,0.0064 -0.177168,0.0064 -0.0797,0 -0.170785,0 -0.221327,-0.01777 -0.05054,-0.01777 -0.05054,-0.06331 -0.05693,-0.09108 -0.0064,-0.02777 -0.02916,-0.02777 -0.05392,-0.04454 -0.02477,-0.01677 -0.04754,-0.06231 -0.113852,-0.143011 -0.06631,-0.0807 -0.180168,-0.194556 -0.242096,-0.274253 -0.06193,-0.0797 -0.06193,-0.125238 -0.101585,-0.162925 -0.03966,-0.03769 -0.130745,-0.06046 -0.19894,-0.0817 -0.06819,-0.02124 -0.113735,-0.04401 -0.251362,-0.05839 -0.137628,-0.01439 -0.365338,-0.01439 -0.569249,-0.04628 -0.203911,-0.0319 -0.38608,-0.100209 -0.53512,-0.136626 -0.149039,-0.03642 -0.262894,-0.03642 -0.466859,-0.08012 -0.203966,-0.0437 -0.49999,-0.134788 -0.761947,-0.246952 -0.261957,-0.112163 -0.489667,-0.248789 -0.683068,-0.352202 -0.193401,-0.103412 -0.352799,-0.171725 -0.501075,-0.250163 -0.148277,-0.07844 -0.284905,-0.169524 -0.695552,-0.218912 -0.410647,-0.04939 -1.093777,-0.04939 -1.440343,-0.04939 -0.346565,0 -0.346568,0 0.39799,-0.06873 z"
       id="path4121"
       inkscape:path-effect="#path-effect4123"
       inkscape:original-d="m 46.316233,44.540095 c 1.490116,-0.126626 2.970232,-0.263252 4.440347,-0.409878 0.556505,0.01 1.103009,0.01 1.639513,0 0.101084,0.07831 0.192168,0.146626 0.273252,0.204939 0.146626,0.03277 0.283252,0.05554 0.409878,0.06831 0.03277,0.05554 0.05554,0.101084 0.06831,0.136626 0.05554,0.01 0.101084,0.01 0.136626,0 0.123855,0.101084 0.23771,0.192168 0.341566,0.273252 0.214939,0.01 0.419878,0.01 0.614817,0 -0.103855,0.602046 -0.21771,1.194092 -0.341565,1.776139 -0.03554,0.05554 -0.08108,0.101084 -0.136626,0.136626 0.01,0.03277 0.01,0.05554 0,0.06831 -0.05831,0.01 -0.126626,0.01 -0.20494,0 -0.08108,0.01 -0.172168,0.01 -0.273252,0 0.01,-0.03554 0.01,-0.08108 0,-0.136626 -0.01277,0.01 -0.03554,0.01 -0.06831,0 -0.01277,-0.03554 -0.03554,-0.08108 -0.06831,-0.136626 -0.103855,-0.103856 -0.21771,-0.217711 -0.341565,-0.341566 0.01,-0.03554 0.01,-0.08108 0,-0.136626 -0.08108,-0.01277 -0.172168,-0.03554 -0.273252,-0.06831 -0.03554,-0.01277 -0.08108,-0.03554 -0.136626,-0.06831 -0.21771,0.01 -0.44542,0.01 -0.68313,0 -0.172168,-0.05831 -0.354336,-0.126626 -0.546505,-0.204939 -0.103855,0.01 -0.21771,0.01 -0.341565,0 -0.286023,-0.08108 -0.582046,-0.172168 -0.888069,-0.273252 -0.21771,-0.126626 -0.44542,-0.263252 -0.68313,-0.409878 -0.149397,-0.05831 -0.308794,-0.126626 -0.478192,-0.204939 -0.126626,-0.08108 -0.263252,-0.172168 -0.409878,-0.273252 -0.67313,0.01 -1.35626,0.01 -2.049391,0 z" />
    <path
       style="fill:#000000;fill-opacity:1;stroke:#ffffff;stroke-width:0;stroke-linecap:round;stroke-linejoin:round;stroke-dasharray:none;stroke-opacity:1;paint-order:stroke fill markers"
       d="m 23.431369,11.344963 c 0,0.346565 0,1.029695 0.05054,1.416802 0.05054,0.387108 0.141626,0.478192 0.22671,0.42965 0.08508,-0.04854 0.176168,-0.230711 0.239095,-0.323795 0.06293,-0.09308 0.0857,-0.09308 0.09208,-0.441034 0.0064,-0.347951 0.0064,-1.053852 0.0064,-1.497887 0,-0.444035 0,-0.626203 -0.01238,-0.685132 -0.01238,-0.05893 -0.03515,0.0094 -0.05193,0.04054 -0.01677,0.03116 -0.03954,0.03116 -0.06831,0.05593 -0.02877,0.02477 -0.05154,0.07031 -0.0827,0.10147 -0.03115,0.03116 -0.0767,0.05392 -0.101468,0.0827 -0.02477,0.02877 -0.02477,0.05154 -0.04254,0.05793 -0.01777,0.0064 -0.06331,0.0064 -0.09108,0.03415 -0.02777,0.02777 -0.02777,0.07331 -0.03416,0.09109 -0.0064,0.01777 -0.02915,0.01777 -0.05781,0.06684 -0.02865,0.04907 -0.05142,0.140156 -0.126184,0.192878 -0.07476,0.05272 -0.211388,0.07549 -0.211388,0.07549 0,0 0.136626,-0.02277 0.200885,-0.03348 0.06426,-0.01071 0.06425,-0.0107 0.06425,0.335862 z"
       id="path4503"
       inkscape:path-effect="#path-effect4505"
       inkscape:original-d="m 23.431369,10.998398 c 0.01,0.69313 0.01,1.37626 0,2.04939 0.101084,0.101085 0.192168,0.192169 0.273252,0.273253 0.101084,-0.172168 0.192168,-0.354337 0.273252,-0.546505 0.03277,0.01 0.05554,0.01 0.06831,0 0.01,-0.695901 0.01,-1.401802 0,-2.117704 0.01,-0.172168 0.01,-0.354336 0,-0.546504 -0.01277,0.07831 -0.03554,0.146626 -0.06831,0.204939 -0.01277,0.01 -0.03554,0.01 -0.06831,0 -0.01277,0.05554 -0.03554,0.101084 -0.06831,0.136626 -0.03554,0.03277 -0.08108,0.05554 -0.136626,0.06831 0.01,0.03277 0.01,0.05554 0,0.06831 -0.03554,0.01 -0.08108,0.01 -0.136626,0 0.01,0.05554 0.01,0.101084 0,0.136627 -0.01277,0.01 -0.03554,0.01 -0.06831,0 -0.01277,0.101084 -0.03554,0.192168 -0.06831,0.273252 -0.126626,0.03277 -0.263252,0.05554 -0.409878,0.06831 0.146626,-0.01277 0.283252,-0.03554 0.409878,-0.06831 z" />
    <path
       style="fill:#000000;fill-opacity:1;stroke:#ffffff;stroke-width:0;stroke-linecap:round;stroke-linejoin:round;stroke-dasharray:none;stroke-opacity:1;paint-order:stroke fill markers"
       d="m 42.012513,14.612603 c 0,-0.143012 0,-0.439035 0.03415,-0.626201 0.03416,-0.187167 0.102471,-0.255483 0.153012,-0.289639 0.05054,-0.03416 0.07331,-0.03416 0.09008,-0.05493 0.01677,-0.02077 0.03954,-0.06631 0.145007,-0.137625 0.105469,-0.07131 0.287639,-0.162399 0.436236,-0.230746 0.148598,-0.06835 0.262452,-0.113889 0.316794,-0.142011 0.05434,-0.02812 0.05434,-0.05089 0.112739,-0.102315 0.0584,-0.05142 0.172254,-0.119738 0.250481,-0.175782 0.07823,-0.05604 0.123769,-0.101586 0.146541,-0.06243 0.02277,0.03916 0.02277,0.15301 0.01085,0.30033 -0.01192,0.147319 -0.03469,0.329487 -0.0747,0.416264 -0.04,0.08678 -0.108318,0.08678 -0.159859,0.123931 -0.05154,0.03716 -0.07431,0.105471 -0.115852,0.147012 -0.04154,0.04154 -0.109856,0.06431 -0.147012,0.127239 -0.03716,0.06293 -0.03716,0.154011 -0.10247,0.216324 -0.06531,0.06231 -0.201939,0.107855 -0.273252,0.159396 -0.07131,0.05154 -0.07131,0.09708 -0.08908,0.114856 -0.01777,0.01777 -0.06331,0.01777 -0.103468,0.04254 -0.04016,0.02477 -0.06293,0.07031 -0.102468,0.09108 -0.03954,0.02077 -0.107856,0.02077 -0.202469,0.05405 -0.09461,0.03327 -0.208469,0.101587 -0.266867,0.136626 -0.0584,0.03504 -0.0584,0.03504 -0.0584,-0.107973 z"
       id="path4515"
       inkscape:path-effect="#path-effect4517"
       inkscape:original-d="m 42.012513,14.755614 c 0.01,-0.286023 0.01,-0.582046 0,-0.888069 0.07831,-0.05831 0.146626,-0.126626 0.204939,-0.204939 0.03277,0.01 0.05554,0.01 0.06831,0 0.03277,-0.03554 0.05554,-0.08108 0.06831,-0.136626 0.192168,-0.08108 0.374336,-0.172168 0.546504,-0.273252 0.123855,-0.03554 0.23771,-0.08108 0.341565,-0.136626 0.01,-0.01277 0.01,-0.03554 0,-0.06831 0.123855,-0.05831 0.23771,-0.126626 0.341565,-0.204939 0.05554,-0.03554 0.101084,-0.08108 0.136626,-0.136626 0.01,0.123855 0.01,0.23771 0,0.341565 -0.01277,0.192169 -0.03554,0.374337 -0.06831,0.546505 -0.05831,0.01 -0.126626,0.01 -0.204939,0 -0.01277,0.07831 -0.03554,0.146626 -0.06831,0.204939 -0.05831,0.03277 -0.126626,0.05554 -0.204939,0.06831 0.01,0.101084 0.01,0.192168 0,0.273252 -0.126626,0.05554 -0.263252,0.101084 -0.409878,0.136626 0.01,0.05554 0.01,0.101084 0,0.136626 -0.03554,0.01 -0.08108,0.01 -0.136626,0 -0.01277,0.05554 -0.03554,0.101084 -0.06831,0.136626 -0.05831,0.01 -0.126626,0.01 -0.204939,0 -0.103855,0.07831 -0.21771,0.146626 -0.341565,0.204939 z" />
    <path
       style="fill:#ffffff;fill-opacity:1;stroke:#ffffff;stroke-width:0;stroke-linecap:round;stroke-linejoin:round;stroke-dasharray:none;stroke-opacity:1;paint-order:stroke fill markers"
       d="m 47.388731,36.364275 c 0.252742,-0.114883 0.753704,-0.342593 1.023925,-0.488422 0.270222,-0.145828 0.315766,-0.214144 0.453161,-0.36331 0.137396,-0.149165 0.365106,-0.376875 0.516116,-0.503115 0.15101,-0.126239 0.219326,-0.14901 0.273253,-0.182165 0.05393,-0.03316 0.09947,-0.0787 0.161395,-0.101469 0.06193,-0.02277 0.130243,-0.02277 0.301025,-0.02277 0.170783,0 0.444035,0 0.590045,0.02877 0.146011,0.02877 0.168782,0.07431 0.274094,0.151664 0.105311,0.07735 0.28748,0.191206 0.372722,0.272251 0.08524,0.08105 0.08524,0.12659 0.09757,0.21835 0.01233,0.09176 0.0351,0.228385 -0.0075,0.301638 -0.04264,0.07325 -0.156498,0.09602 -0.229656,0.132948 -0.07316,0.03693 -0.09593,0.08247 -0.1127,0.103239 -0.01677,0.02077 -0.03954,0.02077 -0.05593,0.05993 -0.01638,0.03915 -0.01638,0.107471 -0.06293,0.229711 -0.04654,0.122239 -0.137626,0.304409 -0.211323,0.393493 -0.0737,0.08908 -0.142013,0.08908 -0.426888,0.100253 -0.284874,0.01117 -0.785836,0.03394 -1.206863,0.04554 -0.421027,0.0116 -0.762592,0.0116 -0.946759,-0.0052 -0.184167,-0.01677 -0.206937,-0.06231 -0.250477,-0.09108 -0.04354,-0.02877 -0.111857,-0.02877 -0.151013,-0.03516 -0.03916,-0.0064 -0.03916,-0.02915 -0.05693,-0.04554 -0.01777,-0.01638 -0.06331,-0.01638 -0.09108,-0.02277 -0.02777,-0.0064 -0.02777,-0.02916 -0.04554,-0.04554 -0.01777,-0.01638 -0.06331,-0.01638 -0.14301,-0.01638 -0.0797,0 -0.193556,0 -0.255483,0 -0.06193,0 -0.06193,-3e-6 0.19081,-0.114885 z"
       id="path4519"
       inkscape:path-effect="#path-effect4521"
       inkscape:original-d="m 47.13599,36.479157 c 0.510962,-0.21771 1.011924,-0.44542 1.502886,-0.68313 0.05554,-0.05831 0.101084,-0.126626 0.136626,-0.204939 0.237711,-0.21771 0.465421,-0.44542 0.683131,-0.68313 0.07831,-0.01277 0.146626,-0.03554 0.204939,-0.06831 0.05554,-0.03554 0.101084,-0.08108 0.136626,-0.136626 0.07831,0.01 0.146626,0.01 0.204939,0 0.283252,0.01 0.556504,0.01 0.819756,0 0.03277,0.05554 0.05554,0.101084 0.06831,0.136626 0.192168,0.123855 0.374337,0.23771 0.546505,0.341565 0.01,0.05554 0.01,0.101084 0,0.136626 0.03277,0.146626 0.05554,0.283252 0.06831,0.409878 -0.103855,0.03277 -0.21771,0.05554 -0.341566,0.06831 -0.01277,0.05554 -0.03554,0.101084 -0.06831,0.136626 -0.01277,0.01 -0.03554,0.01 -0.06831,0 0.01,0.07831 0.01,0.146626 0,0.204939 -0.08108,0.192168 -0.172168,0.374336 -0.273252,0.546504 -0.05831,0.01 -0.126626,0.01 -0.204939,0 -0.490962,0.03277 -0.991924,0.05554 -1.502886,0.06831 -0.331566,0.01 -0.673131,0.01 -1.024696,0 -0.01277,-0.03554 -0.03554,-0.08108 -0.06831,-0.136626 -0.05831,0.01 -0.126626,0.01 -0.204939,0 0.01,-0.01277 0.01,-0.03554 0,-0.06831 -0.03554,0.01 -0.08108,0.01 -0.136626,0 0.01,-0.01277 0.01,-0.03554 0,-0.06831 -0.03554,0.01 -0.08108,0.01 -0.136626,0 -0.103855,0.01 -0.21771,0.01 -0.341565,0 z" />
    <path
       style="fill:#ffffff;fill-opacity:1;stroke:#ffffff;stroke-width:0;stroke-linecap:round;stroke-linejoin:round;stroke-dasharray:none;stroke-opacity:1;paint-order:stroke fill markers"
       d="m 38.30672,29.992949 c 0.119738,0.07184 0.347448,0.208469 0.539319,0.261267 0.191871,0.0528 0.351268,0.03003 0.575227,-0.106376 0.223958,-0.136405 0.519982,-0.386886 0.73635,-0.569085 0.216368,-0.182199 0.352994,-0.296054 0.420815,-0.393111 0.06782,-0.09706 0.06782,-0.188146 0.03867,-0.238688 -0.02916,-0.05054 -0.09747,-0.05054 -0.259058,-0.006 -0.161587,0.04452 -0.412068,0.135604 -0.597046,0.239096 -0.184978,0.103491 -0.298833,0.217346 -0.532637,0.263219 -0.233804,0.04587 -0.59814,0.0231 -0.7856,0.02777 -0.18746,0.0047 -0.18746,0.02744 -0.199521,0.106191 -0.01206,0.07875 -0.03483,0.215379 -0.04554,0.279638 -0.01071,0.06426 -0.01071,0.06426 0.109025,0.136098 z"
       id="path4838"
       inkscape:path-effect="#path-effect4840"
       inkscape:original-d="m 38.186983,29.921107 c 0.23771,0.146626 0.46542,0.283252 0.68313,0.409878 0.169397,-0.01277 0.328794,-0.03554 0.478192,-0.06831 0.306023,-0.240481 0.602046,-0.490963 0.888069,-0.751444 0.146626,-0.103855 0.283252,-0.21771 0.409878,-0.341565 0.01,-0.08108 0.01,-0.172168 0,-0.273252 -0.05831,0.01 -0.126626,0.01 -0.204939,0 -0.240481,0.101084 -0.490962,0.192168 -0.751443,0.273252 -0.103855,0.123855 -0.21771,0.23771 -0.341565,0.341565 -0.354337,-0.01277 -0.718673,-0.03554 -1.093009,-0.06831 0.01,0.03277 0.01,0.05554 0,0.06831 -0.01277,0.146626 -0.03554,0.283253 -0.06831,0.409879 z" />
    <path
       style="fill:#ffffff;fill-opacity:1;stroke:#ffffff;stroke-width:0;stroke-linecap:round;stroke-linejoin:round;stroke-dasharray:none;stroke-opacity:1;paint-order:stroke fill markers"
       d="m 18.581144,30.005805 c 0,0.0847 0,0.244096 0.07331,0.318794 0.07331,0.0747 0.209939,0.0747 0.380721,0.0747 0.170783,0 0.375722,0 0.473191,-0.02916 0.09747,-0.02915 0.09747,-0.09747 0.09747,-0.256868 0,-0.159397 0,-0.409879 -0.01777,-0.54012 -0.01777,-0.13024 -0.06331,-0.13024 -0.168367,-0.09712 -0.105057,0.03312 -0.264455,0.101435 -0.370162,0.242802 -0.105707,0.141366 -0.151249,0.346305 -0.185581,0.469839 -0.03433,0.123535 -0.0571,0.169078 -0.06749,0.172079 -0.01038,0.003 -0.01038,-0.04254 -0.01038,-0.190553 0,-0.148013 0,-0.398495 0,-0.569276 0,-0.17078 0,-0.261868 0,-0.318795 0,-0.05693 0,-0.0797 0,-0.04554 0,0.03416 0,0.125241 -0.05308,0.176399 -0.05308,0.05116 -0.166937,0.07393 -0.22771,0.102467 -0.06077,0.02854 -0.06077,0.05131 -0.03559,0.120656 0.02518,0.06935 0.07073,0.183203 0.09108,0.234096 0.02036,0.05089 0.02035,0.0509 0.02035,0.135594 z"
       id="path4842"
       inkscape:path-effect="#path-effect4844"
       inkscape:original-d="m 18.581144,29.921107 c 0.01,0.169397 0.01,0.328794 0,0.478191 0.146626,0.01 0.283252,0.01 0.409878,0 0.214939,0.01 0.419878,0.01 0.614817,0 0.01,-0.05831 0.01,-0.126626 0,-0.204939 0.01,-0.240481 0.01,-0.490963 0,-0.751444 -0.03554,0.01 -0.08108,0.01 -0.136626,0 -0.149397,0.07831 -0.308794,0.146626 -0.478191,0.204939 -0.03554,0.21494 -0.08108,0.419879 -0.136626,0.614818 -0.01277,0.05554 -0.03554,0.101084 -0.06831,0.136626 0.01,-0.03554 0.01,-0.08108 0,-0.136626 0.01,-0.240481 0.01,-0.490963 0,-0.751444 0.01,-0.08108 0.01,-0.172168 0,-0.273252 0.01,-0.01277 0.01,-0.03554 0,-0.06831 0.01,0.101084 0.01,0.192168 0,0.273252 -0.103855,0.03277 -0.21771,0.05554 -0.341565,0.06831 0.01,0.03277 0.01,0.05554 0,0.06831 0.05554,0.123855 0.101084,0.237711 0.136626,0.341566 z" />
    <path
       style="fill:#ffffff;fill-opacity:1;stroke:#ffffff;stroke-width:0;stroke-linecap:round;stroke-linejoin:round;stroke-dasharray:none;stroke-opacity:1;paint-order:stroke fill markers"
       d="m 28.707858,41.124443 c 0.0847,0 0.244095,0 0.370335,0.02577 0.12624,0.02577 0.217325,0.07131 0.256867,0.107469 0.03954,0.03616 0.03954,0.05893 0.05593,0.06531 0.01638,0.0064 0.03916,0.0064 0.04554,0.02277 0.0064,0.01638 0.0064,0.03915 0.113854,0.04554 0.10747,0.0064 0.31241,0.0064 0.511537,-0.151748 0.199126,-0.158134 0.404065,-0.476928 0.432649,-0.637588 0.02858,-0.160661 -0.130814,-0.160661 -0.244668,-0.189816 -0.113853,-0.02915 -0.182169,-0.09747 -0.260866,-0.156397 -0.0787,-0.05893 -0.169783,-0.10447 -0.221326,-0.136626 -0.05154,-0.03216 -0.05154,-0.05493 -0.126242,-0.07131 -0.0747,-0.01638 -0.234095,-0.01638 -0.370721,-0.01638 -0.136626,0 -0.250481,0 -0.312409,0.0847 -0.06193,0.0847 -0.06193,0.244096 -0.1085,0.423583 -0.04657,0.179487 -0.137657,0.384427 -0.182168,0.484577 -0.04451,0.10015 -0.04451,0.100153 0.04019,0.100153 z"
       id="path4846"
       inkscape:path-effect="#path-effect4848"
       inkscape:original-d="m 28.623159,41.124443 c 0.169397,0.01 0.328794,0.01 0.478191,0 0.101084,0.05554 0.192168,0.101084 0.273252,0.136626 0.01,0.03277 0.01,0.05554 0,0.06831 0.03277,0.01 0.05554,0.01 0.06831,0 0.01,0.03277 0.01,0.05554 0,0.06831 0.214939,0.01 0.419879,0.01 0.614818,0 0.214939,-0.308794 0.419878,-0.627588 0.614817,-0.956382 -0.149397,0.01 -0.308794,0.01 -0.478191,0 -0.05831,-0.05831 -0.126626,-0.126626 -0.204939,-0.204939 -0.08108,-0.03554 -0.172168,-0.08108 -0.273253,-0.136626 0.01,-0.01277 0.01,-0.03554 0,-0.06831 -0.149397,0.01 -0.308794,0.01 -0.478191,0 -0.103855,0.01 -0.21771,0.01 -0.341565,0 0.01,0.169397 0.01,0.328794 0,0.478191 -0.08108,0.214939 -0.172168,0.419878 -0.273252,0.614817 z" />
    <path
       style="fill:#ffffff;fill-opacity:1;stroke:#ffffff;stroke-width:0;stroke-linecap:round;stroke-linejoin:round;stroke-dasharray:none;stroke-opacity:1;paint-order:stroke fill markers"
       d="m 31.680356,46.738968 c 0.05143,0.01286 0.142509,0.03563 0.244096,0.04554 0.101587,0.0099 0.215442,0.0099 0.26737,-0.03063 0.05193,-0.04054 0.05193,-0.131628 0.06264,-0.246429 0.01071,-0.114802 0.03348,-0.251428 0.03916,-0.323795 0.0057,-0.07237 -0.01709,-0.07237 -0.05125,-0.09014 -0.03415,-0.01777 -0.0797,-0.06331 -0.170782,-0.09108 -0.09109,-0.02777 -0.227712,-0.02777 -0.301025,0.04554 -0.07331,0.07331 -0.07331,0.209939 -0.08547,0.334026 -0.01215,0.124087 -0.03492,0.237942 -0.04554,0.291024 -0.01062,0.05308 -0.01062,0.05308 0.0408,0.06594 z"
       id="path4850"
       inkscape:path-effect="#path-effect4852"
       inkscape:original-d="m 31.628932,46.726112 c 0.101084,0.03277 0.192168,0.05554 0.273252,0.06831 0.123855,0.01 0.23771,0.01 0.341566,0 0.01,-0.08108 0.01,-0.172168 0,-0.273252 0.03277,-0.126627 0.05554,-0.263253 0.06831,-0.409879 -0.01277,0.01 -0.03554,0.01 -0.06831,0 -0.03554,-0.03554 -0.08108,-0.08108 -0.136627,-0.136626 -0.126626,0.01 -0.263252,0.01 -0.409878,0 0.01,0.146626 0.01,0.283252 0,0.409878 -0.01277,0.123856 -0.03554,0.237711 -0.06831,0.341566 z" />
  </g>
</svg>
