<?xml version="1.0" encoding="UTF-8" standalone="no"?>
<!-- Created with Inkscape (http://www.inkscape.org/) -->

<svg
   width="64.0px"
   height="64.0px"
   viewBox="0 0 64.0 64.0"
   version="1.1"
   id="SVGRoot"
   sodipodi:docname="fuels_icon.svg"
   inkscape:version="1.2.2 (b0a8486541, 2022-12-01)"
   xmlns:inkscape="http://www.inkscape.org/namespaces/inkscape"
   xmlns:sodipodi="http://sodipodi.sourceforge.net/DTD/sodipodi-0.dtd"
   xmlns="http://www.w3.org/2000/svg"
   xmlns:svg="http://www.w3.org/2000/svg">
  <sodipodi:namedview
     id="namedview326"
     pagecolor="#ffffff"
     bordercolor="#000000"
     borderopacity="0.25"
     inkscape:showpageshadow="2"
     inkscape:pageopacity="0.0"
     inkscape:pagecheckerboard="0"
     inkscape:deskcolor="#d1d1d1"
     inkscape:document-units="px"
     showgrid="true"
     inkscape:zoom="10.35098"
     inkscape:cx="44.0538"
     inkscape:cy="35.020839"
     inkscape:window-width="2560"
     inkscape:window-height="1332"
     inkscape:window-x="0"
     inkscape:window-y="32"
     inkscape:window-maximized="1"
     inkscape:current-layer="layer1">
    <inkscape:grid
       type="xygrid"
       id="grid449" />
  </sodipodi:namedview>
  <defs
     id="defs321">
    <inkscape:path-effect
       effect="bspline"
       id="path-effect4264"
       is_visible="true"
       lpeversion="1"
       weight="33.333333"
       steps="2"
       helper_size="0"
       apply_no_weight="true"
       apply_with_weight="true"
       only_selected="false" />
    <inkscape:path-effect
       effect="bspline"
       id="path-effect4260"
       is_visible="true"
       lpeversion="1"
       weight="33.333333"
       steps="2"
       helper_size="0"
       apply_no_weight="true"
       apply_with_weight="true"
       only_selected="false" />
    <inkscape:path-effect
       effect="bspline"
       id="path-effect2734"
       is_visible="true"
       lpeversion="1"
       weight="33.333333"
       steps="2"
       helper_size="0"
       apply_no_weight="true"
       apply_with_weight="true"
       only_selected="false" />
    <inkscape:path-effect
       effect="bspline"
       id="path-effect801"
       is_visible="true"
       lpeversion="1"
       weight="33.333333"
       steps="2"
       helper_size="0"
       apply_no_weight="true"
       apply_with_weight="true"
       only_selected="false" />
    <inkscape:path-effect
       effect="bspline"
       id="path-effect797"
       is_visible="true"
       lpeversion="1"
       weight="33.333333"
       steps="2"
       helper_size="0"
       apply_no_weight="true"
       apply_with_weight="true"
       only_selected="false" />
    <inkscape:path-effect
       effect="bspline"
       id="path-effect4852"
       is_visible="true"
       lpeversion="1"
       weight="33.333333"
       steps="2"
       helper_size="0"
       apply_no_weight="true"
       apply_with_weight="true"
       only_selected="false" />
    <inkscape:path-effect
       effect="bspline"
       id="path-effect4848"
       is_visible="true"
       lpeversion="1"
       weight="33.333333"
       steps="2"
       helper_size="0"
       apply_no_weight="true"
       apply_with_weight="true"
       only_selected="false" />
    <inkscape:path-effect
       effect="bspline"
       id="path-effect4844"
       is_visible="true"
       lpeversion="1"
       weight="33.333333"
       steps="2"
       helper_size="0"
       apply_no_weight="true"
       apply_with_weight="true"
       only_selected="false" />
    <inkscape:path-effect
       effect="bspline"
       id="path-effect4840"
       is_visible="true"
       lpeversion="1"
       weight="33.333333"
       steps="2"
       helper_size="0"
       apply_no_weight="true"
       apply_with_weight="true"
       only_selected="false" />
    <inkscape:path-effect
       effect="bspline"
       id="path-effect4521"
       is_visible="true"
       lpeversion="1"
       weight="33.333333"
       steps="2"
       helper_size="0"
       apply_no_weight="true"
       apply_with_weight="true"
       only_selected="false" />
    <inkscape:path-effect
       effect="bspline"
       id="path-effect4517"
       is_visible="true"
       lpeversion="1"
       weight="33.333333"
       steps="2"
       helper_size="0"
       apply_no_weight="true"
       apply_with_weight="true"
       only_selected="false" />
    <inkscape:path-effect
       effect="bspline"
       id="path-effect4505"
       is_visible="true"
       lpeversion="1"
       weight="33.333333"
       steps="2"
       helper_size="0"
       apply_no_weight="true"
       apply_with_weight="true"
       only_selected="false" />
    <inkscape:path-effect
       effect="bspline"
       id="path-effect4123"
       is_visible="true"
       lpeversion="1"
       weight="33.333333"
       steps="2"
       helper_size="0"
       apply_no_weight="true"
       apply_with_weight="true"
       only_selected="false" />
    <inkscape:path-effect
       effect="bspline"
       id="path-effect3073"
       is_visible="true"
       lpeversion="1"
       weight="33.333333"
       steps="2"
       helper_size="0"
       apply_no_weight="true"
       apply_with_weight="true"
       only_selected="false" />
    <inkscape:path-effect
       effect="bspline"
       id="path-effect3069"
       is_visible="true"
       lpeversion="1"
       weight="33.333333"
       steps="2"
       helper_size="0"
       apply_no_weight="true"
       apply_with_weight="true"
       only_selected="false" />
    <inkscape:path-effect
       effect="bspline"
       id="path-effect3065"
       is_visible="true"
       lpeversion="1"
       weight="33.333333"
       steps="2"
       helper_size="0"
       apply_no_weight="true"
       apply_with_weight="true"
       only_selected="false" />
    <inkscape:path-effect
       effect="bspline"
       id="path-effect3061"
       is_visible="true"
       lpeversion="1"
       weight="33.333333"
       steps="2"
       helper_size="0"
       apply_no_weight="true"
       apply_with_weight="true"
       only_selected="false" />
    <inkscape:path-effect
       effect="bspline"
       id="path-effect3057"
       is_visible="true"
       lpeversion="1"
       weight="33.333333"
       steps="2"
       helper_size="0"
       apply_no_weight="true"
       apply_with_weight="true"
       only_selected="false" />
    <inkscape:path-effect
       effect="bspline"
       id="path-effect3053"
       is_visible="true"
       lpeversion="1"
       weight="33.333333"
       steps="2"
       helper_size="0"
       apply_no_weight="true"
       apply_with_weight="true"
       only_selected="false" />
    <inkscape:path-effect
       effect="bspline"
       id="path-effect3049"
       is_visible="true"
       lpeversion="1"
       weight="33.333333"
       steps="2"
       helper_size="0"
       apply_no_weight="true"
       apply_with_weight="true"
       only_selected="false" />
    <inkscape:path-effect
       effect="bspline"
       id="path-effect3045"
       is_visible="true"
       lpeversion="1"
       weight="33.333333"
       steps="2"
       helper_size="0"
       apply_no_weight="true"
       apply_with_weight="true"
       only_selected="false" />
    <inkscape:path-effect
       effect="bspline"
       id="path-effect3041"
       is_visible="true"
       lpeversion="1"
       weight="33.333333"
       steps="2"
       helper_size="0"
       apply_no_weight="true"
       apply_with_weight="true"
       only_selected="false" />
    <inkscape:path-effect
       effect="bspline"
       id="path-effect3037"
       is_visible="true"
       lpeversion="1"
       weight="33.333333"
       steps="2"
       helper_size="0"
       apply_no_weight="true"
       apply_with_weight="true"
       only_selected="false" />
    <inkscape:path-effect
       effect="bspline"
       id="path-effect3033"
       is_visible="true"
       lpeversion="1"
       weight="33.333333"
       steps="2"
       helper_size="0"
       apply_no_weight="true"
       apply_with_weight="true"
       only_selected="false" />
  </defs>
  <g
     inkscape:label="Layer 1"
     inkscape:groupmode="layer"
     id="layer1">
    <rect
       style="fill:#ffffff;stroke-width:2.64567;stroke-linecap:round;stroke-linejoin:round;paint-order:stroke fill markers;fill-opacity:1;stroke:#000000;stroke-opacity:1"
       id="rect508"
       width="60"
       height="60"
       x="2"
       y="2"
       ry="5"
       inkscape:export-filename="fuels_icon.png"
       inkscape:export-xdpi="196.15083"
       inkscape:export-ydpi="196.15083" />
    <rect
       style="fill:#000000;fill-opacity:1;stroke-width:2.64567;stroke-linecap:round;stroke-linejoin:round;paint-order:stroke fill markers"
       id="rect602"
       width="50"
       height="50"
       x="7"
       y="7"
       ry="5" />
    <path
       style="fill:#ffffff;fill-opacity:1;stroke:#000000;stroke-width:2.64567;stroke-linecap:round;stroke-linejoin:round;stroke-opacity:1;paint-order:stroke fill markers"
       id="path1581"
       sodipodi:type="arc"
       sodipodi:cx="15.643683"
       sodipodi:cy="47.819118"
       sodipodi:rx="6.2847986"
       sodipodi:ry="6.0115466"
       sodipodi:start="0"
       sodipodi:end="0.011515806"
       sodipodi:open="true"
       sodipodi:arc-type="arc"
       d="m 21.928482,47.819118 a 6.2847986,6.0115466 0 0 1 -4.17e-4,0.06923" />
    <path
       style="fill:#000000;fill-opacity:1;stroke:#ffffff;stroke-width:0;stroke-linecap:round;stroke-linejoin:round;stroke-dasharray:none;stroke-opacity:1;paint-order:stroke fill markers"
       d="m 42.012513,14.612603 c 0,-0.143012 0,-0.439035 0.03415,-0.626201 0.03416,-0.187167 0.102471,-0.255483 0.153012,-0.289639 0.05054,-0.03416 0.07331,-0.03416 0.09008,-0.05493 0.01677,-0.02077 0.03954,-0.06631 0.145007,-0.137625 0.105469,-0.07131 0.287639,-0.162399 0.436236,-0.230746 0.148598,-0.06835 0.262452,-0.113889 0.316794,-0.142011 0.05434,-0.02812 0.05434,-0.05089 0.112739,-0.102315 0.0584,-0.05142 0.172254,-0.119738 0.250481,-0.175782 0.07823,-0.05604 0.123769,-0.101586 0.146541,-0.06243 0.02277,0.03916 0.02277,0.15301 0.01085,0.30033 -0.01192,0.147319 -0.03469,0.329487 -0.0747,0.416264 -0.04,0.08678 -0.108318,0.08678 -0.159859,0.123931 -0.05154,0.03716 -0.07431,0.105471 -0.115852,0.147012 -0.04154,0.04154 -0.109856,0.06431 -0.147012,0.127239 -0.03716,0.06293 -0.03716,0.154011 -0.10247,0.216324 -0.06531,0.06231 -0.201939,0.107855 -0.273252,0.159396 -0.07131,0.05154 -0.07131,0.09708 -0.08908,0.114856 -0.01777,0.01777 -0.06331,0.01777 -0.103468,0.04254 -0.04016,0.02477 -0.06293,0.07031 -0.102468,0.09108 -0.03954,0.02077 -0.107856,0.02077 -0.202469,0.05405 -0.09461,0.03327 -0.208469,0.101587 -0.266867,0.136626 -0.0584,0.03504 -0.0584,0.03504 -0.0584,-0.107973 z"
       id="path4515"
       inkscape:path-effect="#path-effect4517"
       inkscape:original-d="m 42.012513,14.755614 c 0.01,-0.286023 0.01,-0.582046 0,-0.888069 0.07831,-0.05831 0.146626,-0.126626 0.204939,-0.204939 0.03277,0.01 0.05554,0.01 0.06831,0 0.03277,-0.03554 0.05554,-0.08108 0.06831,-0.136626 0.192168,-0.08108 0.374336,-0.172168 0.546504,-0.273252 0.123855,-0.03554 0.23771,-0.08108 0.341565,-0.136626 0.01,-0.01277 0.01,-0.03554 0,-0.06831 0.123855,-0.05831 0.23771,-0.126626 0.341565,-0.204939 0.05554,-0.03554 0.101084,-0.08108 0.136626,-0.136626 0.01,0.123855 0.01,0.23771 0,0.341565 -0.01277,0.192169 -0.03554,0.374337 -0.06831,0.546505 -0.05831,0.01 -0.126626,0.01 -0.204939,0 -0.01277,0.07831 -0.03554,0.146626 -0.06831,0.204939 -0.05831,0.03277 -0.126626,0.05554 -0.204939,0.06831 0.01,0.101084 0.01,0.192168 0,0.273252 -0.126626,0.05554 -0.263252,0.101084 -0.409878,0.136626 0.01,0.05554 0.01,0.101084 0,0.136626 -0.03554,0.01 -0.08108,0.01 -0.136626,0 -0.01277,0.05554 -0.03554,0.101084 -0.06831,0.136626 -0.05831,0.01 -0.126626,0.01 -0.204939,0 -0.103855,0.07831 -0.21771,0.146626 -0.341565,0.204939 z" />
    <rect
       style="fill:#ffffff;stroke:#ffffff;stroke-width:0;stroke-linecap:round;stroke-linejoin:round;paint-order:stroke fill markers"
       id="rect661"
       width="31.999998"
       height="1.5711997"
       x="16"
       y="52"
       ry="0.78559983" />
    <path
       style="fill:#ffffff;fill-opacity:1;stroke:#ffffff;stroke-width:0;stroke-linecap:round;stroke-linejoin:round;paint-order:stroke fill markers"
       d="m 23.444416,52.290112 c -0.707887,-0.458518 -2.124822,-1.376305 -2.994799,-2.849427 -0.869977,-1.473122 -1.192001,-3.501875 -1.2689,-5.413641 -0.0769,-1.911766 0.09159,-3.706166 0.158317,-4.576731 0.06673,-0.870564 0.03177,-0.81654 0.273803,-0.191158 0.242038,0.625382 0.760364,1.821089 1.0268,2.417597 0.266436,0.596507 0.280592,0.595039 0.194089,-0.04613 -0.0865,-0.641172 -0.272905,-1.923186 -0.336199,-3.338584 -0.06329,-1.415397 -0.0033,-2.963842 0.346058,-4.215942 0.349328,-1.252099 0.988035,-2.206963 1.238366,-2.636807 0.250331,-0.429844 0.111898,-0.334245 0.121172,0.654438 0.0093,0.988684 0.166376,2.869108 0.323067,3.908365 0.156692,1.039258 0.312179,1.237188 0.679243,-0.02463 0.367065,-1.261815 0.946708,-3.98292 1.912777,-7.082577 0.96607,-3.099657 2.318572,-6.57752 3.61141,-8.479276 1.292838,-1.901756 2.524963,-2.226529 3.138804,-2.473304 0.61384,-0.246775 0.609934,-0.416761 0.390478,0.191219 -0.219456,0.60798 -0.654145,1.994027 -0.827404,3.648583 -0.173259,1.654557 -0.08528,3.576897 -0.0106,4.862136 0.07468,1.285239 0.135982,1.933183 0.320932,2.653041 0.184951,0.719858 0.493162,1.51144 0.793522,2.212764 0.300359,0.701323 0.592747,1.31236 0.698381,1.61327 0.105634,0.30091 0.02398,0.292762 0.381748,-0.287732 0.357769,-0.580495 1.156145,-1.733368 1.547381,-3.647807 0.391237,-1.914439 0.375137,-4.591012 0.321295,-6.013535 -0.05384,-1.422523 -0.146067,-1.591011 0.22937,-1.009472 0.375437,0.581538 1.218421,1.913084 1.852416,3.192602 0.633994,1.279519 1.059294,2.506922 1.24049,3.668342 0.181196,1.161421 0.118745,2.25701 -0.223071,3.527909 -0.341817,1.2709 -0.962805,2.717413 -1.276096,3.426274 -0.313292,0.708862 -0.319293,0.679303 -0.123829,0.600658 0.195465,-0.07865 0.591992,-0.205026 1.247388,-1.038433 0.655397,-0.833407 1.570384,-2.374237 1.939197,-3.233217 0.368812,-0.858979 0.190223,-1.036703 0.358521,-0.0039 0.168298,1.032754 0.684207,3.275734 0.700406,5.145706 0.0162,1.869973 -0.466838,3.367386 -0.708262,4.261217 -0.241424,0.893831 -0.241424,1.183653 -0.217205,1.529892 0.02422,0.34624 0.07252,0.74877 0.482953,0.16875 0.41043,-0.58002 1.183288,-2.141838 1.672217,-3.399883 0.488928,-1.258045 0.693859,-2.212576 0.77351,-2.740543 0.07965,-0.527966 0.0333,-0.629761 0.279189,-0.184846 0.245889,0.444916 0.783887,1.436502 1.131041,2.520171 0.347155,1.083668 0.503925,2.259392 0.662843,3.322282 0.158918,1.062891 0.31993,2.012862 0.231186,3.196131 -0.08874,1.183268 -0.42687,2.600175 -1.263954,3.742953 -0.837084,1.142778 -2.173485,2.012243 -5.643045,2.447065 -3.469559,0.434821 -9.072782,0.434821 -11.874949,0.434821 -2.802167,0 -2.802169,-4.5e-5 -3.510056,-0.458563 z"
       id="path2732"
       inkscape:path-effect="#path-effect2734"
       inkscape:original-d="m 24.152303,52.74863 c -1.415935,-0.916788 -2.83287,-1.834575 -4.250805,-2.753363 -0.321037,-2.027834 -0.643062,-4.056587 -0.966092,-6.08638 0.169497,-1.793507 0.337984,-3.587907 0.505481,-5.383414 -0.03396,0.05503 -0.06893,0.109051 -0.104892,0.162078 0.519357,1.19678 1.037682,2.392486 1.55504,3.587267 0.01515,-4.79e-4 0.0293,-0.002 0.04244,-0.0044 -0.185414,-1.281092 -0.371817,-2.563106 -0.559231,-3.846198 0.06103,-1.547541 0.121049,-3.095986 0.180076,-4.64553 0.639746,-0.953924 1.278453,-1.908788 1.916198,-2.86471 -0.137444,0.09661 -0.275879,0.192206 -0.415322,0.286812 0.158111,1.881541 0.315213,3.761965 0.471325,5.641513 0.156493,0.198939 0.31198,0.396869 0.46647,0.593803 0.580667,-2.720214 1.160311,-5.441319 1.738966,-8.163479 1.353529,-3.476932 2.706031,-6.954795 4.057587,-10.433795 1.233225,-0.3238 2.46535,-0.648573 3.696603,-0.97438 -0.0029,-0.168947 -0.0068,-0.338933 -0.01172,-0.509925 -0.433785,1.38735 -0.868474,2.773397 -1.304224,4.158636 0.08899,1.923455 0.17697,3.845795 0.263958,5.767251 0.06231,0.648981 0.123616,1.296925 0.183925,1.943905 0.309224,0.792614 0.617435,1.584197 0.924654,2.374797 0.293394,0.61205 0.585782,1.223087 0.877182,1.833147 -0.08065,-0.0071 -0.1623,-0.01529 -0.244952,-0.02444 0.799423,-1.151942 1.597798,-2.304815 2.395222,-3.458757 -0.0151,-2.675734 -0.0312,-5.352307 -0.0483,-8.030041 -0.09123,-0.167497 -0.183455,-0.335984 -0.276685,-0.505482 0.844018,1.332599 1.687002,2.664145 2.529004,3.994718 0.426308,1.228428 0.851608,2.455831 1.275924,3.682281 -0.06145,1.096653 -0.123904,2.192242 -0.187358,3.286897 -0.620026,1.447602 -1.241013,2.894115 -1.863039,4.339715 -0.005,-0.02855 -0.011,-0.05811 -0.018,-0.08866 0.397544,-0.125387 0.794071,-0.251768 1.189618,-0.379155 0.916044,-1.539924 1.831031,-3.080754 2.745074,-4.622678 -0.177599,-0.176733 -0.356189,-0.354456 -0.535788,-0.533189 0.516929,2.244071 1.032839,4.487051 1.547758,6.729077 -0.482056,1.498473 -0.965092,2.995886 -1.449138,4.492329 0.001,0.290833 0.001,0.580655 0,0.869483 0.04931,0.403546 0.09761,0.806077 0.144914,1.207615 0.773889,-1.56088 1.546747,-3.122698 2.318621,-4.685547 0.205943,-0.953586 0.410874,-1.908117 0.614817,-2.863704 -0.04535,-0.100801 -0.0917,-0.202596 -0.139053,-0.305397 0.539031,0.992646 1.077029,1.984232 1.61406,2.974877 0.157776,1.176771 0.314547,2.352494 0.47032,3.527242 0.162018,0.95101 0.323031,1.900981 0.483046,2.849972 -0.337139,1.417963 -0.675265,2.83487 -1.014397,4.250805 -1.335454,0.8705 -2.671855,1.739966 -4.009282,2.608449 -5.602446,0.001 -11.205669,0.001 -16.810003,0 z"
       sodipodi:nodetypes="scccccccccccccccccccccccccccccccccccccccccccccss" />
    <rect
       style="fill:#000000;fill-opacity:1;stroke:#ffffff;stroke-width:0;stroke-linecap:round;stroke-linejoin:round;paint-order:stroke fill markers"
       id="rect3840"
       width="7.999999"
       height="1.9999993"
       x="28"
       y="50"
       ry="0.5608086" />
    <path
       style="fill:#000000;fill-opacity:1;stroke:#ffffff;stroke-width:0;stroke-linecap:round;stroke-linejoin:round;paint-order:stroke fill markers"
       d="m 27.19957,52.097932 c -0.463816,-0.207668 -1.392654,-0.623546 -2.131172,-1.531582 -0.738518,-0.908036 -1.285959,-2.308842 -1.47143,-3.524719 -0.185471,-1.215878 -0.0084,-2.246356 0.06419,-3.155983 0.07255,-0.909627 0.04034,-1.698586 0.04827,-2.165752 0.0079,-0.467166 0.05623,-0.612076 0.185342,-0.362197 0.12911,0.249879 0.338426,0.893928 0.450965,1.393002 0.112539,0.499073 0.128638,0.8533 0.305634,0.522987 0.176996,-0.330314 0.515122,-1.34469 0.676247,-2.286429 0.161126,-0.94174 0.145026,-1.811206 0.209341,-2.560077 0.06431,-0.748872 0.209225,-1.376819 0.338021,-1.811709 0.128796,-0.43489 0.241504,-0.676408 0.32215,-0.434566 0.08065,0.241842 0.128949,0.966397 0.515664,2.037231 0.386715,1.070834 1.111255,2.487712 1.43359,3.179735 0.322335,0.692023 0.241826,0.659819 0.120537,0.07242 -0.121289,-0.587399 -0.282301,-1.730585 -0.427227,-2.833547 -0.144927,-1.102962 -0.273738,-2.165643 -1.72e-4,-3.759969 0.273565,-1.594326 0.949805,-3.719651 1.336482,-4.572772 0.386676,-0.853122 0.483282,-0.434496 0.740859,1.215921 0.257576,1.650417 0.676199,4.532474 1.167579,6.440572 0.491381,1.908098 1.054915,2.841954 1.352441,3.292218 0.297526,0.450263 0.329736,0.418053 0.489525,0.359007 0.159789,-0.05904 0.446506,-0.144739 0.76896,-1.223065 0.322454,-1.078326 0.681368,-3.15003 0.865772,-4.182267 0.184403,-1.032236 0.193025,-1.024758 0.280323,-0.436942 0.0873,0.587815 0.25417,1.755725 0.248916,3.048031 -0.0053,1.292306 -0.182367,2.709211 -0.262922,3.393408 -0.08055,0.684197 -0.06446,0.635896 0.354485,0.402021 0.418942,-0.233876 1.240104,-0.652507 1.948275,-1.489473 0.708171,-0.836966 1.303926,-2.092884 1.497178,-2.100745 0.193251,-0.0079 -0.01607,1.231928 -0.257624,2.286508 -0.241559,1.05458 -0.515274,1.924027 -0.627835,2.600539 -0.112561,0.676511 -0.06426,1.159548 -0.03622,1.391428 0.02804,0.231881 0.03613,0.213216 0.0767,0.310192 0.04056,0.09698 0.112977,0.308853 0.293793,0.06826 0.180817,-0.240598 0.470638,-0.93295 0.623668,-1.375537 0.15303,-0.442587 0.169129,-0.635801 0.241893,-0.587345 0.07276,0.04845 0.201573,0.338277 0.451272,0.756894 0.249698,0.418618 0.620018,0.966047 0.820925,1.618118 0.200906,0.652071 0.233108,1.408811 0.08007,2.00413 -0.153044,0.595318 -0.491162,1.030043 -0.941928,1.496898 -0.450765,0.466856 -1.014298,0.965985 -1.696684,1.424413 -0.682386,0.458428 -1.48386,0.876243 -2.417376,0.973074 -0.933517,0.09683 -1.999769,-0.127777 -3.284311,-0.128938 -1.284541,-0.0012 -2.787028,0.221499 -3.538687,0.332891 -0.751659,0.111391 -0.751662,0.11139 -1.215478,-0.09628 z"
       id="path4258"
       inkscape:path-effect="#path-effect4260"
       inkscape:original-d="m 27.663386,52.305601 c -0.927838,-0.414877 -1.856676,-0.830755 -2.786514,-1.247632 -0.546463,-1.399862 -1.093904,-2.800668 -1.642357,-4.202501 0.178121,-1.029519 0.355234,-2.059997 0.531351,-3.091495 -0.0312,-0.787991 -0.06341,-1.57695 -0.09661,-2.366926 0.04931,-0.143916 0.09761,-0.288827 0.144914,-0.434741 0.210324,0.645074 0.41964,1.289123 0.62796,1.932184 0.0171,0.355241 0.0332,0.709468 0.0483,1.062701 0.339139,-1.013417 0.677265,-2.027793 1.014397,-3.04319 -0.0151,-0.8685 -0.0312,-1.737966 -0.0483,-2.608448 0.145917,-0.626973 0.290828,-1.25492 0.434742,-1.88388 0.113713,-0.240528 0.226421,-0.482046 0.338132,-0.724569 0.04931,0.725583 0.09761,1.450138 0.144914,2.173707 0.725584,1.417963 1.450123,2.834841 2.173708,4.250805 -0.07951,-0.0312 -0.160017,-0.06341 -0.241528,-0.09661 -0.160019,-1.142232 -0.321031,-2.285418 -0.483046,-3.429627 -0.127813,-1.061701 -0.256625,-2.124382 -0.386441,-3.188104 0.677278,-2.124444 1.353518,-4.249769 2.028794,-6.376207 0.09761,0.419646 0.194217,0.838271 0.289828,1.255919 0.419648,2.883233 0.838271,5.76529 1.25592,8.646525 0.564565,0.934908 1.128099,1.868764 1.690661,2.801666 0.0332,-0.0312 0.06541,-0.06341 0.09661,-0.09661 0.287734,-0.0847 0.574451,-0.170393 0.860185,-0.257092 0.359957,-2.070948 0.718871,-4.142652 1.07685,-6.215725 0.0096,0.0085 0.01825,0.01596 0.02587,0.02244 0.167879,1.168957 0.334751,2.336867 0.500627,3.503802 -0.176117,1.417935 -0.353229,2.83484 -0.531349,4.250805 0.0171,-0.04731 0.0332,-0.09561 0.0483,-0.144914 0.822195,-0.417648 1.643357,-0.83628 2.463535,-1.25592 0.596757,-1.254919 1.192512,-2.510837 1.78727,-3.76776 -0.208322,1.240822 -0.417639,2.480611 -0.627965,3.719455 -0.272731,0.870501 -0.546446,1.739948 -0.821178,2.608449 0.0493,0.484056 0.09761,0.967092 0.144909,1.449138 0.0091,-0.01767 0.01718,-0.03634 0.02428,-0.056 0.07342,0.21289 0.145831,0.424768 0.217249,0.635659 0.290833,-0.69138 0.580654,-1.383732 0.869482,-2.077098 0.0171,-0.192223 0.0332,-0.385437 0.0483,-0.579656 0.129815,0.290834 0.258624,0.580656 0.386437,0.869483 0.371343,0.548464 0.741663,1.095893 1.111006,1.642357 0.0332,0.757788 0.0654,1.514528 0.09661,2.270316 -0.337139,0.435751 -0.675258,0.870475 -1.014396,1.304225 -0.562564,0.500157 -1.126097,0.999285 -1.690661,1.497442 -0.800521,0.418839 -1.601994,0.836654 -2.404515,1.253493 -1.065295,-0.223617 -2.131547,-0.448225 -3.19882,-0.673838 -1.501485,0.223659 -3.003971,0.446319 -4.507456,0.667978 z"
       sodipodi:nodetypes="cccccccccccccccccccccccccccccccccccccccccccccc" />
  </g>
</svg>
