<?xml version="1.0" encoding="UTF-8" standalone="no"?>
<!-- Created with Inkscape (http://www.inkscape.org/) -->

<svg
   width="64.0px"
   height="64.0px"
   viewBox="0 0 64.0 64.0"
   version="1.1"
   id="SVGRoot"
   sodipodi:docname="fuels_icon.svg"
   inkscape:version="1.2.2 (b0a8486541, 2022-12-01)"
   xmlns:inkscape="http://www.inkscape.org/namespaces/inkscape"
   xmlns:sodipodi="http://sodipodi.sourceforge.net/DTD/sodipodi-0.dtd"
   xmlns="http://www.w3.org/2000/svg"
   xmlns:svg="http://www.w3.org/2000/svg">
  <sodipodi:namedview
     id="namedview326"
     pagecolor="#ffffff"
     bordercolor="#000000"
     borderopacity="0.25"
     inkscape:showpageshadow="2"
     inkscape:pageopacity="0.0"
     inkscape:pagecheckerboard="0"
     inkscape:deskcolor="#d1d1d1"
     inkscape:document-units="px"
     showgrid="true"
     inkscape:zoom="20.70196"
     inkscape:cx="24.031541"
     inkscape:cy="33.547549"
     inkscape:window-width="2560"
     inkscape:window-height="1332"
     inkscape:window-x="0"
     inkscape:window-y="32"
     inkscape:window-maximized="1"
     inkscape:current-layer="layer1">
    <inkscape:grid
       type="xygrid"
       id="grid449" />
  </sodipodi:namedview>
  <defs
     id="defs321">
    <inkscape:path-effect
       effect="bspline"
       id="path-effect4264"
       is_visible="true"
       lpeversion="1"
       weight="33.333333"
       steps="2"
       helper_size="0"
       apply_no_weight="true"
       apply_with_weight="true"
       only_selected="false" />
    <inkscape:path-effect
       effect="bspline"
       id="path-effect4260"
       is_visible="true"
       lpeversion="1"
       weight="33.333333"
       steps="2"
       helper_size="0"
       apply_no_weight="true"
       apply_with_weight="true"
       only_selected="false" />
    <inkscape:path-effect
       effect="bspline"
       id="path-effect2734"
       is_visible="true"
       lpeversion="1"
       weight="33.333333"
       steps="2"
       helper_size="0"
       apply_no_weight="true"
       apply_with_weight="true"
       only_selected="false" />
    <inkscape:path-effect
       effect="bspline"
       id="path-effect801"
       is_visible="true"
       lpeversion="1"
       weight="33.333333"
       steps="2"
       helper_size="0"
       apply_no_weight="true"
       apply_with_weight="true"
       only_selected="false" />
    <inkscape:path-effect
       effect="bspline"
       id="path-effect797"
       is_visible="true"
       lpeversion="1"
       weight="33.333333"
       steps="2"
       helper_size="0"
       apply_no_weight="true"
       apply_with_weight="true"
       only_selected="false" />
    <inkscape:path-effect
       effect="bspline"
       id="path-effect4852"
       is_visible="true"
       lpeversion="1"
       weight="33.333333"
       steps="2"
       helper_size="0"
       apply_no_weight="true"
       apply_with_weight="true"
       only_selected="false" />
    <inkscape:path-effect
       effect="bspline"
       id="path-effect4848"
       is_visible="true"
       lpeversion="1"
       weight="33.333333"
       steps="2"
       helper_size="0"
       apply_no_weight="true"
       apply_with_weight="true"
       only_selected="false" />
    <inkscape:path-effect
       effect="bspline"
       id="path-effect4844"
       is_visible="true"
       lpeversion="1"
       weight="33.333333"
       steps="2"
       helper_size="0"
       apply_no_weight="true"
       apply_with_weight="true"
       only_selected="false" />
    <inkscape:path-effect
       effect="bspline"
       id="path-effect4840"
       is_visible="true"
       lpeversion="1"
       weight="33.333333"
       steps="2"
       helper_size="0"
       apply_no_weight="true"
       apply_with_weight="true"
       only_selected="false" />
    <inkscape:path-effect
       effect="bspline"
       id="path-effect4521"
       is_visible="true"
       lpeversion="1"
       weight="33.333333"
       steps="2"
       helper_size="0"
       apply_no_weight="true"
       apply_with_weight="true"
       only_selected="false" />
    <inkscape:path-effect
       effect="bspline"
       id="path-effect4517"
       is_visible="true"
       lpeversion="1"
       weight="33.333333"
       steps="2"
       helper_size="0"
       apply_no_weight="true"
       apply_with_weight="true"
       only_selected="false" />
    <inkscape:path-effect
       effect="bspline"
       id="path-effect4505"
       is_visible="true"
       lpeversion="1"
       weight="33.333333"
       steps="2"
       helper_size="0"
       apply_no_weight="true"
       apply_with_weight="true"
       only_selected="false" />
    <inkscape:path-effect
       effect="bspline"
       id="path-effect4123"
       is_visible="true"
       lpeversion="1"
       weight="33.333333"
       steps="2"
       helper_size="0"
       apply_no_weight="true"
       apply_with_weight="true"
       only_selected="false" />
    <inkscape:path-effect
       effect="bspline"
       id="path-effect3073"
       is_visible="true"
       lpeversion="1"
       weight="33.333333"
       steps="2"
       helper_size="0"
       apply_no_weight="true"
       apply_with_weight="true"
       only_selected="false" />
    <inkscape:path-effect
       effect="bspline"
       id="path-effect3069"
       is_visible="true"
       lpeversion="1"
       weight="33.333333"
       steps="2"
       helper_size="0"
       apply_no_weight="true"
       apply_with_weight="true"
       only_selected="false" />
    <inkscape:path-effect
       effect="bspline"
       id="path-effect3065"
       is_visible="true"
       lpeversion="1"
       weight="33.333333"
       steps="2"
       helper_size="0"
       apply_no_weight="true"
       apply_with_weight="true"
       only_selected="false" />
    <inkscape:path-effect
       effect="bspline"
       id="path-effect3061"
       is_visible="true"
       lpeversion="1"
       weight="33.333333"
       steps="2"
       helper_size="0"
       apply_no_weight="true"
       apply_with_weight="true"
       only_selected="false" />
    <inkscape:path-effect
       effect="bspline"
       id="path-effect3057"
       is_visible="true"
       lpeversion="1"
       weight="33.333333"
       steps="2"
       helper_size="0"
       apply_no_weight="true"
       apply_with_weight="true"
       only_selected="false" />
    <inkscape:path-effect
       effect="bspline"
       id="path-effect3053"
       is_visible="true"
       lpeversion="1"
       weight="33.333333"
       steps="2"
       helper_size="0"
       apply_no_weight="true"
       apply_with_weight="true"
       only_selected="false" />
    <inkscape:path-effect
       effect="bspline"
       id="path-effect3049"
       is_visible="true"
       lpeversion="1"
       weight="33.333333"
       steps="2"
       helper_size="0"
       apply_no_weight="true"
       apply_with_weight="true"
       only_selected="false" />
    <inkscape:path-effect
       effect="bspline"
       id="path-effect3045"
       is_visible="true"
       lpeversion="1"
       weight="33.333333"
       steps="2"
       helper_size="0"
       apply_no_weight="true"
       apply_with_weight="true"
       only_selected="false" />
    <inkscape:path-effect
       effect="bspline"
       id="path-effect3041"
       is_visible="true"
       lpeversion="1"
       weight="33.333333"
       steps="2"
       helper_size="0"
       apply_no_weight="true"
       apply_with_weight="true"
       only_selected="false" />
    <inkscape:path-effect
       effect="bspline"
       id="path-effect3037"
       is_visible="true"
       lpeversion="1"
       weight="33.333333"
       steps="2"
       helper_size="0"
       apply_no_weight="true"
       apply_with_weight="true"
       only_selected="false" />
    <inkscape:path-effect
       effect="bspline"
       id="path-effect3033"
       is_visible="true"
       lpeversion="1"
       weight="33.333333"
       steps="2"
       helper_size="0"
       apply_no_weight="true"
       apply_with_weight="true"
       only_selected="false" />
  </defs>
  <g
     inkscape:label="Layer 1"
     inkscape:groupmode="layer"
     id="layer1">
    <rect
       style="fill:#ffffff;stroke-width:2.64567;stroke-linecap:round;stroke-linejoin:round;paint-order:stroke fill markers;fill-opacity:1;stroke:#000000;stroke-opacity:1"
       id="rect508"
       width="60"
       height="60"
       x="2"
       y="2"
       ry="5" />
    <rect
       style="fill:#000000;fill-opacity:1;stroke-width:2.64567;stroke-linecap:round;stroke-linejoin:round;paint-order:stroke fill markers"
       id="rect602"
       width="50"
       height="50"
       x="7"
       y="7"
       ry="5" />
    <path
       style="fill:#ffffff;fill-opacity:1;stroke:#000000;stroke-width:2.64567;stroke-linecap:round;stroke-linejoin:round;stroke-opacity:1;paint-order:stroke fill markers"
       id="path1581"
       sodipodi:type="arc"
       sodipodi:cx="15.643683"
       sodipodi:cy="47.819118"
       sodipodi:rx="6.2847986"
       sodipodi:ry="6.0115466"
       sodipodi:start="0"
       sodipodi:end="0.011515806"
       sodipodi:open="true"
       sodipodi:arc-type="arc"
       d="m 21.928482,47.819118 a 6.2847986,6.0115466 0 0 1 -4.17e-4,0.06923" />
    <path
       style="fill:#000000;fill-opacity:1;stroke:#ffffff;stroke-width:0;stroke-linecap:round;stroke-linejoin:round;stroke-dasharray:none;stroke-opacity:1;paint-order:stroke fill markers"
       d="m 42.012513,14.612603 c 0,-0.143012 0,-0.439035 0.03415,-0.626201 0.03416,-0.187167 0.102471,-0.255483 0.153012,-0.289639 0.05054,-0.03416 0.07331,-0.03416 0.09008,-0.05493 0.01677,-0.02077 0.03954,-0.06631 0.145007,-0.137625 0.105469,-0.07131 0.287639,-0.162399 0.436236,-0.230746 0.148598,-0.06835 0.262452,-0.113889 0.316794,-0.142011 0.05434,-0.02812 0.05434,-0.05089 0.112739,-0.102315 0.0584,-0.05142 0.172254,-0.119738 0.250481,-0.175782 0.07823,-0.05604 0.123769,-0.101586 0.146541,-0.06243 0.02277,0.03916 0.02277,0.15301 0.01085,0.30033 -0.01192,0.147319 -0.03469,0.329487 -0.0747,0.416264 -0.04,0.08678 -0.108318,0.08678 -0.159859,0.123931 -0.05154,0.03716 -0.07431,0.105471 -0.115852,0.147012 -0.04154,0.04154 -0.109856,0.06431 -0.147012,0.127239 -0.03716,0.06293 -0.03716,0.154011 -0.10247,0.216324 -0.06531,0.06231 -0.201939,0.107855 -0.273252,0.159396 -0.07131,0.05154 -0.07131,0.09708 -0.08908,0.114856 -0.01777,0.01777 -0.06331,0.01777 -0.103468,0.04254 -0.04016,0.02477 -0.06293,0.07031 -0.102468,0.09108 -0.03954,0.02077 -0.107856,0.02077 -0.202469,0.05405 -0.09461,0.03327 -0.208469,0.101587 -0.266867,0.136626 -0.0584,0.03504 -0.0584,0.03504 -0.0584,-0.107973 z"
       id="path4515"
       inkscape:path-effect="#path-effect4517"
       inkscape:original-d="m 42.012513,14.755614 c 0.01,-0.286023 0.01,-0.582046 0,-0.888069 0.07831,-0.05831 0.146626,-0.126626 0.204939,-0.204939 0.03277,0.01 0.05554,0.01 0.06831,0 0.03277,-0.03554 0.05554,-0.08108 0.06831,-0.136626 0.192168,-0.08108 0.374336,-0.172168 0.546504,-0.273252 0.123855,-0.03554 0.23771,-0.08108 0.341565,-0.136626 0.01,-0.01277 0.01,-0.03554 0,-0.06831 0.123855,-0.05831 0.23771,-0.126626 0.341565,-0.204939 0.05554,-0.03554 0.101084,-0.08108 0.136626,-0.136626 0.01,0.123855 0.01,0.23771 0,0.341565 -0.01277,0.192169 -0.03554,0.374337 -0.06831,0.546505 -0.05831,0.01 -0.126626,0.01 -0.204939,0 -0.01277,0.07831 -0.03554,0.146626 -0.06831,0.204939 -0.05831,0.03277 -0.126626,0.05554 -0.204939,0.06831 0.01,0.101084 0.01,0.192168 0,0.273252 -0.126626,0.05554 -0.263252,0.101084 -0.409878,0.136626 0.01,0.05554 0.01,0.101084 0,0.136626 -0.03554,0.01 -0.08108,0.01 -0.136626,0 -0.01277,0.05554 -0.03554,0.101084 -0.06831,0.136626 -0.05831,0.01 -0.126626,0.01 -0.204939,0 -0.103855,0.07831 -0.21771,0.146626 -0.341565,0.204939 z" />
    <rect
       style="fill:#ffffff;stroke:#ffffff;stroke-width:0;stroke-linecap:round;stroke-linejoin:round;paint-order:stroke fill markers"
       id="rect661"
       width="31.999998"
       height="1.5711997"
       x="16"
       y="52"
       ry="0.78559983" />
    <path
       style="fill:#ffffff;fill-opacity:1;stroke:#ffffff;stroke-width:0;stroke-linecap:round;stroke-linejoin:round;paint-order:stroke fill markers"
       d="m 23.444416,52.290112 c -0.707887,-0.458518 -2.124822,-1.376305 -2.994799,-2.849427 -0.869977,-1.473122 -1.192001,-3.501875 -1.24048,-4.975384 -0.04848,-1.473509 0.176937,-2.391278 0.249568,-3.107593 0.07263,-0.716314 -0.0079,-1.231553 0.137195,-1.022185 0.145068,0.209369 0.515396,1.143239 0.724567,1.763113 0.20917,0.619873 0.257474,0.925796 0.410297,0.05616 0.152824,-0.869638 0.410443,-2.914492 0.466901,-4.73387 0.05646,-1.819379 -0.08845,-3.413399 -0.217095,-4.363332 -0.12864,-0.949932 -0.241349,-1.255855 -0.04793,-1.070721 0.193417,0.185135 0.692555,0.861386 1.054545,1.746997 0.361991,0.885612 0.587408,1.980494 0.732387,2.632628 0.144979,0.652133 0.209384,0.861449 0.531156,-0.394719 0.321773,-1.256168 0.901416,-3.977273 1.102834,-6.038106 0.201418,-2.060832 0.0243,-3.461638 -0.144601,-4.371331 -0.168906,-0.909692 -0.329918,-1.328323 -0.04002,-0.772807 0.289894,0.555516 1.03055,2.085132 1.424778,3.260478 0.394228,1.175347 0.442531,1.996509 0.595418,1.279878 0.152886,-0.716632 0.410505,-2.970802 0.861302,-4.975618 0.450797,-2.004817 1.094846,-3.759849 1.771407,-4.822931 0.676562,-1.063083 1.385015,-1.43341 1.771705,-1.577676 0.38669,-0.144265 0.451093,-0.06376 0.265379,0.515613 -0.185715,0.579375 -0.620448,1.658156 -0.76522,3.244453 -0.144772,1.586297 1.39e-4,3.679455 0.177438,5.015959 0.1773,1.336503 0.386616,1.916146 0.531439,2.391124 0.144824,0.474979 0.22533,0.845307 0.426394,0.30568 0.201064,-0.539627 0.523088,-1.988736 0.611786,-3.389406 0.0887,-1.40067 -0.05621,-2.753172 -0.06442,-3.638992 -0.0082,-0.88582 0.120604,-1.304451 0.290092,-1.320269 0.169489,-0.01582 0.378805,0.370611 0.773333,1.038825 0.394528,0.668214 0.974172,1.618185 1.303931,2.704995 0.329759,1.08681 0.410265,2.310502 0.361862,3.518015 -0.0484,1.207513 -0.225516,2.399003 -0.297856,3.155906 -0.07234,0.756904 -0.04014,1.078928 0.386404,0.184992 0.426541,-0.893936 1.247703,-3.003195 1.650354,-4.564811 0.40265,-1.561616 0.38655,-2.575992 0.434749,-3.196212 0.0482,-0.620219 0.160907,-0.845636 0.35442,-0.531249 0.193513,0.314387 0.467234,1.167752 0.555577,2.616787 0.08834,1.449036 -0.0083,3.49389 -0.169343,5.015388 -0.161078,1.521498 -0.386495,2.519773 -0.491018,3.099606 -0.104523,0.579833 -0.08842,0.740845 0.273714,0.128622 0.362138,-0.612223 1.070591,-1.996928 1.376753,-2.898227 0.306163,-0.901299 0.209555,-1.319931 0.306268,-1.158889 0.09671,0.161042 0.386536,0.901698 0.345976,2.407018 -0.04056,1.50532 -0.410889,3.775591 -0.579718,4.967292 -0.16883,1.191702 -0.136627,1.304412 0.314011,0.828865 0.450637,-0.475546 1.320102,-1.538226 1.819236,-2.528112 0.499135,-0.989887 0.627944,-1.907656 0.75686,-1.569393 0.128917,0.338264 0.257726,1.932284 0.08046,3.477816 -0.177264,1.545533 -0.6603,3.042946 -0.901724,3.936777 -0.241424,0.893831 -0.241424,1.183653 -0.217205,1.529892 0.02422,0.34624 0.07252,0.74877 0.482953,0.16875 0.41043,-0.58002 1.183288,-2.141838 1.569826,-3.172044 0.386537,-1.030206 0.386537,-1.529344 0.346403,-1.972061 -0.04013,-0.442717 -0.12064,-0.829146 0.09692,-0.515136 0.217559,0.314011 0.732798,1.328387 1.199699,2.326696 0.466902,0.998309 0.885533,1.980483 1.175202,2.94655 0.289668,0.966067 0.45068,1.916038 0.361936,3.099307 -0.08874,1.183268 -0.42687,2.600175 -1.263954,3.742953 -0.837084,1.142778 -2.173485,2.012243 -5.643045,2.447065 -3.469559,0.434821 -9.072782,0.434821 -11.874949,0.434821 -2.802167,0 -2.802169,0 -3.510056,-0.458518 z"
       id="path2732"
       inkscape:path-effect="#path-effect2734"
       inkscape:original-d="m 24.152303,52.74863 c -1.415935,-0.916788 -2.83287,-1.834575 -4.250805,-2.753363 -0.321037,-2.027834 -0.643062,-4.056587 -0.966092,-6.08638 0.226426,-0.916806 0.451843,-1.834575 0.676264,-2.753363 -0.07951,-0.514259 -0.160015,-1.029498 -0.241523,-1.545747 0.371343,0.934908 0.741671,1.868778 1.111006,2.801667 0.04931,0.306935 0.09761,0.612858 0.144914,0.917788 0.258629,-2.043936 0.516249,-4.08879 0.772873,-6.134685 -0.143916,-1.593084 -0.288827,-3.187104 -0.434741,-4.782156 -0.111713,-0.304936 -0.224422,-0.610859 -0.338132,-0.917788 0.500157,0.677278 0.999295,1.353529 1.497443,2.028794 0.226426,1.095926 0.451843,2.190808 0.676264,3.284713 0.06541,0.210324 0.129812,0.41964 0.193218,0.62796 0.580667,-2.720214 1.160311,-5.441319 1.738966,-8.163479 -0.17612,-1.399861 -0.353234,-2.800667 -0.53135,-4.2025 -0.160019,-0.417649 -0.321031,-0.83628 -0.483046,-1.25592 0.741685,1.530676 1.482341,3.060291 2.222011,4.588937 0.04931,0.822195 0.09761,1.643357 0.144914,2.463535 0.25863,-2.25326 0.516249,-4.50743 0.772874,-6.762645 0.645074,-1.754102 1.289123,-3.509134 1.932184,-5.265202 0.709482,-0.369342 1.417935,-0.73967 2.125403,-1.111006 0.06541,0.08151 0.129812,0.162016 0.193218,0.241523 -0.43375,1.079825 -0.868483,2.158606 -1.304224,3.236409 0.145917,2.094241 0.290828,4.187399 0.434741,6.279599 0.210324,0.580667 0.41964,1.16031 0.62796,1.738966 0.08151,0.371342 0.162016,0.74167 0.241523,1.111006 0.323037,-1.448168 0.645062,-2.897277 0.966092,-4.347415 -0.143916,-1.351556 -0.288827,-2.704058 -0.434741,-4.057587 0.129815,-0.417648 0.258624,-0.83628 0.386437,-1.25592 0.210324,0.387445 0.41964,0.773874 0.62796,1.159311 0.580667,0.951009 1.16031,1.900981 1.738965,2.849972 0.08151,1.224741 0.162016,2.448433 0.241523,3.67115 -0.17612,1.192537 -0.353233,2.384027 -0.53135,3.574541 0.0332,0.323037 0.06541,0.645061 0.09661,0.966092 0.822195,-2.108344 1.643357,-4.217603 2.463535,-6.327904 -0.0151,-1.013417 -0.0312,-2.027793 -0.0483,-3.04319 0.113713,-0.224426 0.226422,-0.449843 0.338133,-0.676264 0.274731,0.854398 0.548452,1.707762 0.821178,2.560144 -0.09561,2.045936 -0.192219,4.09079 -0.289828,6.134685 -0.224426,0.999315 -0.449843,1.99759 -0.676264,2.994885 0.0171,0.162019 0.0332,0.323031 0.0483,0.483046 0.709482,-1.383759 1.417935,-2.768464 2.125403,-4.154196 -0.09561,-0.417648 -0.192218,-0.83628 -0.289828,-1.25592 0.290834,0.741686 0.580656,1.482342 0.869483,2.222012 -0.369342,2.271362 -0.73967,4.541633 -1.111006,6.81095 0.0332,0.113713 0.06541,0.226421 0.09661,0.338132 0.8705,-1.061723 1.739965,-2.124403 2.608448,-3.188104 0.129815,-0.916806 0.258625,-1.834575 0.386437,-2.753363 0.129815,1.595084 0.258625,3.189104 0.386437,4.782156 -0.482056,1.498473 -0.965092,2.995886 -1.449138,4.492329 0.001,0.290833 0.001,0.580655 0,0.869483 0.04931,0.403546 0.09761,0.806077 0.144914,1.207615 0.773889,-1.56088 1.546747,-3.122698 2.318621,-4.685547 0.001,-0.498157 0.001,-0.997295 0,-1.497443 -0.07951,-0.385444 -0.160016,-0.771873 -0.241523,-1.15931 0.516259,1.015417 1.031498,2.029793 1.545747,3.04319 0.419648,0.983213 0.83828,1.965387 1.25592,2.946581 0.162018,0.95101 0.323031,1.900981 0.483046,2.849972 -0.337139,1.417963 -0.675265,2.83487 -1.014397,4.250805 -1.335454,0.8705 -2.671855,1.739966 -4.009282,2.608449 -5.602446,0.001 -11.205669,0.001 -16.810003,0 z" />
    <rect
       style="fill:#000000;fill-opacity:1;stroke:#ffffff;stroke-width:0;stroke-linecap:round;stroke-linejoin:round;paint-order:stroke fill markers"
       id="rect3840"
       width="7.999999"
       height="1.9999993"
       x="28"
       y="50"
       ry="0.5608086" />
    <path
       style="fill:#000000;fill-opacity:1;stroke:#ffffff;stroke-width:0;stroke-linecap:round;stroke-linejoin:round;paint-order:stroke fill markers"
       d="m 28.315571,51.895392 c -1.215487,-0.09635 -2.326493,-0.466688 -3.156092,-1.351883 -0.829599,-0.885195 -1.37704,-2.286001 -1.562511,-3.501878 -0.185471,-1.215878 -0.0084,-2.246356 0.06419,-3.155983 0.07255,-0.909627 0.04034,-1.698586 0.04827,-2.165752 0.0079,-0.467166 0.05623,-0.612076 0.185342,-0.362197 0.12911,0.249879 0.338426,0.893928 0.450965,1.393002 0.112539,0.499073 0.128638,0.8533 0.305634,0.522987 0.176996,-0.330314 0.515122,-1.34469 0.676247,-2.286429 0.161126,-0.94174 0.145026,-1.811206 0.209341,-2.560077 0.06431,-0.748872 0.209225,-1.376819 0.338021,-1.811709 0.128796,-0.43489 0.241504,-0.676408 0.32215,-0.434566 0.08065,0.241842 0.128949,0.966397 0.282081,1.715195 0.153132,0.748798 0.410751,1.521656 0.547447,2.036837 0.136695,0.515181 0.152795,0.7728 0.353939,0.249282 0.201143,-0.523519 0.587572,-1.827717 0.788932,-3.236445 0.201359,-1.408729 0.217458,-2.922243 0.257629,-3.807972 0.04017,-0.885729 0.104576,-1.143347 0.177309,-1.1431 0.07273,2.48e-4 0.153239,0.257867 0.290075,0.748964 0.136835,0.491098 0.33005,1.215653 0.466806,2.012638 0.136757,0.796984 0.217263,1.66645 0.273698,2.173691 0.05644,0.50724 0.08864,0.652151 0.305784,0.10441 0.217146,-0.547742 0.619676,-1.787535 0.821045,-2.721236 0.201368,-0.933701 0.201368,-1.561648 0.249638,-1.932443 0.04827,-0.370795 0.144879,-0.483505 0.20131,-0.434703 0.05643,0.0488 0.07253,0.258117 0.161235,0.620469 0.08871,0.362352 0.249717,0.877591 0.281694,1.698636 0.03198,0.821046 -0.06463,1.948131 -0.161269,2.809523 -0.09664,0.861392 -0.193245,1.457137 -0.233379,1.835661 -0.04013,0.378524 -0.02403,0.539537 0.225386,0.0079 0.24942,-0.531645 0.732456,-1.755337 0.974083,-2.664842 0.241626,-0.909505 0.241626,-1.50525 0.258226,-1.803629 0.0166,-0.298378 0.04881,-0.298378 0.22567,0.104772 0.17686,0.40315 0.498885,1.208211 0.635484,2.141983 0.1366,0.933773 0.0883,1.996453 -0.01643,2.865827 -0.104726,0.869374 -0.265738,1.545625 -0.35424,2.012678 -0.0885,0.467054 -0.1046,0.724673 -0.03222,0.676124 0.07239,-0.04855 0.233398,-0.402776 0.402482,-0.942054 0.169083,-0.539278 0.346197,-1.263833 0.434842,-1.778942 0.08865,-0.515108 0.08865,-0.821031 0.144899,-1.11111 0.05625,-0.290079 0.168961,-0.563799 0.233531,-0.627907 0.06457,-0.06411 0.08067,0.0808 0.12102,0.274067 0.04035,0.193264 0.104755,0.434782 0.258,0.708471 0.153244,0.273689 0.394762,0.579612 0.555411,1.062666 0.160648,0.483055 0.241154,1.143204 0.160483,1.899764 -0.08067,0.75656 -0.32219,1.609924 -0.434746,2.10929 -0.112557,0.499366 -0.09646,0.644277 0.161014,0.249412 0.257471,-0.394865 0.756609,-1.328735 1.022348,-2.020824 0.26574,-0.69209 0.297943,-1.142924 0.282043,-1.480927 -0.0159,-0.338002 -0.0803,-0.563418 0.06479,-0.37825 0.145098,0.185168 0.499324,0.780913 0.756701,1.537676 0.257376,0.756762 0.418388,1.674531 0.329626,2.471194 -0.08876,0.796662 -0.426888,1.472913 -0.62815,1.867364 -0.201263,0.394451 -0.265666,0.507158 0.0083,0.378093 0.273969,-0.129064 0.885815,-0.499392 1.239832,-0.94171 0.354017,-0.442317 0.450624,-0.957556 0.507014,-1.311729 0.05639,-0.354174 0.07249,-0.547388 0.145254,-0.498932 0.07276,0.04846 0.201573,0.338277 0.322155,0.845444 0.120582,0.507166 0.233291,1.23172 0.362413,1.698675 0.129122,0.466955 0.274032,0.67627 0.370286,1.10293 0.09625,0.42666 0.144557,1.070708 0.02365,1.690296 -0.120905,0.619588 -0.410727,1.215333 -1.151011,1.714177 -0.740285,0.498844 -1.931751,0.901366 -3.123033,1.030348 -1.191282,0.128983 -2.382772,-0.01593 -3.638815,4.9e-5 -1.256043,0.01598 -2.57636,0.193095 -3.791847,0.09674 z"
       id="path4258"
       inkscape:path-effect="#path-effect4260"
       inkscape:original-d="m 28.20989,52.168975 c -1.110006,-0.369335 -2.221012,-0.739671 -3.333018,-1.111006 -0.546463,-1.399862 -1.093904,-2.800668 -1.642357,-4.202501 0.178121,-1.029519 0.355234,-2.059997 0.531351,-3.091495 -0.0312,-0.787991 -0.06341,-1.57695 -0.09661,-2.366926 0.04931,-0.143916 0.09761,-0.288827 0.144914,-0.434741 0.210324,0.645074 0.41964,1.289123 0.62796,1.932184 0.0171,0.355241 0.0332,0.709468 0.0483,1.062701 0.339139,-1.013417 0.677265,-2.027793 1.014397,-3.04319 -0.0151,-0.8685 -0.0312,-1.737966 -0.0483,-2.608448 0.145917,-0.626973 0.290828,-1.25492 0.434742,-1.88388 0.113713,-0.240528 0.226421,-0.482046 0.338132,-0.724569 0.04931,0.725583 0.09761,1.450138 0.144914,2.173707 0.25863,0.773889 0.516249,1.546747 0.772874,2.318621 0.0171,0.25863 0.0332,0.516249 0.0483,0.772874 0.387445,-1.303251 0.773874,-2.607449 1.159311,-3.912673 0.0171,-1.512575 0.0332,-3.026089 0.0483,-4.540633 0.06541,-0.25663 0.129813,-0.514249 0.193219,-0.772874 0.08151,0.25863 0.162015,0.516249 0.241523,0.772874 0.194222,0.725583 0.387437,1.450138 0.579655,2.173707 0.08151,0.8705 0.162015,1.739966 0.241523,2.608449 0.0332,0.145917 0.06541,0.290827 0.09661,0.434741 0.403547,-1.238843 0.806077,-2.478636 1.207615,-3.719454 10e-4,-0.626973 10e-4,-1.25492 0,-1.88388 0.09761,-0.111713 0.194219,-0.224422 0.289828,-0.338132 0.0171,0.210324 0.0332,0.41964 0.0483,0.62796 0.162018,0.516259 0.32303,1.031498 0.483046,1.545747 -0.09561,1.12813 -0.192219,2.255215 -0.289828,3.381322 -0.09561,0.596769 -0.192218,1.192514 -0.289828,1.787271 0.0171,0.162018 0.0332,0.323031 0.0483,0.483046 0.484056,-1.222741 0.967092,-2.446433 1.449138,-3.67115 10e-4,-0.594769 10e-4,-1.190514 0,-1.787271 0.0332,10e-4 0.06541,10e-4 0.09661,0 0.323038,0.806093 0.645062,1.611154 0.966093,2.415231 -0.04731,1.063722 -0.09561,2.126402 -0.144914,3.188104 -0.160019,0.677278 -0.321031,1.353529 -0.483046,2.028793 -0.0151,0.25863 -0.0312,0.516249 -0.0483,0.772874 0.162019,-0.353241 0.323031,-0.707468 0.483046,-1.062701 0.178121,-0.723584 0.355234,-1.448139 0.531351,-2.173708 0.001,-0.304935 0.001,-0.610858 0,-0.917787 0.113713,-0.272732 0.226421,-0.546452 0.338132,-0.821179 0.0171,0.145917 0.0332,0.290828 0.0483,0.434742 0.06541,0.242528 0.129812,0.484046 0.193218,0.724569 0.242528,0.306935 0.484046,0.612858 0.724569,0.917788 0.08151,0.661176 0.162016,1.321325 0.241523,1.980488 -0.240528,0.854399 -0.482046,1.707763 -0.724569,2.560144 0.0171,0.145917 0.0332,0.290828 0.0483,0.434742 0.500157,-0.932908 0.999295,-1.866778 1.497443,-2.801667 0.0332,-0.449852 0.06541,-0.900686 0.09661,-1.352529 -0.06341,-0.224426 -0.127813,-0.449843 -0.193219,-0.676265 0.355241,0.596769 0.709468,1.192514 1.062702,1.787271 0.162018,0.918806 0.32303,1.836575 0.483046,2.753362 -0.337139,0.677278 -0.675265,1.353529 -1.014397,2.028794 -0.06341,0.113713 -0.127812,0.226421 -0.193218,0.338132 0.61287,-0.369343 1.224716,-0.739671 1.835575,-1.111006 0.09761,-0.514259 0.194218,-1.029498 0.289827,-1.545747 0.0171,-0.192223 0.0332,-0.385437 0.0483,-0.579656 0.129815,0.290834 0.258624,0.580656 0.386437,0.869483 0.113713,0.725584 0.226421,1.450138 0.338132,2.173708 0.145917,0.210324 0.290828,0.419639 0.434741,0.627959 0.04931,0.645075 0.09761,1.289123 0.144914,1.932185 -0.288833,0.596768 -0.578655,1.192513 -0.869483,1.78727 -1.190537,0.403546 -2.382003,0.806069 -3.57454,1.207615 -1.190538,-0.143917 -2.382028,-0.288828 -3.574542,-0.434742 -1.319317,0.178117 -2.639635,0.355235 -3.960952,0.531352 z"
       sodipodi:nodetypes="ccccccccccccccccccccccccccccccccccccccccccccccccccccccccccccccccc" />
  </g>
</svg>
