<?xml version="1.0" encoding="UTF-8" standalone="no"?>
<!-- Created with Inkscape (http://www.inkscape.org/) -->

<svg
   width="64.0px"
   height="64.0px"
   viewBox="0 0 64.0 64.0"
   version="1.1"
   id="SVGRoot"
   sodipodi:docname="icon_falling_sand.svg"
   inkscape:version="1.2.2 (b0a8486541, 2022-12-01)"
   xmlns:inkscape="http://www.inkscape.org/namespaces/inkscape"
   xmlns:sodipodi="http://sodipodi.sourceforge.net/DTD/sodipodi-0.dtd"
   xmlns:xlink="http://www.w3.org/1999/xlink"
   xmlns="http://www.w3.org/2000/svg"
   xmlns:svg="http://www.w3.org/2000/svg">
  <sodipodi:namedview
     id="namedview137"
     pagecolor="#ffffff"
     bordercolor="#000000"
     borderopacity="0.25"
     inkscape:showpageshadow="2"
     inkscape:pageopacity="0.0"
     inkscape:pagecheckerboard="0"
     inkscape:deskcolor="#d1d1d1"
     inkscape:document-units="px"
     showgrid="true"
     inkscape:zoom="16"
     inkscape:cx="27.15625"
     inkscape:cy="28.96875"
     inkscape:window-width="2560"
     inkscape:window-height="1332"
     inkscape:window-x="0"
     inkscape:window-y="32"
     inkscape:window-maximized="1"
     inkscape:current-layer="layer1">
    <inkscape:grid
       type="xygrid"
       id="grid260" />
  </sodipodi:namedview>
  <defs
     id="defs132">
    <inkscape:path-effect
       effect="bspline"
       id="path-effect33369"
       is_visible="true"
       lpeversion="1"
       weight="33.333333"
       steps="2"
       helper_size="0"
       apply_no_weight="true"
       apply_with_weight="true"
       only_selected="false" />
    <inkscape:path-effect
       effect="bspline"
       id="path-effect30447"
       is_visible="true"
       lpeversion="1"
       weight="33.333333"
       steps="2"
       helper_size="0"
       apply_no_weight="true"
       apply_with_weight="true"
       only_selected="false" />
    <inkscape:path-effect
       effect="bspline"
       id="path-effect30443"
       is_visible="true"
       lpeversion="1"
       weight="33.333333"
       steps="2"
       helper_size="0"
       apply_no_weight="true"
       apply_with_weight="true"
       only_selected="false" />
    <inkscape:path-effect
       effect="bspline"
       id="path-effect28006"
       is_visible="true"
       lpeversion="1"
       weight="33.333333"
       steps="2"
       helper_size="0"
       apply_no_weight="true"
       apply_with_weight="true"
       only_selected="false" />
    <inkscape:path-effect
       effect="bspline"
       id="path-effect26496"
       is_visible="true"
       lpeversion="1"
       weight="33.333333"
       steps="2"
       helper_size="0"
       apply_no_weight="true"
       apply_with_weight="true"
       only_selected="false" />
    <inkscape:path-effect
       effect="bspline"
       id="path-effect26492"
       is_visible="true"
       lpeversion="1"
       weight="33.333333"
       steps="2"
       helper_size="0"
       apply_no_weight="true"
       apply_with_weight="true"
       only_selected="false" />
    <inkscape:path-effect
       effect="bspline"
       id="path-effect26488"
       is_visible="true"
       lpeversion="1"
       weight="33.333333"
       steps="2"
       helper_size="0"
       apply_no_weight="true"
       apply_with_weight="true"
       only_selected="false" />
    <inkscape:path-effect
       effect="bspline"
       id="path-effect26484"
       is_visible="true"
       lpeversion="1"
       weight="33.333333"
       steps="2"
       helper_size="0"
       apply_no_weight="true"
       apply_with_weight="true"
       only_selected="false" />
    <inkscape:path-effect
       effect="bspline"
       id="path-effect26480"
       is_visible="true"
       lpeversion="1"
       weight="33.333333"
       steps="2"
       helper_size="0"
       apply_no_weight="true"
       apply_with_weight="true"
       only_selected="false" />
    <inkscape:path-effect
       effect="bspline"
       id="path-effect26476"
       is_visible="true"
       lpeversion="1"
       weight="33.333333"
       steps="2"
       helper_size="0"
       apply_no_weight="true"
       apply_with_weight="true"
       only_selected="false" />
    <inkscape:path-effect
       effect="bspline"
       id="path-effect26472"
       is_visible="true"
       lpeversion="1"
       weight="33.333333"
       steps="2"
       helper_size="0"
       apply_no_weight="true"
       apply_with_weight="true"
       only_selected="false" />
    <inkscape:path-effect
       effect="bspline"
       id="path-effect26468"
       is_visible="true"
       lpeversion="1"
       weight="33.333333"
       steps="2"
       helper_size="0"
       apply_no_weight="true"
       apply_with_weight="true"
       only_selected="false" />
    <inkscape:path-effect
       effect="bspline"
       id="path-effect26464"
       is_visible="true"
       lpeversion="1"
       weight="33.333333"
       steps="2"
       helper_size="0"
       apply_no_weight="true"
       apply_with_weight="true"
       only_selected="false" />
    <inkscape:path-effect
       effect="bspline"
       id="path-effect24683"
       is_visible="true"
       lpeversion="1"
       weight="33.333333"
       steps="2"
       helper_size="0"
       apply_no_weight="true"
       apply_with_weight="true"
       only_selected="false" />
  </defs>
  <g
     inkscape:label="Layer 1"
     inkscape:groupmode="layer"
     id="layer1">
    <rect
       style="display:inline;fill:#18125c;fill-opacity:1;stroke:#ffffff;stroke-width:1;stroke-linecap:round;stroke-linejoin:round;stroke-dasharray:none;stroke-dashoffset:0;stroke-opacity:1;paint-order:normal"
       id="rect22345"
       width="62.629967"
       height="62.629971"
       x="0.68501502"
       y="0.68501502"
       ry="14.029818" />
    <path
       style="display:inline;fill:#ffbf1f;fill-opacity:1;stroke-width:2.64567;stroke-linecap:round;stroke-linejoin:round;paint-order:stroke fill markers"
       d="m 30.883337,34.553085 c -0.29877,0.04235 -0.79877,0.06318 -1.079804,0.0738 -0.281033,0.01062 -0.343533,0.01062 -0.3908,0.08773 -0.04727,0.07712 -0.0681,0.222951 -0.08333,0.291668 -0.01523,0.06872 -0.03607,0.06872 -0.0629,0.102966 -0.02683,0.03425 -0.04767,0.09675 -0.07792,0.145835 -0.03025,0.04908 -0.07191,0.09074 -0.09275,0.126995 -0.02084,0.03625 -0.02084,0.05709 -0.02625,0.0625 -0.0054,0.0054 -0.02625,0.0054 -0.04167,0.02083 -0.01542,0.01541 -0.01542,0.03625 -0.02083,0.04167 -0.0054,0.0054 -0.02625,0.0054 -0.04167,0.02083 -0.01542,0.01541 -0.01542,0.03625 -0.03125,0.04167 -0.01583,0.0054 -0.05749,0.0054 -0.08333,0.08333 -0.02584,0.07792 -0.02584,0.22375 -0.02584,0.307082 0,0.08333 0,0.104171 -0.01583,0.109586 -0.01583,0.0054 -0.05749,0.0054 -0.146183,0.07874 -0.08869,0.07333 -0.213688,0.219162 -0.326449,0.322036 -0.112761,0.102873 -0.216925,0.165371 -0.270479,0.223339 -0.05355,0.05797 -0.05355,0.09963 -0.06939,0.115462 -0.01583,0.01584 -0.05749,0.01584 -0.135414,0.06792 -0.07792,0.05208 -0.182084,0.156249 -0.239583,0.208333 -0.0575,0.05208 -0.07834,0.05208 -0.10517,0.07492 -0.02683,0.02283 -0.04766,0.0645 -0.09675,0.103165 -0.04908,0.03867 -0.132417,0.08033 -0.187501,0.125001 -0.05508,0.04467 -0.07592,0.08633 -0.124999,0.124999 -0.04908,0.03867 -0.132417,0.08033 -0.176084,0.117582 -0.04367,0.03725 -0.04367,0.05809 -0.04908,0.0635 -0.0054,0.0054 -0.02625,0.0054 -0.05309,0.02825 -0.02683,0.02283 -0.04766,0.0645 -0.08718,0.103397 -0.03951,0.0389 -0.102011,0.08056 -0.166548,0.15572 -0.06454,0.07516 -0.127037,0.179323 -0.168703,0.27513 -0.04167,0.09581 -0.0625,0.179146 -0.114624,0.291814 -0.05212,0.112667 -0.135458,0.258503 -0.176202,0.40772 -0.04074,0.149218 -0.04074,0.295052 -0.08344,0.459037 -0.0427,0.163986 -0.126032,0.351487 -0.166667,0.479168 -0.04064,0.12768 -0.04064,0.19018 -0.04605,0.21643 -0.0054,0.02625 -0.02625,0.02625 -0.04167,0.05208 -0.01542,0.02584 -0.01542,0.0675 -0.05708,0.124995 -0.04167,0.0575 -0.125002,0.140837 -0.188502,0.226169 -0.0635,0.08533 -0.105166,0.168667 -0.143833,0.217751 -0.03867,0.04908 -0.08033,0.06992 -0.103166,0.117583 -0.02283,0.04767 -0.02283,0.110167 -0.03867,0.136417 -0.01583,0.02625 -0.05749,0.02625 -0.08333,0.04167 -0.02584,0.01541 -0.02584,0.03625 -0.127415,0.0823 -0.101579,0.04605 -0.309915,0.129381 -0.442917,0.172082 -0.133003,0.0427 -0.195503,0.0427 -0.272619,0.07335 -0.07711,0.03065 -0.160451,0.09315 -0.218752,0.125001 -0.0583,0.03185 -0.09996,0.03185 -0.248797,0.09335 -0.148835,0.0615 -0.398835,0.1865 -0.56827,0.313653 -0.169436,0.127153 -0.25277,0.252155 -0.293668,0.349751 -0.0409,0.0976 -0.0409,0.160096 -0.04631,0.186346 -0.0054,0.02625 -0.02625,0.02625 -0.06327,0.05866 -0.03702,0.0324 -0.07868,0.0949 -0.149361,0.155366 -0.07068,0.06047 -0.174843,0.122964 -0.228397,0.180932 -0.05355,0.05797 -0.05355,0.09963 -0.05897,0.115462 -0.0054,0.01584 -0.02625,0.01584 -0.05309,0.03867 -0.02683,0.02283 -0.04766,0.0645 -0.08833,0.114582 C 22.2625,43.1375 22.2,43.2 22.16875,43.257085 c -0.03125,0.05709 -0.03125,0.09875 -0.0575,0.11458 -0.02625,0.01584 -0.08875,0.01584 -0.125,0.04167 -0.03625,0.02584 -0.03625,0.0675 -0.04166,0.08333 -0.0054,0.01584 -0.02625,0.01584 -0.06327,0.04824 -0.03702,0.0324 -0.07868,0.0949 -0.117581,0.134415 -0.0389,0.03951 -0.08056,0.06035 -0.125,0.104168 -0.04444,0.04382 -0.0861,0.106318 -0.144302,0.145949 -0.0582,0.03963 -0.141538,0.06047 -0.186733,0.118429 -0.0452,0.05796 -0.0452,0.141301 -0.06703,0.243468 -0.02183,0.102167 -0.0635,0.227165 -0.08333,0.322915 -0.01983,0.09575 -0.01983,0.158251 -0.05211,0.270574 -0.03228,0.112323 -0.09478,0.278989 -0.135905,0.457723 -0.04113,0.178734 -0.06196,0.366235 -0.09072,0.465011 -0.02876,0.09878 -0.07043,0.119609 -0.146288,0.226475 -0.07586,0.106866 -0.180027,0.294364 -0.231167,0.422666 C 20.45,46.585 20.45,46.6475 20.41775,46.7705 c -0.03225,0.123 -0.09475,0.3105 -0.125,0.489584 -0.03025,0.179083 -0.03025,0.345749 -0.03567,0.424083 -0.0054,0.07833 -0.02625,0.07833 -0.04167,0.09375 -0.01542,0.01541 -0.01542,0.03625 -0.02083,0.04167 -0.0054,0.0054 -0.02625,0.0054 -0.07292,0.03667 -0.04667,0.03125 -0.109165,0.09375 -0.15625,0.125 -0.04708,0.03125 -0.08874,0.03125 -0.155446,0.0619 -0.0667,0.03065 -0.150036,0.09315 -0.253002,0.155251 -0.102967,0.0621 -0.227967,0.1246 -0.303559,0.223404 -0.07559,0.0988 -0.09643,0.223805 -0.111582,0.28225 -0.01516,0.05845 -0.036,0.05845 -0.05141,0.105111 -0.01542,0.04666 -0.01542,0.130002 -0.05785,0.230322 -0.04244,0.100319 -0.12577,0.225321 -0.178084,0.320916 -0.05231,0.0956 -0.07315,0.158098 -0.11923,0.186348 -0.04608,0.02825 -0.129418,0.02825 -0.19692,0.04908 -0.0675,0.02083 -0.109161,0.06249 -0.211329,0.123996 -0.102168,0.0615 -0.268835,0.144836 -0.488545,0.280532 -0.21971,0.135697 -0.490544,0.323197 -0.6765,0.437467 -0.185955,0.114269 -0.290116,0.155934 -0.344787,0.193217 -0.05467,0.03728 -0.05467,0.05812 -0.08477,0.0836 -0.0301,0.02548 -0.09259,0.06714 -0.136415,0.111581 -0.04382,0.04444 -0.06465,0.0861 -0.07949,0.104935 -0.01483,0.01883 -0.03567,0.01883 -0.07241,0.210724 -0.03674,0.191891 -0.0784,0.56689 -0.109357,1.015209 -0.03095,0.448319 -0.05179,0.969153 -0.0466,1.224777 0.0052,0.255624 0.02603,0.255624 0.03145,0.271039 0.0054,0.01541 0.0054,0.03625 0.02083,0.04167 0.01542,0.0054 0.03626,0.0054 0.04167,0.02083 0.0054,0.01541 0.0054,0.03625 0.03225,0.05509 0.02683,0.01883 0.0685,0.03966 0.09675,0.07391 0.02825,0.03425 0.04908,0.07592 0.175857,0.220957 0.126774,0.145041 0.35594,0.395041 0.586157,0.591456 0.230217,0.196415 0.459383,0.342248 0.625227,0.468543 0.165843,0.126294 0.270009,0.23046 0.317092,0.292959 0.04708,0.0625 0.04708,0.08334 0.07392,0.10217 0.02683,0.01883 0.0685,0.03966 0.09575,0.08433 0.02725,0.04467 0.04809,0.107169 0.09275,0.132419 0.04467,0.02525 0.107167,0.02525 0.158097,0.06227 0.05093,0.03702 0.0926,0.09952 0.167548,0.159778 0.07495,0.06026 0.17912,0.122761 0.225321,0.186731 0.0462,0.06397 0.0462,0.126471 0.07304,0.166138 0.02683,0.03967 0.0685,0.0605 0.08333,0.08333 0.01483,0.02283 0.01483,0.04367 0.03025,0.04909 0.01542,0.0054 0.03626,0.0054 0.06751,0.03125 0.03125,0.02584 0.07291,0.0675 0.13541,0.08333 0.0625,0.01584 0.145837,0.01584 0.271836,0.0605 0.126,0.04467 0.292667,0.128001 0.416666,0.166667 0.123998,0.03867 0.207335,0.03867 0.385054,0.06037 0.177719,0.0217 0.448552,0.06337 0.65625,0.08333 0.207697,0.01997 0.353531,0.01997 0.531384,0.04195 0.177852,0.02199 0.386185,0.06365 0.531247,0.08333 0.145063,0.01968 0.2284,0.01968 0.323185,0.04293 0.09479,0.02325 0.198949,0.06491 0.323515,0.09455 0.124566,0.02964 0.2704,0.05047 0.416668,0.09392 0.146267,0.04345 0.292101,0.105953 0.478976,0.145525 0.186875,0.03957 0.416042,0.0604 0.572481,0.105779 0.156439,0.04537 0.239775,0.107876 0.332925,0.134926 0.09315,0.02705 0.197316,0.02705 0.280649,0.0633 0.08333,0.03625 0.145834,0.09875 0.197919,0.125 0.05209,0.02625 0.09375,0.02625 0.156846,0.0617 0.0631,0.03545 0.146436,0.09795 0.218752,0.125001 0.07232,0.02705 0.134817,0.02705 0.271116,0.09308 0.136299,0.06603 0.344633,0.19103 0.511092,0.261363 0.16646,0.07033 0.291461,0.09117 0.437618,0.145304 0.146157,0.05414 0.312824,0.137471 0.479029,0.187246 0.166206,0.04978 0.332872,0.07061 0.437501,0.09375 0.104629,0.02314 0.146293,0.04397 0.24946,0.05139 0.103168,0.0074 0.269834,0.0074 0.58255,0.01807 0.312717,0.01065 0.771051,0.03149 1.552085,0.04167 0.781033,0.01018 1.885199,0.01018 2.947799,0.0207 1.0626,0.01052 2.083434,0.03135 2.770834,0.04167 0.6874,0.01031 1.041566,0.01031 1.257316,-0.01152 0.215749,-0.02183 0.299083,-0.0635 0.458333,-0.08333 0.159251,-0.01983 0.388417,-0.01983 0.530405,-0.04144 0.141988,-0.0216 0.204485,-0.06327 0.322916,-0.08333 0.11843,-0.02006 0.285096,-0.02006 0.405095,-0.06173 0.119998,-0.04167 0.203335,-0.125002 0.479168,-0.166669 0.275833,-0.04167 0.734167,-0.04167 1.015417,-0.04167 0.28125,0 0.385416,0 0.442915,-0.01042 0.0575,-0.01042 0.07834,-0.03126 0.125003,-0.04167 C 40.835,58.45 40.8975,58.45 40.92375,58.444585 c 0.02625,-0.0054 0.02625,-0.02625 0.07292,-0.04167 0.04666,-0.01541 0.130002,-0.01541 0.389902,-0.03668 0.2599,-0.02126 0.697399,-0.06293 1.072562,-0.09406 0.375163,-0.03113 0.687663,-0.05197 0.839267,-0.213323 C 43.45,57.8975 43.45,57.585 43.475835,57.42375 c 0.02584,-0.16125 0.0675,-0.16125 0.09375,-0.171665 0.02625,-0.01042 0.04709,-0.03126 0.09375,-0.04167 C 43.71,57.2 43.7725,57.2 44.178607,57.189448 c 0.406108,-0.01055 1.156108,-0.03139 1.645834,-0.04167 0.489726,-0.01028 0.718892,-0.01028 0.923924,-0.06331 0.205033,-0.05303 0.392531,-0.157193 0.546049,-0.351753 0.153517,-0.194559 0.278517,-0.486225 0.342051,-0.691973 C 47.7,55.835 47.7,55.71 47.79875,55.6425 47.8975,55.575 48.085,55.575 48.416242,55.490655 c 0.331243,-0.08434 0.810409,-0.251012 1.0565,-0.361583 0.246091,-0.110571 0.266925,-0.173073 0.298174,-0.246988 0.03125,-0.07392 0.07292,-0.15725 0.12548,-0.456996 0.05256,-0.299746 0.115063,-0.82058 0.100238,-1.122611 -0.01483,-0.30203 -0.118992,-0.385363 -0.176563,-0.436835 -0.05757,-0.05147 -0.05757,-0.07231 -0.06299,-0.08773 -0.0054,-0.01541 -0.02625,-0.01541 -0.05062,-0.0512 -0.02436,-0.03578 -0.04519,-0.119121 -0.08413,-0.202735 -0.03894,-0.08361 -0.101438,-0.16695 -0.186457,-0.333182 -0.08502,-0.166231 -0.189185,-0.41623 -0.253046,-0.593581 -0.06386,-0.177351 -0.08469,-0.281515 -0.10168,-0.339368 C 49.06417,51.2 49.04333,51.2 49.020498,51.185166 c -0.02283,-0.01483 -0.04366,-0.0565 -0.07192,-0.09075 -0.02825,-0.03425 -0.06992,-0.05508 -0.144779,-0.135742 -0.07486,-0.08066 -0.179029,-0.22649 -0.260416,-0.313499 -0.08139,-0.08701 -0.143889,-0.107843 -0.218415,-0.166855 -0.07453,-0.05901 -0.157859,-0.163179 -0.250512,-0.258026 -0.09265,-0.09485 -0.196819,-0.178181 -0.293056,-0.301571 -0.09624,-0.12339 -0.179572,-0.290057 -0.27267,-0.456882 -0.0931,-0.166825 -0.197265,-0.33349 -0.341474,-0.50131 -0.144209,-0.16782 -0.331709,-0.334486 -0.44657,-0.422509 C 46.60583,48.45 46.56417,48.45 46.490759,48.392909 c -0.07341,-0.05709 -0.177576,-0.182089 -0.259649,-0.266987 -0.08207,-0.0849 -0.14457,-0.126562 -0.190536,-0.187024 -0.04597,-0.06046 -0.0668,-0.143801 -0.0841,-0.19135 C 45.93917,47.7 45.91833,47.7 45.883376,47.612073 c -0.03495,-0.08793 -0.07662,-0.275425 -0.116581,-0.410665 -0.03996,-0.13524 -0.08163,-0.218574 -0.105461,-0.334157 C 45.6375,46.751667 45.6375,46.605833 45.621665,46.512082 45.60583,46.41833 45.56417,46.37667 45.509085,46.263085 45.454,46.1495 45.3915,45.962 45.342415,45.846415 45.29333,45.73083 45.25167,45.68917 45.208002,45.627669 c -0.04367,-0.0615 -0.08534,-0.144835 -0.144951,-0.201447 -0.05962,-0.05661 -0.142954,-0.07745 -0.227168,-0.126 -0.08421,-0.04855 -0.16755,-0.131889 -0.260267,-0.196976 -0.09272,-0.06509 -0.196879,-0.106751 -0.273831,-0.186499 -0.07695,-0.07975 -0.118618,-0.204746 -0.167701,-0.299497 C 44.085,44.5225 44.0225,44.46 43.977834,44.3985 c -0.04467,-0.0615 -0.0655,-0.124001 -0.08333,-0.16125 C 43.87667,44.2 43.85583,44.2 43.812165,44.1435 43.7685,44.087 43.706,43.962 43.666335,43.8935 c -0.03966,-0.0685 -0.0605,-0.0685 -0.08334,-0.08333 -0.02283,-0.01483 -0.04366,-0.0565 -0.155999,-0.172358 C 43.314664,43.521948 43.10633,43.334447 42.971434,43.218986 42.836537,43.103525 42.77404,43.06186 42.71077,43.03718 42.6475,43.0125 42.585,43.0125 42.54875,42.996665 c -0.03625,-0.01584 -0.03625,-0.0575 -0.04167,-0.08333 -0.0054,-0.02583 -0.02625,-0.02583 -0.05866,-0.05132 -0.0324,-0.02548 -0.07407,-0.08798 -0.144798,-0.143418 -0.07073,-0.05544 -0.174892,-0.0971 -0.250843,-0.156019 -0.07595,-0.05891 -0.117619,-0.142247 -0.177235,-0.198859 -0.05962,-0.05661 -0.142954,-0.07745 -0.496979,-0.20171 C 41.024547,42.037751 40.399547,41.808584 39.909895,41.64146 39.420243,41.474336 39.066078,41.37017 38.883039,41.3005 38.7,41.23083 38.7,41.18917 38.681167,41.106835 c -0.01883,-0.08234 -0.0605,-0.207334 -0.08333,-0.354168 -0.02283,-0.146834 -0.02283,-0.3135 -0.02283,-0.417668 0,-0.104169 0,-0.145829 -0.0054,-0.171664 -0.0054,-0.02583 -0.02625,-0.02583 -0.04167,-0.03125 -0.01541,-0.0054 -0.01541,-0.02625 -0.02083,-0.04167 -0.0054,-0.01541 -0.02625,-0.01541 -0.04909,-0.03025 -0.02283,-0.01483 -0.04366,-0.0565 -0.0625,-0.08333 -0.01883,-0.02683 -0.03967,-0.02683 -0.08214,-0.0629 -0.04246,-0.03607 -0.104966,-0.119401 -0.15054,-0.348906 -0.04557,-0.229505 -0.06641,-0.604505 -0.08253,-0.797267 C 38.06417,38.575 38.04333,38.575 37.99125,38.538335 c -0.05208,-0.03666 -0.135417,-0.120002 -0.229168,-0.213753 -0.09375,-0.09375 -0.197915,-0.197915 -0.301049,-0.273419 -0.103135,-0.0755 -0.207296,-0.117168 -0.265414,-0.156251 -0.05812,-0.03908 -0.05812,-0.08074 -0.07395,-0.106577 -0.01584,-0.02583 -0.0575,-0.02583 -0.09075,-0.04067 -0.03325,-0.01483 -0.05408,-0.0565 -0.08234,-0.09075 -0.02825,-0.03425 -0.06992,-0.05508 -0.105166,-0.09375 -0.03525,-0.03867 -0.05608,-0.101168 -0.09398,-0.155405 -0.0379,-0.05424 -0.100395,-0.0959 -0.196069,-0.208563 -0.09567,-0.112661 -0.220674,-0.300161 -0.28702,-0.415515 C 36.2,36.66833 36.2,36.62667 36.174751,36.592419 c -0.02525,-0.03425 -0.08775,-0.05509 -0.125001,-0.08334 -0.03725,-0.02825 -0.03725,-0.06991 -0.04267,-0.09575 -0.0054,-0.02583 -0.02625,-0.02583 -0.04708,-0.03125 -0.02083,-0.0054 -0.04167,-0.02625 -0.0645,-0.0565 -0.02283,-0.03025 -0.04366,-0.07191 -0.103283,-0.126468 -0.05962,-0.05456 -0.163783,-0.117054 -0.268065,-0.161097 -0.104281,-0.04404 -0.208445,-0.06488 -0.266298,-0.08186 C 35.2,35.93917 35.2,35.91833 35.163335,35.902915 35.12667,35.8875 35.043333,35.8875 34.981833,35.880083 c -0.0615,-0.0074 -0.103165,-0.02825 -0.129999,-0.04708 C 34.825,35.81417 34.825,35.79333 34.79875,35.777915 34.7725,35.7625 34.71,35.7625 34.67375,35.757085 c -0.03625,-0.0054 -0.03625,-0.02625 -0.06173,-0.05866 -0.02548,-0.0324 -0.08798,-0.07407 -0.254441,-0.138576 -0.166463,-0.06451 -0.437298,-0.147842 -0.604938,-0.191347 C 33.585,35.325 33.5225,35.325 33.440048,35.297279 c -0.08245,-0.02772 -0.186616,-0.09022 -0.332844,-0.134806 -0.146228,-0.04459 -0.333729,-0.06542 -0.449954,-0.101928 -0.116225,-0.03651 -0.15789,-0.099 -0.207819,-0.144442 -0.04993,-0.04544 -0.112432,-0.06627 -0.155097,-0.0841 -0.04266,-0.01783 -0.0635,-0.03867 -0.104401,-0.07108 -0.0409,-0.0324 -0.103393,-0.07407 -0.156248,-0.09875 -0.05285,-0.02468 -0.09451,-0.02468 -0.138183,-0.06035 -0.04367,-0.03567 -0.08534,-0.119 -0.166668,-0.166667 -0.08133,-0.04767 -0.206334,-0.04767 -0.324448,-0.0173 -0.118114,0.03037 -0.222278,0.09287 -0.521049,0.135217 z"
       id="path28004"
       inkscape:path-effect="#path-effect28006"
       inkscape:original-d="m 31.075,34.575 c -0.49,0.03083 -0.99,0.05167 -1.5,0.0625 -0.0525,0.01 -0.115,0.01 -0.1875,0 -0.01083,0.155833 -0.03167,0.301667 -0.0625,0.4375 -0.01083,0.01 -0.03167,0.01 -0.0625,0 -0.01083,0.0725 -0.03167,0.135 -0.0625,0.1875 -0.03167,0.05167 -0.07333,0.09333 -0.125,0.125 0.01,0.03083 0.01,0.05167 0,0.0625 -0.01083,0.01 -0.03167,0.01 -0.0625,0 0.01,0.03083 0.01,0.05167 0,0.0625 -0.01083,0.01 -0.03167,0.01 -0.0625,0 0.01,0.03083 0.01,0.05167 0,0.0625 -0.03167,0.01 -0.07333,0.01 -0.125,0 0.01,0.155833 0.01,0.301667 0,0.4375 0.01,0.03083 0.01,0.05167 0,0.0625 -0.03167,0.01 -0.07333,0.01 -0.125,0 -0.115,0.155833 -0.24,0.301667 -0.375,0.4375 -0.09417,0.0725 -0.198333,0.135 -0.3125,0.1875 0.01,0.05167 0.01,0.09333 0,0.125 -0.03167,0.01 -0.07333,0.01 -0.125,0 -0.09417,0.114167 -0.198333,0.218333 -0.3125,0.3125 -0.01083,0.01 -0.03167,0.01 -0.0625,0 -0.01083,0.05167 -0.03167,0.09333 -0.0625,0.125 -0.07333,0.05167 -0.156667,0.09333 -0.25,0.125 -0.01083,0.05167 -0.03167,0.09333 -0.0625,0.125 -0.07333,0.05167 -0.156667,0.09333 -0.25,0.125 0.01,0.03083 0.01,0.05167 0,0.0625 -0.01083,0.01 -0.03167,0.01 -0.0625,0 -0.01083,0.05167 -0.03167,0.09333 -0.0625,0.125 -0.0525,0.05167 -0.115,0.09333 -0.1875,0.125 -0.0525,0.114167 -0.115,0.218333 -0.1875,0.3125 -0.01083,0.09333 -0.03167,0.176667 -0.0625,0.25 -0.07333,0.155833 -0.156667,0.301667 -0.25,0.4375 0.01,0.155833 0.01,0.301667 0,0.4375 -0.07333,0.1975 -0.156667,0.385 -0.25,0.5625 0.01,0.0725 0.01,0.135 0,0.1875 -0.01083,0.01 -0.03167,0.01 -0.0625,0 0.01,0.05167 0.01,0.09333 0,0.125 -0.07333,0.09333 -0.156667,0.176667 -0.25,0.25 -0.03167,0.09333 -0.07333,0.176667 -0.125,0.25 -0.03167,0.03083 -0.07333,0.05167 -0.125,0.0625 0.01,0.0725 0.01,0.135 0,0.1875 -0.03167,0.01 -0.07333,0.01 -0.125,0 0.01,0.03083 0.01,0.05167 0,0.0625 -0.198333,0.09333 -0.406667,0.176667 -0.625,0.25 -0.0525,0.01 -0.115,0.01 -0.1875,0 -0.07333,0.0725 -0.156667,0.135 -0.25,0.1875 -0.03167,0.01 -0.07333,0.01 -0.125,0 -0.24,0.135 -0.49,0.26 -0.75,0.375 -0.07333,0.135 -0.156667,0.26 -0.25,0.375 0.01,0.0725 0.01,0.135 0,0.1875 -0.01083,0.01 -0.03167,0.01 -0.0625,0 -0.03167,0.0725 -0.07333,0.135 -0.125,0.1875 -0.09417,0.0725 -0.198333,0.135 -0.3125,0.1875 0.01,0.05167 0.01,0.09333 0,0.125 -0.01083,0.01 -0.03167,0.01 -0.0625,0 -0.01083,0.05167 -0.03167,0.09333 -0.0625,0.125 -0.0525,0.0725 -0.115,0.135 -0.1875,0.1875 0.01,0.05167 0.01,0.09333 0,0.125 -0.0525,0.01 -0.115,0.01 -0.1875,0 0.01,0.05167 0.01,0.09333 0,0.125 -0.01083,0.01 -0.03167,0.01 -0.0625,0 -0.03167,0.0725 -0.07333,0.135 -0.125,0.1875 -0.03167,0.03083 -0.07333,0.05167 -0.125,0.0625 -0.03167,0.0725 -0.07333,0.135 -0.125,0.1875 -0.07333,0.03083 -0.156667,0.05167 -0.25,0.0625 0.01,0.09333 0.01,0.176667 0,0.25 -0.03167,0.135 -0.07333,0.26 -0.125,0.375 0.01,0.0725 0.01,0.135 0,0.1875 -0.0525,0.176667 -0.115,0.343333 -0.1875,0.5 -0.01083,0.1975 -0.03167,0.385 -0.0625,0.5625 -0.03167,0.03083 -0.07333,0.05167 -0.125,0.0625 -0.09417,0.1975 -0.198333,0.385 -0.3125,0.5625 0.01,0.0725 0.01,0.135 0,0.1875 -0.0525,0.1975 -0.115,0.385 -0.1875,0.5625 0.01,0.176667 0.01,0.343333 0,0.5 -0.01083,0.01 -0.03167,0.01 -0.0625,0 0.01,0.03083 0.01,0.05167 0,0.0625 -0.01083,0.01 -0.03167,0.01 -0.0625,0 -0.0525,0.0725 -0.115,0.135 -0.1875,0.1875 -0.03167,0.01 -0.07333,0.01 -0.125,0 -0.07333,0.0725 -0.156667,0.135 -0.25,0.1875 -0.115,0.0725 -0.24,0.135 -0.375,0.1875 -0.01083,0.135 -0.03167,0.26 -0.0625,0.375 -0.01083,0.01 -0.03167,0.01 -0.0625,0 0.01,0.09333 0.01,0.176667 0,0.25 -0.07333,0.135 -0.156667,0.26 -0.25,0.375 -0.01083,0.0725 -0.03167,0.135 -0.0625,0.1875 -0.07333,0.01 -0.156667,0.01 -0.25,0 -0.03167,0.05167 -0.07333,0.09333 -0.125,0.125 -0.156667,0.09333 -0.323333,0.176667 -0.5,0.25 -0.260833,0.1975 -0.531667,0.385 -0.8125,0.5625 -0.09417,0.05167 -0.198333,0.09333 -0.3125,0.125 0.01,0.03083 0.01,0.05167 0,0.0625 -0.0525,0.05167 -0.115,0.09333 -0.1875,0.125 -0.01083,0.05167 -0.03167,0.09333 -0.0625,0.125 -0.01083,0.01 -0.03167,0.01 -0.0625,0 -0.03167,0.385 -0.07333,0.76 -0.125,1.125 -0.01083,0.530833 -0.03167,1.051667 -0.0625,1.5625 0.03083,0.01 0.05167,0.01 0.0625,0 0.01,0.03083 0.01,0.05167 0,0.0625 0.03083,0.01 0.05167,0.01 0.0625,0 0.01,0.03083 0.01,0.05167 0,0.0625 0.05167,0.03083 0.09333,0.05167 0.125,0.0625 0.03083,0.05167 0.05167,0.09333 0.0625,0.125 0.239167,0.26 0.468333,0.51 0.6875,0.75 0.239167,0.155833 0.468333,0.301667 0.6875,0.4375 0.114167,0.114167 0.218333,0.218333 0.3125,0.3125 0.01,0.03083 0.01,0.05167 0,0.0625 0.05167,0.03083 0.09333,0.05167 0.125,0.0625 0.03083,0.0725 0.05167,0.135 0.0625,0.1875 0.0725,0.01 0.135,0.01 0.1875,0 0.05167,0.0725 0.09333,0.135 0.125,0.1875 0.114167,0.0725 0.218333,0.135 0.3125,0.1875 0.01,0.0725 0.01,0.135 0,0.1875 0.05167,0.03083 0.09333,0.05167 0.125,0.0625 0.01,0.03083 0.01,0.05167 0,0.0625 0.03083,0.01 0.05167,0.01 0.0625,0 0.05167,0.05167 0.09333,0.09333 0.125,0.125 0.09333,0.01 0.176667,0.01 0.25,0 0.176667,0.09333 0.343333,0.176667 0.5,0.25 0.09333,0.01 0.176667,0.01 0.25,0 0.280833,0.05167 0.551667,0.09333 0.8125,0.125 0.155833,0.01 0.301667,0.01 0.4375,0 0.218333,0.05167 0.426667,0.09333 0.625,0.125 0.09333,0.01 0.176667,0.01 0.25,0 0.114167,0.05167 0.218333,0.09333 0.3125,0.125 0.155833,0.03083 0.301667,0.05167 0.4375,0.0625 0.155833,0.0725 0.301667,0.135 0.4375,0.1875 0.239167,0.03083 0.468333,0.05167 0.6875,0.0625 0.09333,0.0725 0.176667,0.135 0.25,0.1875 0.114167,0.01 0.218333,0.01 0.3125,0 0.0725,0.0725 0.135,0.135 0.1875,0.1875 0.05167,0.01 0.09333,0.01 0.125,0 0.09333,0.0725 0.176667,0.135 0.25,0.1875 0.0725,0.01 0.135,0.01 0.1875,0 0.218333,0.135 0.426667,0.26 0.625,0.375 0.135,0.03083 0.26,0.05167 0.375,0.0625 0.176667,0.09333 0.343333,0.176667 0.5,0.25 0.176667,0.03083 0.343333,0.05167 0.5,0.0625 0.05167,0.03083 0.09333,0.05167 0.125,0.0625 0.176667,0.01 0.343333,0.01 0.5,0 0.468333,0.03083 0.926667,0.05167 1.375,0.0625 1.114167,0.01 2.218333,0.01 3.3125,0 1.030833,0.03083 2.051667,0.05167 3.0625,0.0625 0.364167,0.01 0.718333,0.01 1.0625,0 0.09333,-0.03167 0.176667,-0.07333 0.25,-0.125 0.239167,0.01 0.468333,0.01 0.6875,0 0.0725,-0.03167 0.135,-0.07333 0.1875,-0.125 0.176667,0.01 0.343333,0.01 0.5,0 0.09333,-0.07333 0.176667,-0.156667 0.25,-0.25 0.468333,0.01 0.926667,0.01 1.375,0 0.114167,0.01 0.218333,0.01 0.3125,0 0.03083,-0.01083 0.05167,-0.03167 0.0625,-0.0625 0.0725,0.01 0.135,0.01 0.1875,0 0.01,-0.01083 0.01,-0.03167 0,-0.0625 0.09333,0.01 0.176667,0.01 0.25,0 0.4475,-0.03167 0.885,-0.07333 1.3125,-0.125 0.3225,-0.01083 0.635,-0.03167 0.9375,-0.0625 0.01,-0.3025 0.01,-0.615 0,-0.9375 0.05167,0.01 0.09333,0.01 0.125,0 0.03083,-0.01083 0.05167,-0.03167 0.0625,-0.0625 0.0725,0.01 0.135,0.01 0.1875,0 0.76,-0.01083 1.51,-0.03167 2.25,-0.0625 0.239167,0.01 0.468333,0.01 0.6875,0 0.1975,-0.09417 0.385,-0.198333 0.5625,-0.3125 0.135,-0.281667 0.26,-0.573333 0.375,-0.875 0.01,-0.115 0.01,-0.24 0,-0.375 0.1975,0.01 0.385,0.01 0.5625,0 0.489167,-0.156667 0.968333,-0.323333 1.4375,-0.5 0.03083,-0.0525 0.05167,-0.115 0.0625,-0.1875 0.05167,-0.07333 0.09333,-0.156667 0.125,-0.25 0.0725,-0.510833 0.135,-1.031667 0.1875,-1.5625 -0.09417,-0.07333 -0.198333,-0.156667 -0.3125,-0.25 0.01,-0.01083 0.01,-0.03167 0,-0.0625 -0.01083,0.01 -0.03167,0.01 -0.0625,0 -0.01083,-0.07333 -0.03167,-0.156667 -0.0625,-0.25 -0.0525,-0.07333 -0.115,-0.156667 -0.1875,-0.25 -0.09417,-0.24 -0.198333,-0.49 -0.3125,-0.75 -0.01083,-0.09417 -0.03167,-0.198333 -0.0625,-0.3125 -0.01083,0.01 -0.03167,0.01 -0.0625,0 C 49.00167,51.16833 48.98083,51.12667 48.95,51.075 48.91833,51.06417 48.87667,51.04333 48.825,51.0125 48.73083,50.876667 48.626667,50.730833 48.5125,50.575 48.46,50.56417 48.3975,50.54333 48.325,50.5125 48.25167,50.41833 48.168333,50.314167 48.075,50.2 c -0.09417,-0.07333 -0.198333,-0.156667 -0.3125,-0.25 -0.07333,-0.156667 -0.156667,-0.323333 -0.25,-0.5 -0.09417,-0.156667 -0.198333,-0.323333 -0.3125,-0.5 -0.1775,-0.156667 -0.365,-0.323333 -0.5625,-0.5 -0.03167,0.01 -0.07333,0.01 -0.125,0 C 46.41833,48.335 46.314167,48.21 46.2,48.075 46.1475,48.04333 46.085,48.00167 46.0125,47.95 46.00167,47.87667 45.98083,47.793333 45.95,47.7 c -0.01083,0.01 -0.03167,0.01 -0.0625,0 -0.03167,-0.1775 -0.07333,-0.365 -0.125,-0.5625 -0.03167,-0.07333 -0.07333,-0.156667 -0.125,-0.25 0.01,-0.135833 0.01,-0.281667 0,-0.4375 -0.03167,-0.03167 -0.07333,-0.07333 -0.125,-0.125 C 45.46,46.1475 45.3975,45.96 45.325,45.7625 45.29333,45.73083 45.25167,45.68917 45.2,45.6375 45.16833,45.56417 45.12667,45.480833 45.075,45.3875 45.00167,45.37667 44.918333,45.35583 44.825,45.325 44.75167,45.25167 44.668333,45.168333 44.575,45.075 44.48083,45.04333 44.376667,45.00167 44.2625,44.95 44.23083,44.835 44.18917,44.71 44.1375,44.575 44.085,44.5225 44.0225,44.46 43.95,44.3875 43.93917,44.335 43.91833,44.2725 43.8875,44.2 c -0.01083,0.01 -0.03167,0.01 -0.0625,0 -0.0525,-0.115 -0.115,-0.24 -0.1875,-0.375 -0.01083,0.01 -0.03167,0.01 -0.0625,0 -0.01083,-0.03167 -0.03167,-0.07333 -0.0625,-0.125 -0.198333,-0.1775 -0.406667,-0.365 -0.625,-0.5625 -0.0525,-0.03167 -0.115,-0.07333 -0.1875,-0.125 -0.0525,0.01 -0.115,0.01 -0.1875,0 0.01,-0.03167 0.01,-0.07333 0,-0.125 -0.01083,0.01 -0.03167,0.01 -0.0625,0 -0.03167,-0.0525 -0.07333,-0.115 -0.125,-0.1875 -0.09417,-0.03167 -0.198333,-0.07333 -0.3125,-0.125 -0.03167,-0.07333 -0.07333,-0.156667 -0.125,-0.25 -0.07333,-0.01083 -0.156667,-0.03167 -0.25,-0.0625 -0.615,-0.219167 -1.24,-0.448333 -1.875,-0.6875 -0.344167,-0.09417 -0.698333,-0.198333 -1.0625,-0.3125 0.01,-0.03167 0.01,-0.07333 0,-0.125 -0.03167,-0.115 -0.07333,-0.24 -0.125,-0.375 0.01,-0.156667 0.01,-0.323333 0,-0.5 0.01,-0.03167 0.01,-0.07333 0,-0.125 -0.01083,0.01 -0.03167,0.01 -0.0625,0 0.01,-0.01083 0.01,-0.03167 0,-0.0625 -0.01083,0.01 -0.03167,0.01 -0.0625,0 -0.01083,-0.03167 -0.03167,-0.07333 -0.0625,-0.125 -0.01083,0.01 -0.03167,0.01 -0.0625,0 -0.0525,-0.07333 -0.115,-0.156667 -0.1875,-0.25 -0.01083,-0.365 -0.03167,-0.74 -0.0625,-1.125 -0.01083,0.01 -0.03167,0.01 -0.0625,0 -0.07333,-0.07333 -0.156667,-0.156667 -0.25,-0.25 -0.09417,-0.09417 -0.198333,-0.198333 -0.3125,-0.3125 -0.09417,-0.03167 -0.198333,-0.07333 -0.3125,-0.125 0.01,-0.03167 0.01,-0.07333 0,-0.125 -0.03167,0.01 -0.07333,0.01 -0.125,0 C 37.00167,37.73083 36.98083,37.68917 36.95,37.6375 36.91833,37.62667 36.87667,37.60583 36.825,37.575 36.81417,37.5225 36.79333,37.46 36.7625,37.3875 36.71,37.35583 36.6475,37.31417 36.575,37.2625 36.46,37.085 36.335,36.8975 36.2,36.7 c 0.01,-0.03167 0.01,-0.07333 0,-0.125 -0.0525,-0.01083 -0.115,-0.03167 -0.1875,-0.0625 0.01,-0.03167 0.01,-0.07333 0,-0.125 -0.01083,0.01 -0.03167,0.01 -0.0625,0 C 35.93917,36.37667 35.91833,36.35583 35.8875,36.325 35.87667,36.29333 35.85583,36.25167 35.825,36.2 35.73083,36.1475 35.626667,36.085 35.5125,36.0125 35.41833,36.00167 35.314167,35.98083 35.2,35.95 c 0.01,-0.01083 0.01,-0.03167 0,-0.0625 -0.07333,0.01 -0.156667,0.01 -0.25,0 -0.03167,-0.01083 -0.07333,-0.03167 -0.125,-0.0625 0.01,-0.01083 0.01,-0.03167 0,-0.0625 -0.0525,0.01 -0.115,0.01 -0.1875,0 0.01,-0.01083 0.01,-0.03167 0,-0.0625 -0.0525,-0.03167 -0.115,-0.07333 -0.1875,-0.125 -0.260833,-0.07333 -0.531667,-0.156667 -0.8125,-0.25 -0.0525,0.01 -0.115,0.01 -0.1875,0 C 33.35583,35.2725 33.251667,35.21 33.1375,35.1375 32.96,35.12667 32.7725,35.10583 32.575,35.075 32.54333,35.0225 32.50167,34.96 32.45,34.8875 32.3975,34.87667 32.335,34.85583 32.2625,34.825 32.25167,34.81417 32.23083,34.79333 32.2,34.7625 c -0.0525,-0.03167 -0.115,-0.07333 -0.1875,-0.125 -0.03167,0.01 -0.07333,0.01 -0.125,0 -0.03167,-0.07333 -0.07333,-0.156667 -0.125,-0.25 -0.115,0.01 -0.24,0.01 -0.375,0 -0.09417,0.0725 -0.198333,0.135 -0.3125,0.1875 z" />
    <path
       style="display:inline;fill:#ffbf1f;fill-opacity:1;stroke-width:2.64567;stroke-linecap:round;stroke-linejoin:round;paint-order:stroke fill markers"
       d="m 36.059068,34.494109 c -0.160079,-0.125254 -0.59758,-0.208587 -0.832901,-0.132257 -0.23532,0.07633 -0.256153,0.305498 -0.26616,0.483073 C 34.95,35.0225 34.95,35.1475 34.98625,35.205 c 0.03625,0.0575 0.09875,0.0575 0.275834,0.0575 0.177083,0 0.468749,0 0.609583,-0.04709 0.140833,-0.04709 0.140833,-0.151248 0.192074,-0.290317 0.05124,-0.139068 0.155407,-0.305734 -0.0047,-0.430989 z"
       id="path30441"
       inkscape:path-effect="#path-effect30443"
       inkscape:original-d="m 36.325,34.45 c -0.4275,-0.07333 -0.865,-0.156667 -1.3125,-0.25 -0.01083,0.239167 -0.03167,0.468333 -0.0625,0.6875 0.01,0.135 0.01,0.26 0,0.375 0.0725,0.01 0.135,0.01 0.1875,0 0.301667,0.01 0.593333,0.01 0.875,0 0.01,-0.09417 0.01,-0.198333 0,-0.3125 0.114167,-0.156667 0.218333,-0.323333 0.3125,-0.5 z" />
    <path
       style="display:inline;fill:#ffbf1f;fill-opacity:1;stroke-width:2.64567;stroke-linecap:round;stroke-linejoin:round;paint-order:stroke fill markers"
       d="m 31.403592,24.250721 c -0.07859,0.125946 -0.07859,0.480112 0.07257,0.662993 0.151164,0.182881 0.44283,0.203714 0.583334,0.197915 C 32.2,25.10583 32.2,25.06417 32.2,24.939168 c 0,-0.125001 0,-0.333335 -0.06792,-0.442502 -0.06792,-0.109166 -0.213751,-0.109166 -0.291667,-0.114581 -0.07792,-0.0054 -0.07792,-0.02625 -0.145159,-0.0897 -0.06724,-0.06344 -0.213073,-0.16761 -0.291666,-0.04166 z"
       id="path30445"
       inkscape:path-effect="#path-effect30447"
       inkscape:original-d="m 31.325,24.0125 c 0.01,0.364167 0.01,0.718333 0,1.0625 0.301667,0.03083 0.593333,0.05167 0.875,0.0625 0.01,-0.03167 0.01,-0.07333 0,-0.125 0.01,-0.198333 0.01,-0.406667 0,-0.625 -0.135833,0.01 -0.281667,0.01 -0.4375,0 0.01,-0.01083 0.01,-0.03167 0,-0.0625 -0.135833,-0.09417 -0.281667,-0.198333 -0.4375,-0.3125 z" />
    <use
       id="use31281"
       inkscape:spray-origin="#path30445"
       xlink:href="#path30445"
       transform="matrix(0.97050743,0.05921524,-0.05921524,0.97050743,-4.5098969,13.696952)" />
    <use
       id="use31283"
       inkscape:spray-origin="#path30445"
       xlink:href="#path30445"
       transform="matrix(1.0541223,-0.04984814,0.04984814,1.0541223,-1.799715,-12.025497)"
       style="display:inline" />
    <use
       id="use31285"
       inkscape:spray-origin="#path30445"
       xlink:href="#path30445"
       transform="matrix(1.0268791,0.04790376,-0.04790376,1.0268791,-12.550174,20.248415)" />
    <use
       id="use31287"
       inkscape:spray-origin="#path30445"
       xlink:href="#path30445"
       transform="matrix(0.98382558,0.01086365,-0.01086365,0.98382558,0.12272438,-14.106599)"
       style="display:inline" />
    <use
       id="use31289"
       inkscape:spray-origin="#path30445"
       xlink:href="#path30445"
       transform="matrix(1.0435993,-0.06335735,0.06335735,1.0435993,-1.7805711,-12.20262)"
       style="display:inline" />
    <use
       id="use31291"
       inkscape:spray-origin="#path30445"
       xlink:href="#path30445"
       transform="matrix(0.96615819,0.06527322,-0.06527322,0.96615819,2.9849812,-6.3565094)"
       style="display:inline" />
    <use
       id="use31293"
       inkscape:spray-origin="#path30445"
       xlink:href="#path30445"
       transform="matrix(-0.7753385,-0.8460359,0.8460359,-0.7753385,37.197821,66.447018)"
       style="display:inline" />
    <use
       id="use31295"
       inkscape:spray-origin="#path30445"
       xlink:href="#path30445"
       transform="matrix(1.067466,-0.28292652,0.28292652,1.067466,-7.7709358,4.1419189)"
       style="display:inline" />
    <use
       id="use31297"
       inkscape:spray-origin="#path30445"
       xlink:href="#path30445"
       transform="matrix(0.57073445,0.84639594,-0.84639594,0.57073445,35.907367,-18.452049)"
       style="display:inline" />
    <use
       id="use31299"
       inkscape:spray-origin="#path30445"
       xlink:href="#path30445"
       transform="matrix(0.58434563,-0.76839009,0.76839009,0.58434563,-5.1049855,42.183464)"
       style="display:inline" />
    <use
       id="use31301"
       inkscape:spray-origin="#path30445"
       xlink:href="#path30445"
       transform="matrix(0.21449189,1.0245241,-1.0245241,0.21449189,50.731702,-27.790843)"
       style="display:inline" />
    <use
       id="use31303"
       inkscape:spray-origin="#path30445"
       xlink:href="#path30445"
       transform="matrix(0.87703138,0.24845785,-0.24845785,0.87703138,10.789251,-17.600835)"
       style="display:inline" />
    <use
       id="use31305"
       inkscape:spray-origin="#path30445"
       xlink:href="#path30445"
       transform="matrix(-0.9261009,-0.18967443,0.18967443,-0.9261009,57.764881,50.516007)" />
    <use
       id="use31307"
       inkscape:spray-origin="#path30445"
       xlink:href="#path30445"
       transform="matrix(1.0273692,-0.01537214,0.01537214,1.0273692,-17.620264,29.595291)" />
    <use
       id="use31309"
       inkscape:spray-origin="#path30445"
       xlink:href="#path30445"
       transform="matrix(0.57327316,0.82145238,-0.82145238,0.57327316,34.301559,-26.712381)" />
    <use
       id="use31311"
       inkscape:spray-origin="#path30445"
       xlink:href="#path30445"
       transform="matrix(0.99537548,-0.25175134,0.25175134,0.99537548,-9.5949762,18.472257)" />
    <use
       id="use31313"
       inkscape:spray-origin="#path30445"
       xlink:href="#path30445"
       transform="matrix(-0.04569863,-1.0311348,1.0311348,-0.04569863,7.2044673,54.199939)"
       style="display:inline" />
    <use
       id="use31315"
       inkscape:spray-origin="#path30445"
       xlink:href="#path30445"
       transform="matrix(0.81467884,-0.78804045,0.78804045,0.81467884,-14.239201,38.783089)"
       style="display:inline" />
    <use
       id="use31317"
       inkscape:spray-origin="#path30445"
       xlink:href="#path30445"
       transform="matrix(0.92166578,0.23087142,-0.23087142,0.92166578,7.8774689,-15.634347)"
       style="display:inline" />
    <use
       id="use31319"
       inkscape:spray-origin="#path30445"
       xlink:href="#path30445"
       transform="matrix(-0.77029806,-0.55691614,0.55691614,-0.77029806,42.128794,62.403368)"
       style="display:inline" />
    <use
       id="use31321"
       inkscape:spray-origin="#path30445"
       xlink:href="#path30445"
       transform="matrix(0.8857486,0.30984349,-0.30984349,0.8857486,11.01816,-14.849734)"
       style="display:inline" />
    <use
       id="use31323"
       inkscape:spray-origin="#path30445"
       xlink:href="#path30445"
       transform="matrix(0.31096823,1.0280737,-1.0280737,0.31096823,48.413736,-21.976867)"
       style="display:inline" />
    <use
       id="use31325"
       inkscape:spray-origin="#path30445"
       xlink:href="#path30445"
       transform="matrix(-0.46817543,-1.0364145,1.0364145,-0.46817543,19.424191,75.241851)"
       style="display:inline" />
    <use
       id="use31327"
       inkscape:spray-origin="#path30445"
       xlink:href="#path30445"
       transform="matrix(-0.8762184,0.06017881,-0.06017881,-0.8762184,60.881242,50.660219)" />
    <use
       id="use31329"
       inkscape:spray-origin="#path30445"
       xlink:href="#path30445"
       transform="matrix(0.56298563,-0.90904596,0.90904596,0.56298563,-6.6016198,50.136439)"
       style="display:inline" />
    <use
       id="use31331"
       inkscape:spray-origin="#path30445"
       xlink:href="#path30445"
       transform="matrix(-0.57312445,0.97036267,-0.97036267,-0.57312445,73.685918,12.253595)"
       style="display:inline" />
    <use
       id="use31333"
       inkscape:spray-origin="#path30445"
       xlink:href="#path30445"
       transform="matrix(0.5404874,-0.69969157,0.69969157,0.5404874,-3.4303424,35.542769)"
       style="display:inline" />
    <use
       id="use31335"
       inkscape:spray-origin="#path30445"
       xlink:href="#path30445"
       transform="matrix(-0.58384199,-0.93994327,0.93994327,-0.58384199,26.425776,74.19395)"
       style="display:inline" />
    <use
       id="use31337"
       inkscape:spray-origin="#path30445"
       xlink:href="#path30445"
       transform="matrix(0.71883058,0.74059254,-0.74059254,0.71883058,28.16341,-15.326382)"
       style="display:inline" />
    <use
       id="use31339"
       inkscape:spray-origin="#path30445"
       xlink:href="#path30445"
       transform="matrix(-0.50519921,-0.99922173,0.99922173,-0.50519921,23.427032,51.132683)"
       style="display:inline" />
    <use
       id="use31341"
       inkscape:spray-origin="#path30445"
       xlink:href="#path30445"
       transform="matrix(0.12242828,0.98366961,-0.98366961,0.12242828,51.617639,-28.070912)"
       style="display:inline" />
    <use
       id="use31343"
       inkscape:spray-origin="#path30445"
       xlink:href="#path30445"
       transform="matrix(-0.80927052,-0.59282519,0.59282519,-0.80927052,48.971913,75.558072)" />
    <use
       id="use31345"
       inkscape:spray-origin="#path30445"
       xlink:href="#path30445"
       transform="matrix(-0.97280251,0.1856091,-0.1856091,-0.97280251,68.230725,26.443832)" />
    <use
       id="use31349"
       inkscape:spray-origin="#path30445"
       xlink:href="#path30445"
       transform="matrix(0.72125924,-0.7019038,0.7019038,0.72125924,-6.5832594,20.042398)"
       style="display:inline" />
    <use
       id="use31353"
       inkscape:spray-origin="#path30445"
       xlink:href="#path30445"
       transform="matrix(0.39198705,0.92241227,-0.92241227,0.39198705,40.209411,-5.1982674)" />
    <use
       id="use31355"
       inkscape:spray-origin="#path30445"
       xlink:href="#path30445"
       transform="matrix(0.84208633,-0.53481978,0.53481978,0.84208633,-7.5555079,29.824626)" />
    <use
       id="use31357"
       inkscape:spray-origin="#path30445"
       xlink:href="#path30445"
       transform="matrix(0.91278991,0.42652152,-0.42652152,0.91278991,-3.7276291,19.162999)"
       style="display:inline" />
    <use
       id="use31359"
       inkscape:spray-origin="#path30445"
       xlink:href="#path30445"
       transform="matrix(0.61221021,-0.80134809,0.80134809,0.61221021,-6.4563153,25.269069)" />
    <use
       id="use31361"
       inkscape:spray-origin="#path30445"
       xlink:href="#path30445"
       transform="matrix(0.91737894,0.38836012,-0.38836012,0.91737894,11.890322,-12.25826)"
       style="display:inline" />
    <use
       id="use31363"
       inkscape:spray-origin="#path30445"
       xlink:href="#path30445"
       transform="matrix(0.90364344,-0.44388704,0.44388704,0.90364344,-8.4573938,1.2450765)"
       style="display:inline" />
    <use
       id="use31365"
       inkscape:spray-origin="#path30445"
       xlink:href="#path30445"
       transform="matrix(0.81513141,-0.58499095,0.58499095,0.81513141,-8.2152246,3.9619511)"
       style="display:inline" />
    <use
       id="use31367"
       inkscape:spray-origin="#path30445"
       xlink:href="#path30445"
       transform="matrix(0.26584348,0.95705002,-0.95705002,0.26584348,45.999578,-29.789815)" />
    <use
       id="use31369"
       inkscape:spray-origin="#path30445"
       xlink:href="#path30445"
       transform="matrix(0.78257561,-0.63471204,0.63471204,0.78257561,-8.8307586,9.1899473)" />
    <use
       id="use31371"
       inkscape:spray-origin="#path30445"
       xlink:href="#path30445"
       transform="matrix(0.98276324,-0.17025564,0.17025564,0.98276324,-3.8948623,-6.6696818)" />
    <use
       id="use31373"
       inkscape:spray-origin="#path30445"
       xlink:href="#path30445"
       transform="matrix(0.73146589,0.6806102,-0.6806102,0.73146589,45.652177,15.525786)"
       style="display:inline" />
    <use
       id="use31375"
       inkscape:spray-origin="#path30445"
       xlink:href="#path30445"
       transform="matrix(0.49746413,0.87593982,-0.87593982,0.49746413,44.587328,1.4148203)" />
    <use
       id="use31377"
       inkscape:spray-origin="#path30445"
       xlink:href="#path30445"
       transform="matrix(1.0054315,-0.00374776,0.00374776,1.0054315,-1.0451917,-5.8345714)"
       style="display:inline" />
    <use
       id="use31379"
       inkscape:spray-origin="#path30445"
       xlink:href="#path30445"
       transform="matrix(0.48427705,-0.8649664,0.8649664,0.48427705,-4.8063901,37.18682)"
       style="display:inline" />
    <use
       id="use31381"
       inkscape:spray-origin="#path30445"
       xlink:href="#path30445"
       transform="matrix(0.08430056,-0.99633309,0.99633309,0.08430056,4.5235218,53.483951)"
       style="display:inline" />
    <use
       id="use31383"
       inkscape:spray-origin="#path30445"
       xlink:href="#path30445"
       transform="matrix(0.50507666,0.87251853,-0.87251853,0.50507666,36.477301,-23.133708)"
       style="display:inline" />
    <use
       id="use31387"
       inkscape:spray-origin="#path30445"
       xlink:href="#path30445"
       transform="matrix(-0.44135913,-0.90452076,0.90452076,-0.44135913,18.649953,75.455774)" />
    <use
       id="use31391"
       inkscape:spray-origin="#path30445"
       xlink:href="#path30445"
       transform="matrix(-0.30660255,0.95345564,-0.95345564,-0.30660255,65.497499,7.7070535)" />
    <use
       id="use31393"
       inkscape:spray-origin="#path30445"
       xlink:href="#path30445"
       transform="matrix(0.15317095,0.98502123,-0.98502123,0.15317095,51.582124,-9.4324203)"
       style="display:inline" />
    <use
       id="use31395"
       inkscape:spray-origin="#path30445"
       xlink:href="#path30445"
       transform="matrix(1.0008108,0.01043174,-0.01043174,1.0008108,0.04773131,2.3952698)" />
    <use
       id="use31397"
       inkscape:spray-origin="#path30445"
       xlink:href="#path30445"
       transform="matrix(0.50886651,-0.85986168,0.85986168,0.50886651,-4.7907736,43.126628)" />
    <use
       id="use31399"
       inkscape:spray-origin="#path30445"
       xlink:href="#path30445"
       transform="matrix(-0.85753867,0.49527497,-0.49527497,-0.85753867,72.448078,35.335809)" />
    <use
       id="use31401"
       inkscape:spray-origin="#path30445"
       xlink:href="#path30445"
       transform="matrix(-0.05134243,-0.99601041,0.99601041,-0.05134243,27.366738,81.533004)"
       style="display:inline" />
    <use
       id="use31403"
       inkscape:spray-origin="#path30445"
       xlink:href="#path30445"
       transform="matrix(0.46880187,-0.88391657,0.88391657,0.46880187,-4.4196006,33.88774)" />
    <use
       id="use31405"
       inkscape:spray-origin="#path30445"
       xlink:href="#path30445"
       transform="matrix(0.51553972,0.84797145,-0.84797145,0.51553972,38.253652,-16.882218)"
       style="display:inline" />
    <use
       id="use31407"
       inkscape:spray-origin="#path30445"
       xlink:href="#path30445"
       transform="matrix(-0.11915948,0.99005631,-0.99005631,-0.11915948,59.719414,4.6577096)"
       style="display:inline" />
    <use
       id="use31409"
       inkscape:spray-origin="#path30445"
       xlink:href="#path30445"
       transform="matrix(0.98800252,-0.16100028,0.16100028,0.98800252,-3.0538756,8.4234127)" />
    <use
       id="use31411"
       inkscape:spray-origin="#path30445"
       xlink:href="#path30445"
       transform="matrix(-0.47592398,-0.87387739,0.87387739,-0.47592398,25.838889,63.021296)" />
    <use
       id="use31413"
       inkscape:spray-origin="#path30445"
       xlink:href="#path30445"
       transform="matrix(-0.76875443,-0.64725119,0.64725119,-0.76875443,40.360044,55.555959)"
       style="display:inline" />
    <use
       id="use31415"
       inkscape:spray-origin="#path30445"
       xlink:href="#path30445"
       transform="matrix(0.4031803,-0.9241427,0.9241427,0.4031803,-1.5216321,52.892568)" />
    <path
       style="fill:#b38100;fill-opacity:1;stroke-width:2.64567;stroke-linecap:round;stroke-linejoin:round;paint-order:stroke fill markers"
       d="m 34.06494,36.3881 c 0.281643,0.792228 1.114976,2.083895 1.729538,3.063077 0.614563,0.979181 1.010388,1.645835 1.489765,2.197764 0.479376,0.551929 1.041865,0.989421 1.072476,1.593288 0.03061,0.603867 -0.46938,1.374685 -0.531503,2.146003 -0.06212,0.771318 0.312861,1.542121 0.625353,2.198386 0.312492,0.656265 0.562487,1.19792 0.374687,1.801508 -0.1878,0.603588 -0.812787,1.27024 -0.833248,2.093739 -0.02046,0.823499 0.562849,1.802627 0.635356,2.583383 0.07251,0.780757 -0.364984,1.364079 -0.760841,1.937048 -0.395857,0.572969 -0.750016,1.135458 -1.562012,1.489449 -0.811996,0.353991 -2.082778,0.499818 -3.947267,0.364546 -1.864489,-0.135273 -4.322774,-0.551932 -6.802056,-0.708297 -2.479281,-0.156365 -4.979231,-0.0522 -6.646169,-1.207829 -1.666938,-1.155629 -2.500255,-3.57225 -2.760799,-3.749375 -0.260544,-0.177125 0.05195,1.885336 0.760812,3.176729 0.708861,1.291393 1.813005,1.812215 3.667185,2.405839 1.854181,0.593624 4.458295,1.260277 7.927022,1.697653 3.468727,0.437377 7.801887,0.645702 11.03087,0.353902 3.228984,-0.291801 5.353899,-1.083436 7.385124,-1.948035 2.031224,-0.864599 3.968646,-1.802061 4.395964,-2.957682 0.427317,-1.155621 -0.655995,-2.530593 -1.666549,-4.134731 -1.010554,-1.604137 -1.948035,-3.437434 -2.979026,-4.729322 -1.030991,-1.291889 -2.155968,-2.041874 -3.322666,-2.875178 -1.166698,-0.833303 -2.375006,-1.749952 -3.146214,-2.739371 -0.771207,-0.989419 -1.104533,-2.051898 -2.010388,-2.968859 -0.905854,-0.91696 -2.384991,-1.687778 -3.26061,-1.927651 -0.875618,-0.239873 -1.146446,0.05179 -0.864804,0.844016 z"
       id="path33367"
       sodipodi:nodetypes="cccccccccccccccccccccccccccc"
       inkscape:original-d="m 33.5125,35.8875 c 0.834333,1.292667 1.667667,2.584333 2.5,3.875 0.396841,0.66768 0.792667,1.334333 1.1875,2 0.563511,0.438509 1.126,0.876 1.6875,1.3125 -0.49901,0.771849 -0.999,1.542667 -1.5,2.3125 0.376007,0.771848 0.750992,1.542651 1.125,2.3125 0.251005,0.542678 0.501,1.084333 0.75,1.625 -0.624013,0.66768 -1.249,1.334333 -1.875,2 0.584345,0.980186 1.167655,1.959314 1.75,2.9375 -0.436509,0.584345 -0.874,1.167667 -1.3125,1.75 -0.353167,0.5635 -0.707326,1.125989 -1.0625,1.6875 -1.269859,0.146836 -2.540641,0.292664 -3.8125,0.4375 -2.457382,-0.415675 -4.915667,-0.832333 -7.375,-1.25 -2.49905,0.105169 -4.999,0.209333 -7.5,0.3125 -0.832333,-2.415666 -1.665651,-4.832287 -2.5,-7.25 0.313506,2.063539 0.626,4.126 0.9375,6.1875 1.105189,0.521844 2.209333,1.042667 3.3125,1.5625 2.605219,0.66768 5.209333,1.334333 7.8125,2 4.33442,0.209337 8.66758,0.417663 13,0.625 2.126042,-0.790682 4.250957,-1.582317 6.375,-2.375 1.938539,-0.936519 3.875961,-1.873981 5.8125,-2.8125 -1.082355,-1.374028 -2.165667,-2.749 -3.25,-4.125 -0.936519,-1.83237 -1.874,-3.665667 -2.8125,-5.5 -1.124023,-0.749015 -2.249,-1.499 -3.375,-2.25 -1.207358,-0.915685 -2.415667,-1.832333 -3.625,-2.75 -0.33234,-1.061521 -0.665667,-2.124 -1,-3.1875 -1.478196,-0.769849 -2.957333,-1.540667 -4.4375,-2.3125 -0.269839,0.292672 -0.540667,0.584333 -0.8125,0.875 z"
       inkscape:path-effect="#path-effect33369" />
    <use
       id="use31347"
       inkscape:spray-origin="#path30445"
       xlink:href="#path30445"
       transform="matrix(-0.97834456,0.19448827,-0.19448827,-0.97834456,77.299867,62.155246)" />
    <use
       id="use31351"
       inkscape:spray-origin="#path30445"
       xlink:href="#path30445"
       transform="matrix(1.0084715,-0.00303514,0.00303514,1.0084715,8.5975723,25.533525)"
       style="display:inline" />
    <use
       id="use31385"
       inkscape:spray-origin="#path30445"
       xlink:href="#path30445"
       transform="matrix(0.8778136,-0.48411728,0.48411728,0.8778136,12.032613,50.426976)"
       style="display:inline" />
    <use
       id="use31389"
       inkscape:spray-origin="#path30445"
       xlink:href="#path30445"
       transform="matrix(0.44313439,0.8944601,-0.8944601,0.44313439,55.411549,13.714823)" />
  </g>
</svg>
