<?xml version="1.0" encoding="UTF-8" standalone="no"?>
<!-- Created with Inkscape (http://www.inkscape.org/) -->

<svg
   width="64.0px"
   height="64.0px"
   viewBox="0 0 64.0 64.0"
   version="1.1"
   id="SVGRoot"
   sodipodi:docname="machines_icon.svg"
   inkscape:version="1.2.2 (b0a8486541, 2022-12-01)"
   inkscape:export-filename="machines_icon.png"
   inkscape:export-xdpi="192"
   inkscape:export-ydpi="192"
   xmlns:inkscape="http://www.inkscape.org/namespaces/inkscape"
   xmlns:sodipodi="http://sodipodi.sourceforge.net/DTD/sodipodi-0.dtd"
   xmlns="http://www.w3.org/2000/svg"
   xmlns:svg="http://www.w3.org/2000/svg">
  <sodipodi:namedview
     id="namedview326"
     pagecolor="#ffffff"
     bordercolor="#000000"
     borderopacity="0.25"
     inkscape:showpageshadow="2"
     inkscape:pageopacity="0.0"
     inkscape:pagecheckerboard="0"
     inkscape:deskcolor="#d1d1d1"
     inkscape:document-units="px"
     showgrid="true"
     inkscape:zoom="14.638496"
     inkscape:cx="27.120272"
     inkscape:cy="28.99888"
     inkscape:window-width="2560"
     inkscape:window-height="1332"
     inkscape:window-x="0"
     inkscape:window-y="32"
     inkscape:window-maximized="1"
     inkscape:current-layer="layer1">
    <inkscape:grid
       type="xygrid"
       id="grid449" />
  </sodipodi:namedview>
  <defs
     id="defs321">
    <inkscape:path-effect
       effect="bspline"
       id="path-effect4264"
       is_visible="true"
       lpeversion="1"
       weight="33.333333"
       steps="2"
       helper_size="0"
       apply_no_weight="true"
       apply_with_weight="true"
       only_selected="false" />
    <inkscape:path-effect
       effect="bspline"
       id="path-effect4260"
       is_visible="true"
       lpeversion="1"
       weight="33.333333"
       steps="2"
       helper_size="0"
       apply_no_weight="true"
       apply_with_weight="true"
       only_selected="false" />
    <inkscape:path-effect
       effect="bspline"
       id="path-effect2734"
       is_visible="true"
       lpeversion="1"
       weight="33.333333"
       steps="2"
       helper_size="0"
       apply_no_weight="true"
       apply_with_weight="true"
       only_selected="false" />
    <inkscape:path-effect
       effect="bspline"
       id="path-effect801"
       is_visible="true"
       lpeversion="1"
       weight="33.333333"
       steps="2"
       helper_size="0"
       apply_no_weight="true"
       apply_with_weight="true"
       only_selected="false" />
    <inkscape:path-effect
       effect="bspline"
       id="path-effect797"
       is_visible="true"
       lpeversion="1"
       weight="33.333333"
       steps="2"
       helper_size="0"
       apply_no_weight="true"
       apply_with_weight="true"
       only_selected="false" />
    <inkscape:path-effect
       effect="bspline"
       id="path-effect4852"
       is_visible="true"
       lpeversion="1"
       weight="33.333333"
       steps="2"
       helper_size="0"
       apply_no_weight="true"
       apply_with_weight="true"
       only_selected="false" />
    <inkscape:path-effect
       effect="bspline"
       id="path-effect4848"
       is_visible="true"
       lpeversion="1"
       weight="33.333333"
       steps="2"
       helper_size="0"
       apply_no_weight="true"
       apply_with_weight="true"
       only_selected="false" />
    <inkscape:path-effect
       effect="bspline"
       id="path-effect4844"
       is_visible="true"
       lpeversion="1"
       weight="33.333333"
       steps="2"
       helper_size="0"
       apply_no_weight="true"
       apply_with_weight="true"
       only_selected="false" />
    <inkscape:path-effect
       effect="bspline"
       id="path-effect4840"
       is_visible="true"
       lpeversion="1"
       weight="33.333333"
       steps="2"
       helper_size="0"
       apply_no_weight="true"
       apply_with_weight="true"
       only_selected="false" />
    <inkscape:path-effect
       effect="bspline"
       id="path-effect4521"
       is_visible="true"
       lpeversion="1"
       weight="33.333333"
       steps="2"
       helper_size="0"
       apply_no_weight="true"
       apply_with_weight="true"
       only_selected="false" />
    <inkscape:path-effect
       effect="bspline"
       id="path-effect4517"
       is_visible="true"
       lpeversion="1"
       weight="33.333333"
       steps="2"
       helper_size="0"
       apply_no_weight="true"
       apply_with_weight="true"
       only_selected="false" />
    <inkscape:path-effect
       effect="bspline"
       id="path-effect4505"
       is_visible="true"
       lpeversion="1"
       weight="33.333333"
       steps="2"
       helper_size="0"
       apply_no_weight="true"
       apply_with_weight="true"
       only_selected="false" />
    <inkscape:path-effect
       effect="bspline"
       id="path-effect4123"
       is_visible="true"
       lpeversion="1"
       weight="33.333333"
       steps="2"
       helper_size="0"
       apply_no_weight="true"
       apply_with_weight="true"
       only_selected="false" />
    <inkscape:path-effect
       effect="bspline"
       id="path-effect3073"
       is_visible="true"
       lpeversion="1"
       weight="33.333333"
       steps="2"
       helper_size="0"
       apply_no_weight="true"
       apply_with_weight="true"
       only_selected="false" />
    <inkscape:path-effect
       effect="bspline"
       id="path-effect3069"
       is_visible="true"
       lpeversion="1"
       weight="33.333333"
       steps="2"
       helper_size="0"
       apply_no_weight="true"
       apply_with_weight="true"
       only_selected="false" />
    <inkscape:path-effect
       effect="bspline"
       id="path-effect3065"
       is_visible="true"
       lpeversion="1"
       weight="33.333333"
       steps="2"
       helper_size="0"
       apply_no_weight="true"
       apply_with_weight="true"
       only_selected="false" />
    <inkscape:path-effect
       effect="bspline"
       id="path-effect3061"
       is_visible="true"
       lpeversion="1"
       weight="33.333333"
       steps="2"
       helper_size="0"
       apply_no_weight="true"
       apply_with_weight="true"
       only_selected="false" />
    <inkscape:path-effect
       effect="bspline"
       id="path-effect3057"
       is_visible="true"
       lpeversion="1"
       weight="33.333333"
       steps="2"
       helper_size="0"
       apply_no_weight="true"
       apply_with_weight="true"
       only_selected="false" />
    <inkscape:path-effect
       effect="bspline"
       id="path-effect3053"
       is_visible="true"
       lpeversion="1"
       weight="33.333333"
       steps="2"
       helper_size="0"
       apply_no_weight="true"
       apply_with_weight="true"
       only_selected="false" />
    <inkscape:path-effect
       effect="bspline"
       id="path-effect3049"
       is_visible="true"
       lpeversion="1"
       weight="33.333333"
       steps="2"
       helper_size="0"
       apply_no_weight="true"
       apply_with_weight="true"
       only_selected="false" />
    <inkscape:path-effect
       effect="bspline"
       id="path-effect3045"
       is_visible="true"
       lpeversion="1"
       weight="33.333333"
       steps="2"
       helper_size="0"
       apply_no_weight="true"
       apply_with_weight="true"
       only_selected="false" />
    <inkscape:path-effect
       effect="bspline"
       id="path-effect3041"
       is_visible="true"
       lpeversion="1"
       weight="33.333333"
       steps="2"
       helper_size="0"
       apply_no_weight="true"
       apply_with_weight="true"
       only_selected="false" />
    <inkscape:path-effect
       effect="bspline"
       id="path-effect3037"
       is_visible="true"
       lpeversion="1"
       weight="33.333333"
       steps="2"
       helper_size="0"
       apply_no_weight="true"
       apply_with_weight="true"
       only_selected="false" />
    <inkscape:path-effect
       effect="bspline"
       id="path-effect3033"
       is_visible="true"
       lpeversion="1"
       weight="33.333333"
       steps="2"
       helper_size="0"
       apply_no_weight="true"
       apply_with_weight="true"
       only_selected="false" />
  </defs>
  <g
     inkscape:label="Layer 1"
     inkscape:groupmode="layer"
     id="layer1">
    <rect
       style="fill:#ffffff;stroke-width:2.64567;stroke-linecap:round;stroke-linejoin:round;paint-order:stroke fill markers;fill-opacity:1;stroke:#000000;stroke-opacity:1"
       id="rect508"
       width="60"
       height="60"
       x="2"
       y="2"
       ry="5"
       inkscape:export-filename="fuels_icon.png"
       inkscape:export-xdpi="196.15083"
       inkscape:export-ydpi="196.15083" />
    <rect
       style="fill:#000000;fill-opacity:1;stroke-width:2.64567;stroke-linecap:round;stroke-linejoin:round;paint-order:stroke fill markers"
       id="rect602"
       width="50"
       height="50"
       x="7"
       y="7"
       ry="5" />
    <path
       style="fill:#ffffff;fill-opacity:1;stroke:#000000;stroke-width:2.64567;stroke-linecap:round;stroke-linejoin:round;stroke-opacity:1;paint-order:stroke fill markers"
       id="path1581"
       sodipodi:type="arc"
       sodipodi:cx="15.643683"
       sodipodi:cy="47.819118"
       sodipodi:rx="6.2847986"
       sodipodi:ry="6.0115466"
       sodipodi:start="0"
       sodipodi:end="0.011515806"
       sodipodi:open="true"
       sodipodi:arc-type="arc"
       d="m 21.928482,47.819118 a 6.2847986,6.0115466 0 0 1 -4.17e-4,0.06923" />
    <path
       style="fill:#000000;fill-opacity:1;stroke:#ffffff;stroke-width:0;stroke-linecap:round;stroke-linejoin:round;stroke-dasharray:none;stroke-opacity:1;paint-order:stroke fill markers"
       d="m 42.012513,14.612603 c 0,-0.143012 0,-0.439035 0.03415,-0.626201 0.03416,-0.187167 0.102471,-0.255483 0.153012,-0.289639 0.05054,-0.03416 0.07331,-0.03416 0.09008,-0.05493 0.01677,-0.02077 0.03954,-0.06631 0.145007,-0.137625 0.105469,-0.07131 0.287639,-0.162399 0.436236,-0.230746 0.148598,-0.06835 0.262452,-0.113889 0.316794,-0.142011 0.05434,-0.02812 0.05434,-0.05089 0.112739,-0.102315 0.0584,-0.05142 0.172254,-0.119738 0.250481,-0.175782 0.07823,-0.05604 0.123769,-0.101586 0.146541,-0.06243 0.02277,0.03916 0.02277,0.15301 0.01085,0.30033 -0.01192,0.147319 -0.03469,0.329487 -0.0747,0.416264 -0.04,0.08678 -0.108318,0.08678 -0.159859,0.123931 -0.05154,0.03716 -0.07431,0.105471 -0.115852,0.147012 -0.04154,0.04154 -0.109856,0.06431 -0.147012,0.127239 -0.03716,0.06293 -0.03716,0.154011 -0.10247,0.216324 -0.06531,0.06231 -0.201939,0.107855 -0.273252,0.159396 -0.07131,0.05154 -0.07131,0.09708 -0.08908,0.114856 -0.01777,0.01777 -0.06331,0.01777 -0.103468,0.04254 -0.04016,0.02477 -0.06293,0.07031 -0.102468,0.09108 -0.03954,0.02077 -0.107856,0.02077 -0.202469,0.05405 -0.09461,0.03327 -0.208469,0.101587 -0.266867,0.136626 -0.0584,0.03504 -0.0584,0.03504 -0.0584,-0.107973 z"
       id="path4515"
       inkscape:path-effect="#path-effect4517"
       inkscape:original-d="m 42.012513,14.755614 c 0.01,-0.286023 0.01,-0.582046 0,-0.888069 0.07831,-0.05831 0.146626,-0.126626 0.204939,-0.204939 0.03277,0.01 0.05554,0.01 0.06831,0 0.03277,-0.03554 0.05554,-0.08108 0.06831,-0.136626 0.192168,-0.08108 0.374336,-0.172168 0.546504,-0.273252 0.123855,-0.03554 0.23771,-0.08108 0.341565,-0.136626 0.01,-0.01277 0.01,-0.03554 0,-0.06831 0.123855,-0.05831 0.23771,-0.126626 0.341565,-0.204939 0.05554,-0.03554 0.101084,-0.08108 0.136626,-0.136626 0.01,0.123855 0.01,0.23771 0,0.341565 -0.01277,0.192169 -0.03554,0.374337 -0.06831,0.546505 -0.05831,0.01 -0.126626,0.01 -0.204939,0 -0.01277,0.07831 -0.03554,0.146626 -0.06831,0.204939 -0.05831,0.03277 -0.126626,0.05554 -0.204939,0.06831 0.01,0.101084 0.01,0.192168 0,0.273252 -0.126626,0.05554 -0.263252,0.101084 -0.409878,0.136626 0.01,0.05554 0.01,0.101084 0,0.136626 -0.03554,0.01 -0.08108,0.01 -0.136626,0 -0.01277,0.05554 -0.03554,0.101084 -0.06831,0.136626 -0.05831,0.01 -0.126626,0.01 -0.204939,0 -0.103855,0.07831 -0.21771,0.146626 -0.341565,0.204939 z" />
    <g
       inkscape:label="Rendered Gears"
       transform="matrix(0.17211052,0,0,0.17211052,24.741099,34.79824)"
       id="g5024"
       style="fill:#000000;fill-opacity:1;stroke:#ffffff;stroke-opacity:1">
      <path
         style="fill:#000000;fill-opacity:1;stroke:#ffffff;stroke-width:1;stroke-opacity:1"
         d="m 38.0131,-6.09061 8.7814,-1.40699 0.7355,-0.03041 10.0722,3.4414 V 4.08661 L 47.53,7.52801 46.7945,7.4976 38.0131,6.09061 34.3332,17.4161 l 7.9313,4.0233 0.6129,0.4077 6.1258,8.7045 -4.8041,6.6122 -10.1714,-3.1361 -0.5771,-0.4569 -6.2773,-6.2998 -9.6341,6.9995 4.0517,7.9168 0.2562,0.6901 -0.1605,10.6427 -7.7732,2.5256 L 7.52801,47.53 7.32965,46.8211 5.95418,38.0347 H -5.95418 l -1.37547,8.7864 -0.19836,0.7089 -6.38539,8.5157 -7.7732,-2.5256 -0.1605,-10.6427 0.2562,-0.6901 4.0517,-7.9168 -9.6341,-6.9995 -6.2773,6.2998 -0.5771,0.4569 -10.1714,3.1361 -4.8041,-6.6122 6.1258,-8.7045 0.6129,-0.4077 7.9313,-4.0233 -3.6799,-11.32549 -8.7814,1.40699 -0.7355,0.03041 -10.0722,-3.4414 v -8.17322 l 10.0722,-3.4414 0.7355,0.03041 8.7814,1.40699 3.6799,-11.32549 -7.9313,-4.0233 -0.6129,-0.4077 -6.1258,-8.7045 4.8041,-6.6122 10.1714,3.1361 0.5771,0.4569 6.2773,6.2998 9.6341,-6.9995 -4.0517,-7.9168 -0.2562,-0.6901 0.1605,-10.6427 7.7732,-2.5256 6.38539,8.5157 0.19836,0.7089 1.37547,8.7864 H 5.95418 l 1.37547,-8.7864 0.19836,-0.7089 6.38539,-8.5157 7.7732,2.5256 0.1605,10.6427 -0.2562,0.6901 -4.0517,7.9168 9.6341,6.9995 6.2773,-6.2998 0.5771,-0.4569 10.1714,-3.1361 4.8041,6.6122 -6.1258,8.7045 -0.6129,0.4077 -7.9313,4.0233 z"
         id="path5020" />
      <circle
         style="fill:#000000;fill-opacity:1;stroke:#ffffff;stroke-width:1;stroke-opacity:1"
         id="path5022"
         cx="0"
         cy="0"
         r="24.188976" />
    </g>
    <g
       inkscape:label="Rendered Gears"
       transform="matrix(0.16505463,0,0,0.16505463,35.127923,22.568735)"
       id="g9191"
       style="fill:#000000;fill-opacity:1;stroke:#ffffff;stroke-opacity:1">
      <path
         style="fill:#000000;fill-opacity:1;stroke:#ffffff;stroke-width:1;stroke-opacity:1"
         d="m 16.316645,-23.821063 5.108413,-7.457865 0.387414,-0.443407 9.874871,-4.494759 5.360396,5.505034 -4.756023,9.751727 -0.453563,0.375473 -7.591202,4.908083 4.134649,10.3703576 8.885706,-1.6613077 0.587549,-0.03963 10.160884,3.8043369 -0.102274,7.6830245 -10.258551,3.5325187 -0.586286,-0.055256 -8.838335,-1.8972454 -4.40923,10.2566224 7.457865,5.108413 0.443407,0.387414 4.494759,9.874871 -5.505034,5.360396 -9.751727,-4.756023 -0.375473,-0.453563 -4.908083,-7.591202 -10.3703576,4.134649 1.6613077,8.885706 0.03963,0.587549 -3.8043369,10.160884 -7.6830245,-0.102274 -3.5325187,-10.258551 0.055256,-0.586286 1.8972454,-8.838335 -10.2566224,-4.40923 -5.108413,7.457865 -0.387414,0.443407 -9.874871,4.494759 -5.360396,-5.505034 4.756023,-9.751727 0.453563,-0.375473 7.591202,-4.908083 -4.134649,-10.3703572 -8.885706,1.6613077 -0.587549,0.03963 -10.160884,-3.8043369 0.102274,-7.6830245 10.258551,-3.5325187 0.586286,0.055256 8.838335,1.8972454 4.40923,-10.2566228 -7.457865,-5.108413 -0.443407,-0.387414 -4.494759,-9.874871 5.505034,-5.360396 9.751727,4.756023 0.375473,0.453563 4.908083,7.591202 10.3703572,-4.134649 -1.6613077,-8.885706 -0.03963,-0.587549 3.8043369,-10.160884 7.6830245,0.102274 3.5325187,10.258551 -0.055256,0.586286 -1.8972454,8.838335 z"
         id="path9187" />
      <circle
         style="fill:#000000;fill-opacity:1;stroke:#ffffff;stroke-width:1;stroke-opacity:1"
         id="path9189"
         cx="0"
         cy="0"
         r="16.653458" />
    </g>
    <g
       inkscape:label="Rendered Gears"
       transform="matrix(0.16131921,-0.08036207,0.08036207,0.16131921,38.733243,41.042552)"
       id="g13106"
       style="fill:#000000;fill-opacity:1;stroke:#ffffff;stroke-opacity:1">
      <path
         style="fill:#000000;fill-opacity:1;stroke:#ffffff;stroke-width:1;stroke-opacity:1"
         d="m 18.5841,-5.01535 8.8686,-2.39338 0.4369,-0.06427 10.4502,3.98703 V 3.48597 L 27.8896,7.473 27.4527,7.40873 18.5841,5.01535 l -4.9486,8.57125 6.507,6.4837 0.2741,0.3463 1.7722,11.0437 L 16.151,34.9462 7.473,27.8896 7.31018,27.4791 4.94864,18.602 h -9.89728 l -2.36154,8.8771 -0.16282,0.4105 -8.678,7.0566 -6.0378,-3.4859 1.7722,-11.0437 0.2741,-0.3463 6.507,-6.4837 -4.9486,-8.57125 -8.8686,2.39338 -0.4369,0.06427 -10.4502,-3.98703 v -6.97194 l 10.4502,-3.98703 0.4369,0.06427 8.8686,2.39338 4.9486,-8.57125 -6.507,-6.4837 -0.2741,-0.3463 -1.7722,-11.0437 6.0378,-3.4859 8.678,7.0566 0.16282,0.4105 2.36154,8.8771 h 9.89728 l 2.36154,-8.8771 0.16282,-0.4105 8.678,-7.0566 6.0378,3.4859 -1.7722,11.0437 -0.2741,0.3463 -6.507,6.4837 z"
         id="path13102" />
      <circle
         style="fill:#000000;fill-opacity:1;stroke:#ffffff;stroke-width:1;stroke-opacity:1"
         id="path13104"
         cx="0"
         cy="0"
         r="10.500163" />
    </g>
    <path
       style="fill:#ffffff;fill-opacity:1;fill-rule:evenodd;stroke:#000000;stroke-width:0.15;stroke-linecap:round;stroke-linejoin:bevel;stroke-opacity:1;paint-order:normal;stroke-dasharray:none"
       d="m 21.683515,44.115967 -0.536603,-0.170315 -0.03098,-0.436393 c -0.01704,-0.240016 -0.03098,-0.628943 -0.03098,-0.864282 v -0.427888 l 0.389312,-0.777481 c 0.214123,-0.427614 0.382585,-0.784054 0.374361,-0.792088 -0.02842,-0.02777 -1.657525,-1.210596 -1.72295,-1.250967 -0.04683,-0.0289 -0.235001,0.128447 -0.656725,0.549159 l -0.591083,0.589663 -0.840718,0.261245 c -0.462395,0.143685 -0.844533,0.261481 -0.849197,0.26177 -0.03627,0.0022 -0.712763,-0.990147 -0.701283,-1.028759 0.0081,-0.02739 0.225515,-0.351708 0.483046,-0.720704 l 0.468239,-0.6709 0.760798,-0.383893 c 0.418439,-0.211141 0.760488,-0.400068 0.760109,-0.419837 -3.77e-4,-0.01977 -0.15077,-0.492422 -0.334203,-1.05034 -0.218789,-0.665454 -0.358322,-1.019486 -0.40563,-1.029192 -0.03966,-0.0081 -0.414391,0.04122 -0.83273,0.109674 l -0.760616,0.12447 -0.837707,-0.277707 -0.837708,-0.277707 v -0.629342 -0.629342 l 0.821388,-0.283552 0.821388,-0.283553 0.808893,0.127636 c 0.444891,0.0702 0.824144,0.12731 0.842785,0.126911 0.02741,-5.86e-4 0.714828,-2.020161 0.714828,-2.100105 0,-0.01267 -0.342358,-0.197414 -0.760797,-0.41054 l -0.76079,-0.387501 -0.480282,-0.694342 c -0.264155,-0.381888 -0.479177,-0.710345 -0.477828,-0.729905 0.0032,-0.04705 0.639311,-0.934854 0.69398,-0.968641 0.02337,-0.01444 0.407544,0.08539 0.853725,0.221858 l 0.811239,0.248116 0.611184,0.605435 0.611184,0.605435 0.886259,-0.643232 c 0.487442,-0.353777 0.892987,-0.647909 0.90121,-0.653627 0.0082,-0.0057 -0.160238,-0.360262 -0.374361,-0.787876 l -0.389312,-0.777481 2.9e-4,-0.471538 c 1.45e-4,-0.259346 0.01396,-0.647106 0.03067,-0.861689 l 0.03038,-0.390151 0.539091,-0.177428 c 0.2965,-0.09758 0.560421,-0.177428 0.586491,-0.177428 0.02607,0 0.282158,0.31439 0.569086,0.698643 l 0.521688,0.698644 0.127054,0.822951 0.127054,0.822952 h 1.120814 1.120814 l 0.05586,-0.350208 c 0.03072,-0.192615 0.09345,-0.570191 0.139401,-0.839058 l 0.08354,-0.488849 0.505,-0.680712 c 0.27775,-0.374392 0.526737,-0.681572 0.553305,-0.682622 0.02657,-0.0011 0.303715,0.07777 0.615883,0.175149 l 0.567579,0.17706 v 0.89378 0.89378 l -0.384919,0.738514 -0.38492,0.738515 0.85589,0.622057 c 0.470739,0.342131 0.885436,0.639302 0.921548,0.660378 0.04593,0.02681 0.249143,-0.144042 0.676265,-0.568556 l 0.610605,-0.606878 0.810405,-0.251314 c 0.445722,-0.138223 0.817533,-0.242844 0.826246,-0.23249 0.09665,0.114846 0.706123,0.966465 0.706123,0.986669 0,0.01483 -0.222805,0.343377 -0.495123,0.730096 l -0.495122,0.703126 -0.758006,0.380329 -0.758006,0.38033 0.09139,0.278865 c 0.05026,0.153375 0.20376,0.626658 0.341105,1.051738 0.137345,0.425081 0.256755,0.780694 0.265356,0.790251 0.0086,0.0096 0.383896,-0.04177 0.833987,-0.114051 l 0.818349,-0.131428 0.852231,0.282522 0.852232,0.282522 -0.0134,0.621945 -0.0134,0.621946 -0.821179,0.285092 -0.821178,0.285093 -0.832297,-0.130502 c -0.457762,-0.07178 -0.841125,-0.121013 -0.851916,-0.109417 -0.01079,0.0116 -0.172277,0.487665 -0.358857,1.057931 l -0.339235,1.036845 0.756411,0.392532 0.756411,0.392531 0.493076,0.696026 c 0.271191,0.382814 0.493996,0.709484 0.495122,0.725933 0.0015,0.02159 -0.570686,0.838509 -0.699783,0.99913 -0.0065,0.0081 -0.378332,-0.09748 -0.826356,-0.23451 l -0.814588,-0.24915 -0.604479,-0.598745 c -0.332464,-0.32931 -0.620239,-0.598745 -0.6395,-0.598745 -0.01926,0 -0.434101,0.289442 -0.921866,0.643205 l -0.886846,0.643205 0.380195,0.759201 0.380195,0.7592 -0.01316,0.875735 -0.01316,0.875736 -0.553899,0.185394 c -0.304644,0.101966 -0.57057,0.185394 -0.590948,0.185394 -0.02038,0 -0.273744,-0.314935 -0.563036,-0.699855 l -0.525985,-0.699855 -0.08013,-0.519836 C 25.996738,42.089866 25.937395,41.720084 25.90894,41.554036 L 25.8572,41.252133 h -1.121484 -1.121483 l -0.12597,0.823192 -0.125971,0.823193 -0.521507,0.698402 c -0.286829,0.384121 -0.543818,0.696369 -0.571087,0.693882 -0.02727,-0.0025 -0.29105,-0.08116 -0.586182,-0.174835 z m 4.111144,-5.18034 c 0.511766,-0.129055 1.27707,-0.512687 1.666922,-0.835597 1.767199,-1.463752 2.058633,-4.100747 0.654826,-5.9251 -1.217208,-1.581852 -3.456381,-2.095391 -5.268329,-1.208256 -1.081777,0.529642 -1.939364,1.585915 -2.252283,2.774093 -0.149239,0.566671 -0.149463,1.538494 -4.83e-4,2.098022 0.217495,0.816855 0.596048,1.460554 1.196756,2.034985 0.530541,0.507332 1.098697,0.84065 1.758308,1.031539 0.667009,0.193031 1.551647,0.204979 2.244285,0.03031 z"
       id="path17128" />
    <path
       style="fill:#ffffff;fill-opacity:1;fill-rule:evenodd;stroke:#000000;stroke-width:0.15;stroke-linecap:round;stroke-linejoin:bevel;stroke-dasharray:none;stroke-opacity:1;paint-order:normal"
       d="m 34.195426,29.576488 -0.281024,-0.807109 0.139627,-0.654105 c 0.07679,-0.359759 0.140977,-0.725663 0.142629,-0.81312 l 0.003,-0.159015 -0.885442,-0.384863 c -0.486993,-0.211675 -0.903029,-0.373994 -0.924525,-0.360709 -0.0215,0.01328 -0.236005,0.312854 -0.476687,0.665708 l -0.437604,0.641553 -0.763578,0.34914 c -0.41997,0.192027 -0.775133,0.34914 -0.789254,0.34914 -0.01412,0 -0.193095,-0.182932 -0.397721,-0.406515 l -0.372048,-0.406516 0.382134,-0.764871 0.382133,-0.764872 0.635908,-0.405328 c 0.349749,-0.222931 0.646052,-0.431766 0.658451,-0.464077 0.02215,-0.05772 -0.630211,-1.749887 -0.704164,-1.826536 -0.02079,-0.02155 -0.386489,0.0277 -0.812653,0.109452 l -0.774843,0.148641 -0.801758,-0.298246 -0.801757,-0.298246 3.03e-4,-0.559928 3.03e-4,-0.559928 0.815067,-0.276282 0.815068,-0.276283 0.785128,0.169202 c 0.43182,0.09306 0.792369,0.161961 0.801219,0.153111 0.07211,-0.07211 0.792228,-1.840775 0.76067,-1.868269 -0.02251,-0.01961 -0.313869,-0.222019 -0.647459,-0.449789 -0.333589,-0.227769 -0.629202,-0.443164 -0.656917,-0.478655 -0.02772,-0.03549 -0.196487,-0.388563 -0.375048,-0.784604 l -0.324656,-0.720075 0.376633,-0.378855 c 0.207148,-0.20837 0.401897,-0.378855 0.432776,-0.378855 0.03088,0 0.383602,0.162037 0.78383,0.360082 l 0.727687,0.360082 0.376614,0.586873 c 0.207137,0.32278 0.409277,0.629257 0.449199,0.681059 0.07068,0.09171 0.09706,0.08447 1.00232,-0.274789 0.511355,-0.202936 0.929735,-0.381927 0.929735,-0.397758 0,-0.01583 -0.06659,-0.375888 -0.147969,-0.800127 l -0.14797,-0.771344 0.30496,-0.818664 0.304959,-0.818663 0.555503,0.03386 c 0.305527,0.01862 0.557384,0.03703 0.559682,0.04091 0.0023,0.0039 0.12685,0.361038 0.276783,0.793683 l 0.272603,0.786628 -0.169324,0.779629 c -0.09313,0.428797 -0.152469,0.796247 -0.131868,0.816557 0.06842,0.06745 1.758077,0.773498 1.809811,0.756254 0.02795,-0.0093 0.249248,-0.306564 0.491764,-0.660545 l 0.440938,-0.643603 0.53135,-0.240729 c 0.292243,-0.1324 0.644339,-0.291245 0.782437,-0.352987 l 0.251084,-0.11226 0.372845,0.410681 0.372845,0.410681 -0.372935,0.756414 -0.372934,0.756415 -0.661584,0.428743 c -0.363872,0.235808 -0.669705,0.436174 -0.67963,0.445257 -0.02278,0.02084 0.670017,1.767572 0.72572,1.829746 0.02573,0.02872 0.309098,-0.003 0.755823,-0.08453 0.393061,-0.07177 0.759297,-0.130483 0.813858,-0.130483 0.05456,0 0.444827,0.127872 0.867259,0.28416 l 0.768058,0.284161 -0.0175,0.549094 c -0.01023,0.320949 -0.03912,0.562667 -0.06955,0.581763 -0.02863,0.01797 -0.386519,0.145825 -0.795314,0.284127 l -0.743262,0.25146 -0.790453,-0.162206 c -0.434748,-0.08921 -0.80006,-0.15186 -0.811803,-0.139215 -0.04326,0.04659 -0.757215,1.748648 -0.756149,1.802656 6.09e-4,0.03075 0.273519,0.240289 0.606471,0.46564 0.332951,0.22535 0.634849,0.442721 0.670883,0.483046 0.07555,0.08455 0.702031,1.441281 0.702031,1.520351 0,0.02897 -0.169841,0.22152 -0.377423,0.427885 l -0.377424,0.37521 -0.766617,-0.374599 -0.766617,-0.3746 -0.432156,-0.665932 c -0.237686,-0.366262 -0.459134,-0.665931 -0.492107,-0.665931 -0.05204,0 -1.724086,0.646493 -1.811048,0.700239 -0.01779,0.01099 0.03344,0.377977 0.113833,0.815518 l 0.146176,0.79553 -0.234923,0.643703 c -0.129208,0.354036 -0.264146,0.714348 -0.299863,0.800693 l -0.06494,0.15699 H 35.025748 34.47645 Z m 1.610535,-4.240916 c 1.036351,-0.244347 1.892897,-1.125449 2.112941,-2.173514 0.08983,-0.427839 0.08974,-0.732688 -3.38e-4,-1.157925 -0.394298,-1.861407 -2.363309,-2.814424 -4.081188,-1.975327 -0.268227,0.131015 -0.456342,0.272276 -0.724569,0.544099 -0.567698,0.575309 -0.821179,1.183086 -0.821179,1.968964 0,0.531076 0.06782,0.831478 0.295293,1.307977 0.338578,0.709238 1.071062,1.302238 1.837636,1.487703 0.352171,0.08521 1.015668,0.08426 1.381404,-0.002 z"
       id="path18924" />
    <path
       style="fill:#ffffff;fill-opacity:1;fill-rule:evenodd;stroke:#000000;stroke-width:0.15;stroke-linecap:round;stroke-linejoin:bevel;stroke-dasharray:none;stroke-opacity:1;paint-order:normal"
       d="m 38.248972,47.825969 c -0.24366,-0.01571 -0.453543,-0.03943 -0.466407,-0.05271 -0.01286,-0.01328 -0.148884,-0.424121 -0.302264,-0.912973 l -0.278874,-0.88882 0.274311,-0.827463 c 0.150871,-0.455104 0.274311,-0.840629 0.274311,-0.856722 0,-0.03791 -1.565516,-1.054804 -1.622926,-1.054182 -0.02397,2.41e-4 -0.334428,0.258207 -0.689904,0.573216 l -0.646322,0.572744 -0.537141,0.05399 c -0.295428,0.0297 -0.721907,0.06782 -0.947731,0.08472 l -0.410589,0.03073 -0.23813,-0.48589 -0.238131,-0.48589 0.431349,-0.46806 c 0.237242,-0.257433 0.529166,-0.574496 0.64872,-0.704585 l 0.21737,-0.236525 0.841273,-0.167845 c 0.4627,-0.09231 0.850173,-0.176745 0.861051,-0.187623 0.01088,-0.01088 0.03942,-0.331514 0.06342,-0.712525 0.024,-0.381011 0.05289,-0.817599 0.06421,-0.970195 l 0.02056,-0.277448 -0.83668,-0.267142 -0.836681,-0.267142 -0.543171,-0.759635 c -0.298743,-0.417799 -0.543059,-0.781372 -0.542922,-0.807939 4.87e-4,-0.09476 0.553989,-0.893635 0.619158,-0.893635 0.03653,0 0.388385,0.07383 0.781906,0.164072 0.393522,0.09024 0.785132,0.178694 0.870245,0.196565 0.121181,0.02544 0.282253,0.177792 0.742522,0.702309 l 0.587771,0.669817 0.880691,-0.439583 0.88069,-0.439582 -0.178899,-0.865243 -0.178899,-0.865244 0.391261,-0.87157 0.391262,-0.871569 0.525929,0.02693 c 0.289261,0.01481 0.542781,0.04459 0.563379,0.06617 0.0206,0.02158 0.160551,0.435402 0.311009,0.919606 l 0.27356,0.88037 -0.269359,0.777418 c -0.148148,0.42758 -0.269359,0.808196 -0.269359,0.845813 0,0.03762 0.360187,0.309159 0.800415,0.603424 l 0.800416,0.535029 0.250209,-0.216652 c 0.137616,-0.119158 0.434975,-0.381579 0.660799,-0.583156 0.225824,-0.201578 0.454063,-0.37626 0.507198,-0.388183 0.09295,-0.02086 1.62999,-0.170482 1.7513,-0.170482 0.03258,0 0.1692,0.219117 0.303593,0.486926 l 0.244351,0.486925 -0.425053,0.461201 c -0.233779,0.253661 -0.522869,0.568835 -0.642423,0.700386 l -0.217371,0.239186 -0.869483,0.179576 -0.869483,0.179577 -0.05989,0.961882 c -0.03294,0.529035 -0.04381,0.976339 -0.02415,0.99401 0.01966,0.01767 0.383533,0.146065 0.808613,0.285322 0.425081,0.139257 0.808249,0.288694 0.851484,0.332083 0.04324,0.04339 0.307649,0.397033 0.587586,0.785875 l 0.508975,0.706985 -0.306074,0.457703 -0.306075,0.457702 -0.928337,-0.207111 c -0.510586,-0.113911 -0.954146,-0.235885 -0.985691,-0.271052 -0.03154,-0.03517 -0.290903,-0.330221 -0.576352,-0.655673 -0.285449,-0.325453 -0.539407,-0.591732 -0.564352,-0.591732 -0.03634,0 -1.678293,0.80326 -1.723123,0.84297 -0.0068,0.006 0.06845,0.401985 0.167178,0.879949 l 0.179509,0.869026 -0.394637,0.865659 c -0.291452,0.639319 -0.417258,0.866811 -0.481157,0.870068 -0.04759,0.0024 -0.285878,-0.0084 -0.529537,-0.02415 z m 1.050133,-4.863629 c 0.734812,-0.215829 1.273428,-0.831685 1.406605,-1.608318 0.13696,-0.798686 -0.275537,-1.672774 -0.967014,-2.049123 -0.851153,-0.463256 -1.833817,-0.30521 -2.486661,0.39994 -0.382988,0.413673 -0.489891,0.709113 -0.48996,1.354075 -6.3e-5,0.574937 0.07072,0.790235 0.405631,1.233822 0.457668,0.606176 1.370735,0.893028 2.131399,0.669604 z"
       id="path18926" />
  </g>
</svg>
