<?xml version="1.0" encoding="UTF-8" standalone="no"?>
<!-- Created with Inkscape (http://www.inkscape.org/) -->

<svg
   width="64.0px"
   height="64.0px"
   viewBox="0 0 64.0 64.0"
   version="1.1"
   id="SVGRoot"
   sodipodi:docname="oxidizers_icon.svg"
   inkscape:version="1.2.2 (b0a8486541, 2022-12-01)"
   xmlns:inkscape="http://www.inkscape.org/namespaces/inkscape"
   xmlns:sodipodi="http://sodipodi.sourceforge.net/DTD/sodipodi-0.dtd"
   xmlns="http://www.w3.org/2000/svg"
   xmlns:svg="http://www.w3.org/2000/svg">
  <sodipodi:namedview
     id="namedview326"
     pagecolor="#ffffff"
     bordercolor="#000000"
     borderopacity="0.25"
     inkscape:showpageshadow="2"
     inkscape:pageopacity="0.0"
     inkscape:pagecheckerboard="0"
     inkscape:deskcolor="#d1d1d1"
     inkscape:document-units="px"
     showgrid="true"
     inkscape:zoom="14.638496"
     inkscape:cx="64.145933"
     inkscape:cy="28.110811"
     inkscape:window-width="2560"
     inkscape:window-height="1332"
     inkscape:window-x="0"
     inkscape:window-y="32"
     inkscape:window-maximized="1"
     inkscape:current-layer="layer1">
    <inkscape:grid
       type="xygrid"
       id="grid449" />
  </sodipodi:namedview>
  <defs
     id="defs321">
    <inkscape:path-effect
       effect="bspline"
       id="path-effect4264"
       is_visible="true"
       lpeversion="1"
       weight="33.333333"
       steps="2"
       helper_size="0"
       apply_no_weight="true"
       apply_with_weight="true"
       only_selected="false" />
    <inkscape:path-effect
       effect="bspline"
       id="path-effect4260"
       is_visible="true"
       lpeversion="1"
       weight="33.333333"
       steps="2"
       helper_size="0"
       apply_no_weight="true"
       apply_with_weight="true"
       only_selected="false" />
    <inkscape:path-effect
       effect="bspline"
       id="path-effect2734"
       is_visible="true"
       lpeversion="1"
       weight="33.333333"
       steps="2"
       helper_size="0"
       apply_no_weight="true"
       apply_with_weight="true"
       only_selected="false" />
    <inkscape:path-effect
       effect="bspline"
       id="path-effect801"
       is_visible="true"
       lpeversion="1"
       weight="33.333333"
       steps="2"
       helper_size="0"
       apply_no_weight="true"
       apply_with_weight="true"
       only_selected="false" />
    <inkscape:path-effect
       effect="bspline"
       id="path-effect797"
       is_visible="true"
       lpeversion="1"
       weight="33.333333"
       steps="2"
       helper_size="0"
       apply_no_weight="true"
       apply_with_weight="true"
       only_selected="false" />
    <inkscape:path-effect
       effect="bspline"
       id="path-effect4852"
       is_visible="true"
       lpeversion="1"
       weight="33.333333"
       steps="2"
       helper_size="0"
       apply_no_weight="true"
       apply_with_weight="true"
       only_selected="false" />
    <inkscape:path-effect
       effect="bspline"
       id="path-effect4848"
       is_visible="true"
       lpeversion="1"
       weight="33.333333"
       steps="2"
       helper_size="0"
       apply_no_weight="true"
       apply_with_weight="true"
       only_selected="false" />
    <inkscape:path-effect
       effect="bspline"
       id="path-effect4844"
       is_visible="true"
       lpeversion="1"
       weight="33.333333"
       steps="2"
       helper_size="0"
       apply_no_weight="true"
       apply_with_weight="true"
       only_selected="false" />
    <inkscape:path-effect
       effect="bspline"
       id="path-effect4840"
       is_visible="true"
       lpeversion="1"
       weight="33.333333"
       steps="2"
       helper_size="0"
       apply_no_weight="true"
       apply_with_weight="true"
       only_selected="false" />
    <inkscape:path-effect
       effect="bspline"
       id="path-effect4521"
       is_visible="true"
       lpeversion="1"
       weight="33.333333"
       steps="2"
       helper_size="0"
       apply_no_weight="true"
       apply_with_weight="true"
       only_selected="false" />
    <inkscape:path-effect
       effect="bspline"
       id="path-effect4517"
       is_visible="true"
       lpeversion="1"
       weight="33.333333"
       steps="2"
       helper_size="0"
       apply_no_weight="true"
       apply_with_weight="true"
       only_selected="false" />
    <inkscape:path-effect
       effect="bspline"
       id="path-effect4505"
       is_visible="true"
       lpeversion="1"
       weight="33.333333"
       steps="2"
       helper_size="0"
       apply_no_weight="true"
       apply_with_weight="true"
       only_selected="false" />
    <inkscape:path-effect
       effect="bspline"
       id="path-effect4123"
       is_visible="true"
       lpeversion="1"
       weight="33.333333"
       steps="2"
       helper_size="0"
       apply_no_weight="true"
       apply_with_weight="true"
       only_selected="false" />
    <inkscape:path-effect
       effect="bspline"
       id="path-effect3073"
       is_visible="true"
       lpeversion="1"
       weight="33.333333"
       steps="2"
       helper_size="0"
       apply_no_weight="true"
       apply_with_weight="true"
       only_selected="false" />
    <inkscape:path-effect
       effect="bspline"
       id="path-effect3069"
       is_visible="true"
       lpeversion="1"
       weight="33.333333"
       steps="2"
       helper_size="0"
       apply_no_weight="true"
       apply_with_weight="true"
       only_selected="false" />
    <inkscape:path-effect
       effect="bspline"
       id="path-effect3065"
       is_visible="true"
       lpeversion="1"
       weight="33.333333"
       steps="2"
       helper_size="0"
       apply_no_weight="true"
       apply_with_weight="true"
       only_selected="false" />
    <inkscape:path-effect
       effect="bspline"
       id="path-effect3061"
       is_visible="true"
       lpeversion="1"
       weight="33.333333"
       steps="2"
       helper_size="0"
       apply_no_weight="true"
       apply_with_weight="true"
       only_selected="false" />
    <inkscape:path-effect
       effect="bspline"
       id="path-effect3057"
       is_visible="true"
       lpeversion="1"
       weight="33.333333"
       steps="2"
       helper_size="0"
       apply_no_weight="true"
       apply_with_weight="true"
       only_selected="false" />
    <inkscape:path-effect
       effect="bspline"
       id="path-effect3053"
       is_visible="true"
       lpeversion="1"
       weight="33.333333"
       steps="2"
       helper_size="0"
       apply_no_weight="true"
       apply_with_weight="true"
       only_selected="false" />
    <inkscape:path-effect
       effect="bspline"
       id="path-effect3049"
       is_visible="true"
       lpeversion="1"
       weight="33.333333"
       steps="2"
       helper_size="0"
       apply_no_weight="true"
       apply_with_weight="true"
       only_selected="false" />
    <inkscape:path-effect
       effect="bspline"
       id="path-effect3045"
       is_visible="true"
       lpeversion="1"
       weight="33.333333"
       steps="2"
       helper_size="0"
       apply_no_weight="true"
       apply_with_weight="true"
       only_selected="false" />
    <inkscape:path-effect
       effect="bspline"
       id="path-effect3041"
       is_visible="true"
       lpeversion="1"
       weight="33.333333"
       steps="2"
       helper_size="0"
       apply_no_weight="true"
       apply_with_weight="true"
       only_selected="false" />
    <inkscape:path-effect
       effect="bspline"
       id="path-effect3037"
       is_visible="true"
       lpeversion="1"
       weight="33.333333"
       steps="2"
       helper_size="0"
       apply_no_weight="true"
       apply_with_weight="true"
       only_selected="false" />
    <inkscape:path-effect
       effect="bspline"
       id="path-effect3033"
       is_visible="true"
       lpeversion="1"
       weight="33.333333"
       steps="2"
       helper_size="0"
       apply_no_weight="true"
       apply_with_weight="true"
       only_selected="false" />
  </defs>
  <g
     inkscape:label="Layer 1"
     inkscape:groupmode="layer"
     id="layer1">
    <rect
       style="fill:#ffffff;stroke-width:2.64567;stroke-linecap:round;stroke-linejoin:round;paint-order:stroke fill markers;fill-opacity:1;stroke:#000000;stroke-opacity:1"
       id="rect508"
       width="60"
       height="60"
       x="2"
       y="2"
       ry="5"
       inkscape:export-filename="fuels_icon.png"
       inkscape:export-xdpi="196.15083"
       inkscape:export-ydpi="196.15083" />
    <rect
       style="fill:#000000;fill-opacity:1;stroke-width:2.64567;stroke-linecap:round;stroke-linejoin:round;paint-order:stroke fill markers"
       id="rect602"
       width="50"
       height="50"
       x="7"
       y="7"
       ry="5" />
    <path
       style="fill:#ffffff;fill-opacity:1;stroke:#000000;stroke-width:2.64567;stroke-linecap:round;stroke-linejoin:round;stroke-opacity:1;paint-order:stroke fill markers"
       id="path1581"
       sodipodi:type="arc"
       sodipodi:cx="15.643683"
       sodipodi:cy="47.819118"
       sodipodi:rx="6.2847986"
       sodipodi:ry="6.0115466"
       sodipodi:start="0"
       sodipodi:end="0.011515806"
       sodipodi:open="true"
       sodipodi:arc-type="arc"
       d="m 21.928482,47.819118 a 6.2847986,6.0115466 0 0 1 -4.17e-4,0.06923" />
    <path
       style="fill:#000000;fill-opacity:1;stroke:#ffffff;stroke-width:0;stroke-linecap:round;stroke-linejoin:round;stroke-dasharray:none;stroke-opacity:1;paint-order:stroke fill markers"
       d="m 42.012513,14.612603 c 0,-0.143012 0,-0.439035 0.03415,-0.626201 0.03416,-0.187167 0.102471,-0.255483 0.153012,-0.289639 0.05054,-0.03416 0.07331,-0.03416 0.09008,-0.05493 0.01677,-0.02077 0.03954,-0.06631 0.145007,-0.137625 0.105469,-0.07131 0.287639,-0.162399 0.436236,-0.230746 0.148598,-0.06835 0.262452,-0.113889 0.316794,-0.142011 0.05434,-0.02812 0.05434,-0.05089 0.112739,-0.102315 0.0584,-0.05142 0.172254,-0.119738 0.250481,-0.175782 0.07823,-0.05604 0.123769,-0.101586 0.146541,-0.06243 0.02277,0.03916 0.02277,0.15301 0.01085,0.30033 -0.01192,0.147319 -0.03469,0.329487 -0.0747,0.416264 -0.04,0.08678 -0.108318,0.08678 -0.159859,0.123931 -0.05154,0.03716 -0.07431,0.105471 -0.115852,0.147012 -0.04154,0.04154 -0.109856,0.06431 -0.147012,0.127239 -0.03716,0.06293 -0.03716,0.154011 -0.10247,0.216324 -0.06531,0.06231 -0.201939,0.107855 -0.273252,0.159396 -0.07131,0.05154 -0.07131,0.09708 -0.08908,0.114856 -0.01777,0.01777 -0.06331,0.01777 -0.103468,0.04254 -0.04016,0.02477 -0.06293,0.07031 -0.102468,0.09108 -0.03954,0.02077 -0.107856,0.02077 -0.202469,0.05405 -0.09461,0.03327 -0.208469,0.101587 -0.266867,0.136626 -0.0584,0.03504 -0.0584,0.03504 -0.0584,-0.107973 z"
       id="path4515"
       inkscape:path-effect="#path-effect4517"
       inkscape:original-d="m 42.012513,14.755614 c 0.01,-0.286023 0.01,-0.582046 0,-0.888069 0.07831,-0.05831 0.146626,-0.126626 0.204939,-0.204939 0.03277,0.01 0.05554,0.01 0.06831,0 0.03277,-0.03554 0.05554,-0.08108 0.06831,-0.136626 0.192168,-0.08108 0.374336,-0.172168 0.546504,-0.273252 0.123855,-0.03554 0.23771,-0.08108 0.341565,-0.136626 0.01,-0.01277 0.01,-0.03554 0,-0.06831 0.123855,-0.05831 0.23771,-0.126626 0.341565,-0.204939 0.05554,-0.03554 0.101084,-0.08108 0.136626,-0.136626 0.01,0.123855 0.01,0.23771 0,0.341565 -0.01277,0.192169 -0.03554,0.374337 -0.06831,0.546505 -0.05831,0.01 -0.126626,0.01 -0.204939,0 -0.01277,0.07831 -0.03554,0.146626 -0.06831,0.204939 -0.05831,0.03277 -0.126626,0.05554 -0.204939,0.06831 0.01,0.101084 0.01,0.192168 0,0.273252 -0.126626,0.05554 -0.263252,0.101084 -0.409878,0.136626 0.01,0.05554 0.01,0.101084 0,0.136626 -0.03554,0.01 -0.08108,0.01 -0.136626,0 -0.01277,0.05554 -0.03554,0.101084 -0.06831,0.136626 -0.05831,0.01 -0.126626,0.01 -0.204939,0 -0.103855,0.07831 -0.21771,0.146626 -0.341565,0.204939 z" />
    <rect
       style="fill:#ffffff;stroke:#ffffff;stroke-width:0;stroke-linecap:round;stroke-linejoin:round;paint-order:stroke fill markers"
       id="rect661"
       width="31.999998"
       height="1.5711997"
       x="16"
       y="52"
       ry="0.78559983" />
    <path
       style="fill:#ffffff;fill-opacity:1;stroke:#ffffff;stroke-width:0;stroke-linecap:round;stroke-linejoin:round;paint-order:stroke fill markers"
       d="m 21.897682,42.083586 c -1.4604,-1.61928 -2.307873,-4.060843 -2.733594,-6.000388 -0.425721,-1.939544 -0.428954,-3.375691 -0.346362,-4.789445 0.08259,-1.413755 0.251079,-2.804846 0.317899,-3.479831 0.06682,-0.674986 0.03186,-0.633102 0.273822,-0.148126 0.241967,0.484975 0.760292,1.411934 1.026728,1.87433 0.266436,0.462397 0.280594,0.461262 0.250374,-0.0358 -0.03022,-0.497068 -0.103886,-1.490535 -0.110788,-2.571905 -0.0069,-1.081371 0.0531,-2.249166 0.523271,-3.534109 0.470172,-1.284943 1.350393,-2.685329 1.640756,-3.163272 0.290363,-0.477942 -0.0089,-0.03373 -0.176765,1.047356 -0.167835,1.081088 -0.203913,2.79506 -0.143767,3.729621 0.06014,0.934561 0.215633,1.088005 0.5827,0.109722 0.367067,-0.978282 0.946711,-3.087792 1.912812,-5.490807 0.966101,-2.403015 2.318604,-5.099194 3.611453,-6.573427 1.292849,-1.474233 2.524974,-1.72601 3.138755,-1.917302 0.613782,-0.191292 0.609875,-0.323072 0.390453,0.14817 -0.219422,0.471241 -0.654112,1.54576 -0.827404,2.828533 -0.173292,1.282773 -0.08531,2.773048 -0.01063,3.769427 0.07468,0.996379 0.135984,1.498691 0.320953,2.056774 0.184969,0.558084 0.49318,1.17175 0.793542,1.715439 0.300361,0.54369 0.592749,1.01739 0.698342,1.25063 0.105592,0.233239 0.02394,0.226926 0.381834,-0.223223 0.357896,-0.45015 1.156263,-1.343909 1.547395,-2.827947 0.391132,-1.484038 0.375032,-3.559024 0.321213,-4.66179 -0.05382,-1.102767 -0.146044,-1.233385 0.229391,-0.78256 0.375435,0.450825 1.218419,1.483092 1.852412,2.475044 0.633993,0.991952 1.059292,1.943484 1.24047,2.843805 0.181178,0.90032 0.118728,1.749665 -0.223034,2.73483 -0.341761,0.985166 -0.962749,2.106561 -1.276088,2.656235 -0.313339,0.549675 -0.319339,0.526765 -0.123813,0.465743 0.195526,-0.06102 0.592054,-0.158997 1.247466,-0.805183 0.655412,-0.646187 1.570399,-1.8407 1.939124,-2.506502 0.368726,-0.665802 0.190136,-0.803581 0.358447,-0.0029 0.16831,0.800673 0.684219,2.539521 0.700441,3.989074 0.01622,1.449552 -0.466814,2.610406 -0.708274,3.303424 -0.241459,0.693019 -0.241459,0.917701 -0.217236,1.186146 0.02422,0.268445 0.07253,0.580502 0.483023,0.130712 0.410495,-0.44979 1.183353,-1.660573 1.672228,-2.635811 0.488876,-0.975237 0.693807,-1.715228 0.773465,-2.124428 0.07966,-0.4092 0.03331,-0.48812 0.279195,-0.143209 0.245889,0.34491 0.783887,1.113627 1.131023,1.953725 0.347137,0.840099 0.503907,1.751567 0.662827,2.575567 0.158921,0.824 0.319933,1.560456 0.06047,3.525027 -0.259468,1.96457 -0.939152,5.157902 -2.311565,7.342051 -1.372412,2.184149 -3.436986,3.35887 -6.143855,3.844068 -2.706868,0.485199 -6.055647,0.280274 -8.766158,-0.220491 -2.710511,-0.500765 -4.782545,-1.297704 -6.242944,-2.916984 z"
       id="path2732"
       inkscape:path-effect="#path-effect2734"
       inkscape:original-d="m 21.284578,42.905362 c -0.846714,-2.441258 -1.694186,-4.882822 -2.542979,-7.326308 -0.0022,-1.435402 -0.0055,-2.871549 -0.0097,-4.308527 0.169497,-1.390398 0.337984,-2.781489 0.505481,-4.173438 -0.03396,0.04266 -0.06893,0.08454 -0.104892,0.125649 0.519357,0.927792 1.037682,1.854751 1.55504,2.780993 0.01515,-3.71e-4 0.0293,-0.0016 0.04244,-0.0034 -0.07272,-0.993146 -0.146384,-1.986613 -0.221099,-2.981727 0.06104,-1.167505 0.121039,-2.3353 0.180076,-3.504792 0.881427,-1.399714 1.761648,-2.8001 2.640767,-4.201326 -0.298409,0.445383 -0.597703,0.889594 -0.898368,1.333354 -0.03514,1.71766 -0.07121,3.431633 -0.10833,5.146401 0.156493,0.154225 0.31198,0.307669 0.46647,0.460339 0.580667,-2.108818 1.160311,-4.218328 1.738966,-6.328655 1.353529,-2.695456 2.706031,-5.391636 4.057587,-8.088695 1.233225,-0.251023 2.46535,-0.5028 3.696603,-0.755379 -0.0029,-0.130974 -0.0068,-0.262754 -0.01172,-0.395314 -0.433785,1.075529 -0.868474,2.150048 -1.304224,3.223941 0.08899,1.49114 0.17697,2.981415 0.263958,4.471004 0.06231,0.503116 0.123616,1.005428 0.183925,1.506993 0.309224,0.614466 0.617435,1.228132 0.924654,1.841038 0.293394,0.474485 0.585782,0.948185 0.877182,1.421129 -0.08065,-0.0055 -0.1623,-0.01186 -0.244952,-0.01894 0.799423,-0.893076 1.597798,-1.786829 2.395222,-2.681411 -0.0151,-2.074336 -0.0312,-4.149322 -0.0483,-6.225209 -0.09123,-0.129851 -0.183455,-0.260469 -0.276685,-0.39187 0.844018,1.033084 1.687002,2.065352 2.529004,3.096865 0.426308,0.952327 0.851608,1.903859 1.275924,2.854652 -0.06145,0.850169 -0.123904,1.699513 -0.187358,2.548134 -0.620026,1.122239 -1.241013,2.243634 -1.863039,3.364321 -0.005,-0.02214 -0.011,-0.04505 -0.018,-0.06873 0.397544,-0.0972 0.794071,-0.19518 1.189618,-0.293935 0.916044,-1.193811 1.831031,-2.388324 2.745074,-3.583686 -0.177599,-0.13701 -0.356189,-0.274788 -0.535788,-0.413349 0.516929,1.739694 1.032839,3.478542 1.547758,5.21665 -0.482056,1.161676 -0.965092,2.32253 -1.449138,3.482633 0.001,0.225465 0.001,0.450147 0,0.674058 0.04931,0.312845 0.09761,0.624903 0.144914,0.936191 0.773889,-1.210057 1.546747,-2.42084 2.318621,-3.632423 0.205943,-0.739258 0.410874,-1.479249 0.614817,-2.220058 -0.04535,-0.07814 -0.0917,-0.157061 -0.139053,-0.236756 0.539031,0.769539 1.077029,1.538256 1.61406,2.306244 0.157776,0.912279 0.314547,1.823747 0.47032,2.734459 0.162018,0.73726 0.323031,1.473716 0.483046,2.209412 -0.678584,3.193865 -1.358268,6.387197 -2.039092,9.580193 -2.064487,1.17624 -4.12906,2.350961 -6.195299,3.525061 -3.348231,-0.203953 -6.697009,-0.408878 -10.047014,-0.614817 -2.071166,-0.79599 -4.1432,-1.592929 -6.216497,-2.390969 z"
       sodipodi:nodetypes="scccccccccccccccccccccccccccccccccccccccccccccss" />
    <path
       style="fill:#000000;fill-opacity:1;stroke:#ffffff;stroke-width:0;stroke-linecap:round;stroke-linejoin:round;paint-order:stroke fill markers"
       d="m 23.873434,41.521695 c -0.411104,-1.392357 -0.821711,-2.783033 -1.202853,-3.963206 -0.381142,-1.180172 -0.730984,-2.144161 -0.699903,-3.461682 0.03108,-1.31752 0.443286,-2.971617 0.995998,-4.586297 0.552711,-1.61468 1.243282,-3.180926 1.600124,-3.981847 0.356843,-0.80092 0.378461,-0.833021 0.53885,-0.299643 0.160388,0.533379 0.459168,1.631627 1.051189,2.309707 0.592022,0.67808 1.475538,0.936189 1.877307,1.052567 0.401769,0.116378 0.321261,0.09084 0.200011,-0.374892 -0.121249,-0.465733 -0.282262,-1.372207 -0.427189,-2.246788 -0.144927,-0.874582 -0.273739,-1.71722 -1.46e-4,-2.981519 0.273593,-1.2643 0.949832,-2.949546 1.336489,-3.625904 0.386656,-0.676358 0.483262,-0.344414 0.740833,0.964252 0.257571,1.308666 0.676194,3.593953 1.167589,5.106952 0.491395,1.512999 1.054929,2.253487 1.501273,2.576097 0.446343,0.32261 0.773523,0.22906 1.012339,-0.329622 0.238816,-0.558682 0.38887,-1.582688 0.666193,-2.392989 0.277322,-0.8103 0.681774,-1.405666 0.877466,-1.711357 0.195691,-0.305692 0.181694,-0.322354 0.281511,0.367219 0.09982,0.689573 0.309944,2.056193 0.350192,2.967112 0.04025,0.91092 -0.09069,1.349204 -0.01074,1.654153 0.07996,0.30495 0.367911,0.470783 0.911525,0.399057 0.543613,-0.07173 1.341813,-0.380828 1.8906,-0.976117 0.548787,-0.595288 0.84852,-1.477295 0.962089,-1.403825 0.11357,0.07347 0.04088,1.102035 -0.116667,1.977496 -0.157547,0.875461 -0.399358,1.596543 -0.26146,2.828009 0.137899,1.231466 0.654604,2.967049 1.511876,3.129931 0.857272,0.162882 2.056295,-1.246784 2.681954,-2.00818 0.625659,-0.761397 0.677149,-0.873695 0.662143,-0.561242 -0.01501,0.312452 -0.0966,1.048661 -0.20408,1.851507 -0.107476,0.802845 -0.240577,1.6707 -0.509379,2.598988 -0.268802,0.928288 -0.67275,1.915616 -1.594321,2.871063 -0.921571,0.955448 -2.360229,1.878528 -4.034085,2.50172 -1.673856,0.623191 -3.582475,0.946019 -5.54976,0.797486 -1.967285,-0.148532 -3.993504,-0.768963 -5.371157,-1.022501 -1.377653,-0.253539 -2.106264,-0.139692 -2.471039,-0.0827 -0.364775,0.057 -0.364777,0.05699 -0.364777,0.05699 z"
       id="path4258"
       inkscape:path-effect="#path-effect4260"
       inkscape:original-d="m 23.873434,41.521695 c 0,0 -0.821063,-2.783225 -1.233311,-4.17707 -0.350121,-0.966512 -0.699963,-1.930502 -1.052993,-2.901518 0.415805,-1.663527 0.82801,-3.317624 1.240766,-4.978942 0.692698,-1.567803 1.383268,-3.13405 2.074255,-4.704509 0.02264,-0.03114 0.04426,-0.06324 0.06488,-0.09634 0.299684,1.098899 0.598464,2.197147 0.896357,3.29481 0.885282,0.259333 1.768799,0.517442 2.651899,0.774722 -0.07951,-0.02474 -0.160017,-0.05028 -0.241528,-0.07661 -0.160019,-0.905717 -0.321031,-1.812191 -0.483046,-2.719476 -0.127813,-0.841861 -0.256625,-1.684499 -0.386441,-2.527963 0.677278,-1.684548 1.353518,-3.369794 2.028794,-5.055924 0.09761,0.332752 0.194217,0.664695 0.289828,0.995864 0.419648,2.286219 0.838271,4.571506 1.25592,6.856141 0.564565,0.741323 1.128099,1.481811 1.690661,2.221543 0.330215,-0.09313 0.657394,-0.186682 0.984679,-0.281549 0.15113,-1.023521 0.301184,-2.047528 0.450307,-3.073005 0.405548,-0.594508 0.810001,-1.189873 1.213476,-1.786274 -0.01315,-0.01584 -0.02715,-0.0325 -0.04244,-0.05052 0.215662,1.397114 0.425789,2.763734 0.637253,4.144552 -0.130603,0.441504 -0.261542,0.879788 -0.394723,1.321226 0.291718,0.168424 0.579673,0.334256 0.868056,0.499911 0.799494,-0.308217 1.597694,-0.617321 2.395223,-0.927552 0.300779,-0.881144 0.600512,-1.763151 0.8992,-2.646028 -0.07168,1.029484 -0.144375,2.058049 -0.218087,3.085916 -0.241247,0.723382 -0.483058,1.444464 -0.726579,2.166664 0.518763,1.740138 1.035468,3.475721 1.551187,5.210352 1.199253,-1.407762 2.398276,-2.817428 3.597149,-4.229093 0.05258,-0.111487 0.104067,-0.223786 0.154623,-0.337229 -0.08067,0.737917 -0.162273,1.474126 -0.244955,2.210094 -0.132241,0.869774 -0.265342,1.737629 -0.399578,2.605367 -0.403288,0.989159 -0.807236,1.976487 -1.21247,2.963514 -1.438369,0.924537 -2.877027,1.847617 -4.31728,2.770079 -1.908013,0.323895 -3.816632,0.646722 -5.726402,0.968576 -2.025186,-0.619421 -4.051405,-1.239852 -6.078656,-1.861292 -0.727685,0.114858 -1.456296,0.228705 -2.186022,0.341569 z"
       sodipodi:nodetypes="ccccccccccccccccccccccccccccccccccccc" />
    <circle
       style="fill:#ffffff;fill-opacity:1;stroke:#ffffff;stroke-width:0;stroke-linecap:round;stroke-linejoin:round;paint-order:stroke fill markers"
       id="path2595"
       cx="32"
       cy="41.5"
       r="11.999999" />
    <circle
       style="fill:#000000;fill-opacity:1;stroke:#ffffff;stroke-width:0;stroke-linecap:round;stroke-linejoin:round;paint-order:stroke fill markers"
       id="path2769"
       cx="32"
       cy="41.5"
       r="9.749999" />
  </g>
</svg>
