<?xml version="1.0" encoding="UTF-8" standalone="no"?>
<!-- Created with Inkscape (http://www.inkscape.org/) -->

<svg
   width="64.0px"
   height="64.0px"
   viewBox="0 0 64.0 64.0"
   version="1.1"
   id="SVGRoot"
   sodipodi:docname="solutions_icon.svg"
   inkscape:version="1.2.2 (b0a8486541, 2022-12-01)"
   inkscape:export-filename="solutions_icon.png"
   inkscape:export-xdpi="192"
   inkscape:export-ydpi="192"
   xmlns:inkscape="http://www.inkscape.org/namespaces/inkscape"
   xmlns:sodipodi="http://sodipodi.sourceforge.net/DTD/sodipodi-0.dtd"
   xmlns="http://www.w3.org/2000/svg"
   xmlns:svg="http://www.w3.org/2000/svg">
  <sodipodi:namedview
     id="namedview326"
     pagecolor="#ffffff"
     bordercolor="#000000"
     borderopacity="0.25"
     inkscape:showpageshadow="2"
     inkscape:pageopacity="0.0"
     inkscape:pagecheckerboard="0"
     inkscape:deskcolor="#d1d1d1"
     inkscape:document-units="px"
     showgrid="true"
     inkscape:zoom="7.3192482"
     inkscape:cx="41.124443"
     inkscape:cy="36.820722"
     inkscape:window-width="2560"
     inkscape:window-height="1332"
     inkscape:window-x="0"
     inkscape:window-y="32"
     inkscape:window-maximized="1"
     inkscape:current-layer="layer1">
    <inkscape:grid
       type="xygrid"
       id="grid449" />
  </sodipodi:namedview>
  <defs
     id="defs321">
    <inkscape:path-effect
       effect="bspline"
       id="path-effect5694"
       is_visible="true"
       lpeversion="1"
       weight="33.333333"
       steps="2"
       helper_size="0"
       apply_no_weight="true"
       apply_with_weight="true"
       only_selected="false" />
    <inkscape:path-effect
       effect="mirror_symmetry"
       start_point="32.676265,1.6064902"
       end_point="32.676265,65.60649"
       center_point="32.676265,33.60649"
       id="path-effect3454"
       is_visible="true"
       lpeversion="1.2"
       lpesatellites=""
       mode="vertical"
       discard_orig_path="false"
       fuse_paths="false"
       oposite_fuse="false"
       split_items="false"
       split_open="false"
       link_styles="false" />
    <inkscape:path-effect
       effect="bspline"
       id="path-effect4264"
       is_visible="true"
       lpeversion="1"
       weight="33.333333"
       steps="2"
       helper_size="0"
       apply_no_weight="true"
       apply_with_weight="true"
       only_selected="false" />
    <inkscape:path-effect
       effect="bspline"
       id="path-effect4260"
       is_visible="true"
       lpeversion="1"
       weight="33.333333"
       steps="2"
       helper_size="0"
       apply_no_weight="true"
       apply_with_weight="true"
       only_selected="false" />
    <inkscape:path-effect
       effect="bspline"
       id="path-effect2734"
       is_visible="true"
       lpeversion="1"
       weight="33.333333"
       steps="2"
       helper_size="0"
       apply_no_weight="true"
       apply_with_weight="true"
       only_selected="false" />
    <inkscape:path-effect
       effect="bspline"
       id="path-effect801"
       is_visible="true"
       lpeversion="1"
       weight="33.333333"
       steps="2"
       helper_size="0"
       apply_no_weight="true"
       apply_with_weight="true"
       only_selected="false" />
    <inkscape:path-effect
       effect="bspline"
       id="path-effect797"
       is_visible="true"
       lpeversion="1"
       weight="33.333333"
       steps="2"
       helper_size="0"
       apply_no_weight="true"
       apply_with_weight="true"
       only_selected="false" />
    <inkscape:path-effect
       effect="bspline"
       id="path-effect4852"
       is_visible="true"
       lpeversion="1"
       weight="33.333333"
       steps="2"
       helper_size="0"
       apply_no_weight="true"
       apply_with_weight="true"
       only_selected="false" />
    <inkscape:path-effect
       effect="bspline"
       id="path-effect4848"
       is_visible="true"
       lpeversion="1"
       weight="33.333333"
       steps="2"
       helper_size="0"
       apply_no_weight="true"
       apply_with_weight="true"
       only_selected="false" />
    <inkscape:path-effect
       effect="bspline"
       id="path-effect4844"
       is_visible="true"
       lpeversion="1"
       weight="33.333333"
       steps="2"
       helper_size="0"
       apply_no_weight="true"
       apply_with_weight="true"
       only_selected="false" />
    <inkscape:path-effect
       effect="bspline"
       id="path-effect4840"
       is_visible="true"
       lpeversion="1"
       weight="33.333333"
       steps="2"
       helper_size="0"
       apply_no_weight="true"
       apply_with_weight="true"
       only_selected="false" />
    <inkscape:path-effect
       effect="bspline"
       id="path-effect4521"
       is_visible="true"
       lpeversion="1"
       weight="33.333333"
       steps="2"
       helper_size="0"
       apply_no_weight="true"
       apply_with_weight="true"
       only_selected="false" />
    <inkscape:path-effect
       effect="bspline"
       id="path-effect4517"
       is_visible="true"
       lpeversion="1"
       weight="33.333333"
       steps="2"
       helper_size="0"
       apply_no_weight="true"
       apply_with_weight="true"
       only_selected="false" />
    <inkscape:path-effect
       effect="bspline"
       id="path-effect4505"
       is_visible="true"
       lpeversion="1"
       weight="33.333333"
       steps="2"
       helper_size="0"
       apply_no_weight="true"
       apply_with_weight="true"
       only_selected="false" />
    <inkscape:path-effect
       effect="bspline"
       id="path-effect4123"
       is_visible="true"
       lpeversion="1"
       weight="33.333333"
       steps="2"
       helper_size="0"
       apply_no_weight="true"
       apply_with_weight="true"
       only_selected="false" />
    <inkscape:path-effect
       effect="bspline"
       id="path-effect3073"
       is_visible="true"
       lpeversion="1"
       weight="33.333333"
       steps="2"
       helper_size="0"
       apply_no_weight="true"
       apply_with_weight="true"
       only_selected="false" />
    <inkscape:path-effect
       effect="bspline"
       id="path-effect3069"
       is_visible="true"
       lpeversion="1"
       weight="33.333333"
       steps="2"
       helper_size="0"
       apply_no_weight="true"
       apply_with_weight="true"
       only_selected="false" />
    <inkscape:path-effect
       effect="bspline"
       id="path-effect3065"
       is_visible="true"
       lpeversion="1"
       weight="33.333333"
       steps="2"
       helper_size="0"
       apply_no_weight="true"
       apply_with_weight="true"
       only_selected="false" />
    <inkscape:path-effect
       effect="bspline"
       id="path-effect3061"
       is_visible="true"
       lpeversion="1"
       weight="33.333333"
       steps="2"
       helper_size="0"
       apply_no_weight="true"
       apply_with_weight="true"
       only_selected="false" />
    <inkscape:path-effect
       effect="bspline"
       id="path-effect3057"
       is_visible="true"
       lpeversion="1"
       weight="33.333333"
       steps="2"
       helper_size="0"
       apply_no_weight="true"
       apply_with_weight="true"
       only_selected="false" />
    <inkscape:path-effect
       effect="bspline"
       id="path-effect3053"
       is_visible="true"
       lpeversion="1"
       weight="33.333333"
       steps="2"
       helper_size="0"
       apply_no_weight="true"
       apply_with_weight="true"
       only_selected="false" />
    <inkscape:path-effect
       effect="bspline"
       id="path-effect3049"
       is_visible="true"
       lpeversion="1"
       weight="33.333333"
       steps="2"
       helper_size="0"
       apply_no_weight="true"
       apply_with_weight="true"
       only_selected="false" />
    <inkscape:path-effect
       effect="bspline"
       id="path-effect3045"
       is_visible="true"
       lpeversion="1"
       weight="33.333333"
       steps="2"
       helper_size="0"
       apply_no_weight="true"
       apply_with_weight="true"
       only_selected="false" />
    <inkscape:path-effect
       effect="bspline"
       id="path-effect3041"
       is_visible="true"
       lpeversion="1"
       weight="33.333333"
       steps="2"
       helper_size="0"
       apply_no_weight="true"
       apply_with_weight="true"
       only_selected="false" />
    <inkscape:path-effect
       effect="bspline"
       id="path-effect3037"
       is_visible="true"
       lpeversion="1"
       weight="33.333333"
       steps="2"
       helper_size="0"
       apply_no_weight="true"
       apply_with_weight="true"
       only_selected="false" />
    <inkscape:path-effect
       effect="bspline"
       id="path-effect3033"
       is_visible="true"
       lpeversion="1"
       weight="33.333333"
       steps="2"
       helper_size="0"
       apply_no_weight="true"
       apply_with_weight="true"
       only_selected="false" />
  </defs>
  <g
     inkscape:label="Layer 1"
     inkscape:groupmode="layer"
     id="layer1">
    <rect
       style="fill:#ffffff;stroke-width:2.64567;stroke-linecap:round;stroke-linejoin:round;paint-order:stroke fill markers;fill-opacity:1;stroke:#000000;stroke-opacity:1"
       id="rect508"
       width="60"
       height="60"
       x="2"
       y="2"
       ry="5"
       inkscape:export-filename="fuels_icon.png"
       inkscape:export-xdpi="196.15083"
       inkscape:export-ydpi="196.15083" />
    <rect
       style="fill:#000000;fill-opacity:1;stroke-width:2.64567;stroke-linecap:round;stroke-linejoin:round;paint-order:stroke fill markers"
       id="rect602"
       width="50"
       height="50"
       x="7"
       y="7"
       ry="5" />
    <path
       style="fill:#ffffff;fill-opacity:1;stroke:#000000;stroke-width:2.64567;stroke-linecap:round;stroke-linejoin:round;stroke-opacity:1;paint-order:stroke fill markers"
       id="path1581"
       sodipodi:type="arc"
       sodipodi:cx="15.643683"
       sodipodi:cy="47.819118"
       sodipodi:rx="6.2847986"
       sodipodi:ry="6.0115466"
       sodipodi:start="0"
       sodipodi:end="0.011515806"
       sodipodi:open="true"
       sodipodi:arc-type="arc"
       d="m 21.928482,47.819118 a 6.2847986,6.0115466 0 0 1 -4.17e-4,0.06923" />
    <path
       style="fill:#000000;fill-opacity:1;stroke:#ffffff;stroke-width:0;stroke-linecap:round;stroke-linejoin:round;stroke-dasharray:none;stroke-opacity:1;paint-order:stroke fill markers"
       d="m 42.012513,14.612603 c 0,-0.143012 0,-0.439035 0.03415,-0.626201 0.03416,-0.187167 0.102471,-0.255483 0.153012,-0.289639 0.05054,-0.03416 0.07331,-0.03416 0.09008,-0.05493 0.01677,-0.02077 0.03954,-0.06631 0.145007,-0.137625 0.105469,-0.07131 0.287639,-0.162399 0.436236,-0.230746 0.148598,-0.06835 0.262452,-0.113889 0.316794,-0.142011 0.05434,-0.02812 0.05434,-0.05089 0.112739,-0.102315 0.0584,-0.05142 0.172254,-0.119738 0.250481,-0.175782 0.07823,-0.05604 0.123769,-0.101586 0.146541,-0.06243 0.02277,0.03916 0.02277,0.15301 0.01085,0.30033 -0.01192,0.147319 -0.03469,0.329487 -0.0747,0.416264 -0.04,0.08678 -0.108318,0.08678 -0.159859,0.123931 -0.05154,0.03716 -0.07431,0.105471 -0.115852,0.147012 -0.04154,0.04154 -0.109856,0.06431 -0.147012,0.127239 -0.03716,0.06293 -0.03716,0.154011 -0.10247,0.216324 -0.06531,0.06231 -0.201939,0.107855 -0.273252,0.159396 -0.07131,0.05154 -0.07131,0.09708 -0.08908,0.114856 -0.01777,0.01777 -0.06331,0.01777 -0.103468,0.04254 -0.04016,0.02477 -0.06293,0.07031 -0.102468,0.09108 -0.03954,0.02077 -0.107856,0.02077 -0.202469,0.05405 -0.09461,0.03327 -0.208469,0.101587 -0.266867,0.136626 -0.0584,0.03504 -0.0584,0.03504 -0.0584,-0.107973 z"
       id="path4515"
       inkscape:path-effect="#path-effect4517"
       inkscape:original-d="m 42.012513,14.755614 c 0.01,-0.286023 0.01,-0.582046 0,-0.888069 0.07831,-0.05831 0.146626,-0.126626 0.204939,-0.204939 0.03277,0.01 0.05554,0.01 0.06831,0 0.03277,-0.03554 0.05554,-0.08108 0.06831,-0.136626 0.192168,-0.08108 0.374336,-0.172168 0.546504,-0.273252 0.123855,-0.03554 0.23771,-0.08108 0.341565,-0.136626 0.01,-0.01277 0.01,-0.03554 0,-0.06831 0.123855,-0.05831 0.23771,-0.126626 0.341565,-0.204939 0.05554,-0.03554 0.101084,-0.08108 0.136626,-0.136626 0.01,0.123855 0.01,0.23771 0,0.341565 -0.01277,0.192169 -0.03554,0.374337 -0.06831,0.546505 -0.05831,0.01 -0.126626,0.01 -0.204939,0 -0.01277,0.07831 -0.03554,0.146626 -0.06831,0.204939 -0.05831,0.03277 -0.126626,0.05554 -0.204939,0.06831 0.01,0.101084 0.01,0.192168 0,0.273252 -0.126626,0.05554 -0.263252,0.101084 -0.409878,0.136626 0.01,0.05554 0.01,0.101084 0,0.136626 -0.03554,0.01 -0.08108,0.01 -0.136626,0 -0.01277,0.05554 -0.03554,0.101084 -0.06831,0.136626 -0.05831,0.01 -0.126626,0.01 -0.204939,0 -0.103855,0.07831 -0.21771,0.146626 -0.341565,0.204939 z" />
    <path
       style="fill:none;fill-opacity:1;fill-rule:evenodd;stroke:#ffffff;stroke-width:0.0120762;stroke-linecap:round;stroke-linejoin:round;stroke-dasharray:none;stroke-opacity:1;paint-order:markers fill stroke"
       d="m 24.744034,48.593379 c -0.678902,-0.04066 -1.246897,-0.162719 -1.648395,-0.354226 -0.538755,-0.256977 -0.821412,-0.600078 -0.935973,-1.136125 -0.03347,-0.156609 -0.04605,-0.540267 -0.02458,-0.749703 0.154866,-1.510681 1.266338,-3.681749 3.452341,-6.743549 0.203242,-0.284668 0.59654,-0.827953 0.63659,-0.879357 0.0016,-0.0021 0.06738,0.02423 0.146079,0.05852 0.394119,0.171764 0.831693,0.335471 1.139373,0.426267 0.542792,0.160178 0.913895,0.222381 1.395402,0.233892 0.501962,0.012 0.846659,-0.02826 1.726283,-0.201606 0.88,-0.173424 1.059467,-0.19799 1.449138,-0.198357 0.230312,-2.16e-4 0.314607,0.0043 0.410497,0.02191 0.286967,0.05276 0.581585,0.152703 1.058533,0.359099 0.895933,0.387709 1.144615,0.460258 1.580198,0.460997 0.42596,7.24e-4 0.730629,-0.08082 1.441676,-0.385851 0.385208,-0.16525 0.548753,-0.223759 0.688453,-0.246295 0.191235,-0.03085 0.41335,0.0086 0.678349,0.120603 0.183869,0.07768 0.479508,0.23919 0.509761,0.278478 0.08124,0.105503 0.564,0.804583 0.829766,1.201577 1.182705,1.766687 1.932789,3.164121 2.317814,4.318175 0.178246,0.534263 0.266274,0.971444 0.280658,1.393844 0.02374,0.69713 -0.196914,1.180406 -0.690287,1.511881 -0.320406,0.215266 -0.817464,0.380459 -1.370643,0.45552 -0.481232,0.0653 0.123721,0.06041 -7.710623,0.06231 -3.958562,9.63e-4 -7.270749,-0.0026 -7.360414,-0.008 z"
       id="path5765" />
    <path
       style="fill:#000000;fill-opacity:1;fill-rule:evenodd;stroke:#ffffff;stroke-width:0.0120762;stroke-linecap:round;stroke-linejoin:round;stroke-dasharray:none;stroke-opacity:1;paint-order:markers fill stroke"
       d="m 26.319972,48.5831 c -1.919948,-0.0084 -1.821487,-0.0049 -2.270317,-0.0799 -0.868417,-0.14512 -1.444397,-0.463851 -1.711898,-0.947316 -0.222708,-0.402508 -0.26164,-0.990295 -0.111666,-1.685894 0.322863,-1.497475 1.419135,-3.520177 3.435481,-6.338709 0.443319,-0.619689 0.560666,-0.778373 0.575815,-0.778653 0.0077,-1.42e-4 0.07836,0.02739 0.15699,0.06118 0.713496,0.306608 1.349477,0.507837 1.863817,0.589726 0.259853,0.04137 0.44196,0.05397 0.78495,0.0543 0.480598,4.65e-4 0.734403,-0.03234 1.708775,-0.22086 0.799141,-0.154616 0.925435,-0.170624 1.346189,-0.170624 0.317726,0 0.393228,0.0091 0.640406,0.07699 0.203848,0.05601 0.408603,0.131443 0.748021,0.275586 0.674514,0.286449 0.963254,0.392834 1.213537,0.447124 0.105768,0.02294 0.159841,0.02643 0.417376,0.02694 0.310187,6.08e-4 0.372858,-0.0058 0.595918,-0.06139 0.221936,-0.05526 0.421285,-0.128647 0.931715,-0.342969 0.529725,-0.222424 0.667475,-0.254254 0.91416,-0.211236 0.198986,0.0347 0.459932,0.140328 0.736047,0.297941 0.14737,0.08412 0.111086,0.04108 0.466739,0.553723 1.323245,1.90736 2.162869,3.361524 2.652269,4.593525 0.37063,0.933014 0.517658,1.739452 0.421886,2.314033 -0.09965,0.597881 -0.44071,0.992827 -1.079592,1.250179 -0.387637,0.156146 -0.913463,0.261473 -1.418527,0.284142 -0.305183,0.0137 -10.4829,0.02321 -13.018091,0.01217 z"
       id="path5767" />
    <path
       style="fill:#000000;fill-opacity:1;fill-rule:evenodd;stroke:#ffffff;stroke-width:0.0120762;stroke-linecap:round;stroke-linejoin:round;stroke-dasharray:none;stroke-opacity:1;paint-order:markers fill stroke"
       d="m 24.750072,48.557438 c -0.347579,-0.0094 -0.51432,-0.02833 -0.855278,-0.09706 -0.566824,-0.114248 -0.993924,-0.307637 -1.28232,-0.580627 -0.236215,-0.223598 -0.365827,-0.473428 -0.431155,-0.831068 -0.03392,-0.1857 -0.03658,-0.596999 -0.0053,-0.818984 0.21703,-1.540133 1.302014,-3.613807 3.507897,-6.704458 0.352949,-0.494516 0.521144,-0.723507 0.547459,-0.745346 0.01229,-0.0102 0.04665,-5.32e-4 0.142962,0.04023 0.785345,0.33242 1.420549,0.528361 1.980469,0.610914 0.17027,0.0251 0.230276,0.02761 0.664188,0.02769 0.608995,1.16e-4 0.696393,-0.01057 1.775195,-0.217008 0.702122,-0.134359 0.830055,-0.151537 1.189501,-0.159719 0.202744,-0.0046 0.34336,-0.002 0.428125,0.0078 0.239676,0.0279 0.527984,0.117512 0.972708,0.302333 0.811341,0.337183 1.080575,0.43652 1.310263,0.483435 0.116706,0.02384 0.155158,0.02552 0.483046,0.02114 l 0.356246,-0.0048 0.18718,-0.04937 c 0.218231,-0.05756 0.383481,-0.117799 0.863445,-0.314741 0.702868,-0.288406 0.801319,-0.303692 1.174329,-0.182339 0.171498,0.05579 0.552162,0.241785 0.628377,0.307023 0.06146,0.05261 0.133239,0.150332 0.474158,0.645565 1.544021,2.242898 2.458764,3.945176 2.811711,5.232412 0.276263,1.007559 0.231731,1.70511 -0.139938,2.191981 -0.277579,0.363615 -0.810841,0.629262 -1.51901,0.756699 -0.330115,0.05941 -0.431357,0.068 -0.929863,0.07896 -0.576271,0.01267 -13.864614,0.01199 -14.334392,-7.34e-4 z"
       id="path5769" />
    <path
       style="fill:#ffffff;fill-opacity:1;fill-rule:evenodd;stroke:#000000;stroke-width:1.5;stroke-linecap:round;stroke-linejoin:round;stroke-dasharray:none;stroke-opacity:1;paint-order:fill markers stroke;stroke-dashoffset:0"
       d="m 25.583326,48.545195 c -0.630978,-0.0043 -1.16082,-0.01105 -1.177424,-0.0149 -0.01661,-0.0038 -0.08182,-0.01321 -0.144914,-0.0208 C 24.091619,48.48911 23.75644,48.420703 23.58867,48.372279 23.168841,48.2511 22.856745,48.087468 22.622451,47.865689 22.4034,47.65834 22.278216,47.430596 22.206018,47.108085 c -0.0261,-0.116573 -0.02816,-0.152441 -0.02808,-0.488103 8.3e-5,-0.345559 0.0016,-0.370583 0.03385,-0.542039 0.246853,-1.314167 1.004268,-2.870287 2.472318,-5.079409 0.504413,-0.759041 1.474474,-2.134074 1.549447,-2.196297 0.01521,-0.01262 0.07749,0.0084 0.366351,0.12351 0.709088,0.282633 1.247605,0.441441 1.748859,0.515735 0.13468,0.01996 0.225635,0.02328 0.640036,0.02331 0.661323,6.2e-5 0.721129,-0.0066 1.686675,-0.188102 0.301077,-0.05659 0.631191,-0.116105 0.733585,-0.132248 0.388675,-0.06128 0.907015,-0.06934 1.151094,-0.01791 0.171364,0.03611 0.454029,0.130704 0.754231,0.252409 0.144844,0.05872 0.391058,0.158517 0.547142,0.221768 0.357034,0.144683 0.585044,0.226383 0.75476,0.270443 l 0.132837,0.03449 0.398513,-8.29e-4 0.398513,-8.28e-4 0.185502,-0.05121 c 0.215332,-0.05944 0.32526,-0.09947 0.859085,-0.312814 0.722001,-0.288552 0.798706,-0.300745 1.152884,-0.183257 0.186806,0.06197 0.561208,0.246242 0.638454,0.314237 0.113937,0.100292 0.8809,1.220518 1.405008,2.052158 1.116944,1.772332 1.753023,3.134207 1.971286,4.220614 0.149661,0.744947 0.08806,1.291681 -0.192699,1.710395 -0.07479,0.111532 -0.265545,0.295451 -0.398071,0.383799 -0.305748,0.203826 -0.724794,0.354321 -1.22573,0.440205 -0.321735,0.05516 -0.366766,0.05699 -1.666509,0.06771 -1.430239,0.0118 -10.956254,0.01132 -12.692035,-6.32e-4 z"
       id="path5771" />
    <path
       style="fill:none;fill-opacity:1;fill-rule:evenodd;stroke:#ffffff;stroke-width:1;stroke-linecap:round;stroke-linejoin:round;stroke-dasharray:none;stroke-opacity:1;paint-order:markers fill stroke"
       d="m 32.460694,50.719835 6.955864,-1e-6 c 9.516538,0 -2.376877,-12.485221 -4.308211,-15.769934 l -0.09661,-12.246737 c 0,0 0.837316,-0.68409 1.018622,-1.167756 0.112047,-0.298905 0,-0.957646 0,-0.957646 h -2.120526 l -3.76776,0.09661 c 0,0 4.830462,-0.193218 3.76776,-0.09661 m -1.017998,30.142074 -6.955864,-1e-6 c -9.516538,0 2.376877,-12.485221 4.308211,-15.769934 l 0.09661,-12.246737 c 0,0 -0.837316,-0.68409 -1.018622,-1.167756 -0.112047,-0.298905 0,-0.957646 0,-0.957646 h 2.120526 l 3.76776,0.09661 c 0,0 -4.830462,-0.193218 -3.76776,-0.09661"
       id="path3452"
       sodipodi:nodetypes="csccacccc"
       inkscape:path-effect="#path-effect3454"
       inkscape:original-d="m 32.460694,50.719835 c 0,0 1.639105,-1e-6 6.955864,-1e-6 9.516538,0 -2.376877,-12.485221 -4.308211,-15.769934 l -0.09661,-12.246737 c 0,0 0.837316,-0.68409 1.018622,-1.167756 0.112047,-0.298905 0,-0.957646 0,-0.957646 h -2.120526 l -3.76776,0.09661 c 0,0 4.830462,-0.193218 3.76776,-0.09661"
       class="UnoptimicedTransforms"
       transform="translate(-0.6762645,-1.6064902)" />
    <ellipse
       style="fill:#000000;fill-opacity:0.998008;fill-rule:evenodd;stroke:#000000;stroke-width:0;stroke-linecap:round;stroke-linejoin:round;stroke-dasharray:none;stroke-dashoffset:0;stroke-opacity:1;paint-order:fill markers stroke"
       id="path7803"
       cx="28.964754"
       cy="42.490704"
       rx="0.10249957"
       ry="0.10246954" />
    <ellipse
       style="fill:#000000;fill-opacity:0.998008;fill-rule:evenodd;stroke:#000000;stroke-width:0;stroke-linecap:round;stroke-linejoin:round;stroke-dasharray:none;stroke-dashoffset:0;stroke-opacity:1;paint-order:fill markers stroke"
       id="path8845"
       cx="30.638172"
       cy="43.173832"
       rx="0.37549955"
       ry="0.37572166" />
    <circle
       style="fill:#000000;fill-opacity:0.998008;fill-rule:evenodd;stroke:#000000;stroke-width:0;stroke-linecap:round;stroke-linejoin:round;stroke-dasharray:none;stroke-dashoffset:0;stroke-opacity:1;paint-order:fill markers stroke"
       id="path8847"
       cx="29.989573"
       cy="41.636944"
       r="0.51249951" />
    <ellipse
       style="fill:#000000;fill-opacity:0.998008;fill-rule:evenodd;stroke:#000000;stroke-width:0;stroke-linecap:round;stroke-linejoin:round;stroke-dasharray:none;stroke-dashoffset:0;stroke-opacity:1;paint-order:fill markers stroke"
       id="path8849"
       cx="29.272133"
       cy="44.540245"
       rx="0.5123477"
       ry="0.51249951" />
    <ellipse
       style="fill:#000000;fill-opacity:0.998008;fill-rule:evenodd;stroke:#000000;stroke-width:0;stroke-linecap:round;stroke-linejoin:round;stroke-dasharray:none;stroke-dashoffset:0;stroke-opacity:1;paint-order:fill markers stroke"
       id="path8851"
       cx="36.769215"
       cy="45.205875"
       rx="0.4949995"
       ry="0.49499953" />
    <ellipse
       style="fill:#000000;fill-opacity:0.998008;fill-rule:evenodd;stroke:#000000;stroke-width:0;stroke-linecap:round;stroke-linejoin:round;stroke-dasharray:none;stroke-dashoffset:0;stroke-opacity:1;paint-order:fill markers stroke"
       id="path8853"
       cx="36.39259"
       cy="43.360519"
       rx="0.25499949"
       ry="0.25499955" />
    <ellipse
       style="fill:#000000;fill-opacity:0.998008;fill-rule:evenodd;stroke:#000000;stroke-width:0;stroke-linecap:round;stroke-linejoin:round;stroke-dasharray:none;stroke-dashoffset:0;stroke-opacity:1;paint-order:fill markers stroke"
       id="path8855"
       cx="35.811901"
       cy="44.487652"
       rx="0.1524995"
       ry="0.15249956" />
    <ellipse
       style="fill:#000000;fill-opacity:0.998008;fill-rule:evenodd;stroke:#000000;stroke-width:0;stroke-linecap:round;stroke-linejoin:round;stroke-dasharray:none;stroke-dashoffset:0;stroke-opacity:1;paint-order:fill markers stroke"
       id="path8857"
       cx="26.454041"
       cy="45.54771"
       rx="0.80249947"
       ry="0.80267805" />
    <circle
       style="fill:#000000;fill-opacity:0.998008;fill-rule:evenodd;stroke:#000000;stroke-width:0;stroke-linecap:round;stroke-linejoin:round;stroke-dasharray:none;stroke-dashoffset:0;stroke-opacity:1;paint-order:fill markers stroke"
       id="path8859"
       cx="33.233276"
       cy="45.695869"
       r="0.91749948" />
    <ellipse
       style="fill:#000000;fill-opacity:0.998008;fill-rule:evenodd;stroke:#000000;stroke-width:0;stroke-linecap:round;stroke-linejoin:round;stroke-dasharray:none;stroke-dashoffset:0;stroke-opacity:1;paint-order:fill markers stroke"
       id="path8861"
       cx="33.917419"
       cy="42.729797"
       rx="0.92222589"
       ry="0.9905389" />
    <ellipse
       style="fill:#ffffff;fill-opacity:0.998008;fill-rule:evenodd;stroke:#000000;stroke-width:0;stroke-linecap:round;stroke-linejoin:round;stroke-dasharray:none;stroke-dashoffset:0;stroke-opacity:1;paint-order:fill markers stroke"
       id="path8863"
       cx="33.216972"
       cy="37.623402"
       rx="0.59749931"
       ry="0.59773892" />
    <ellipse
       style="fill:#ffffff;fill-opacity:0.998008;fill-rule:evenodd;stroke:#000000;stroke-width:0;stroke-linecap:round;stroke-linejoin:round;stroke-dasharray:none;stroke-dashoffset:0;stroke-opacity:1;paint-order:fill markers stroke"
       id="path9229"
       cx="31.423992"
       cy="35.454365"
       rx="0.2390956"
       ry="0.23899946" />
    <circle
       style="fill:#ffffff;fill-opacity:0.998008;fill-rule:evenodd;stroke:#000000;stroke-width:0;stroke-linecap:round;stroke-linejoin:round;stroke-dasharray:none;stroke-dashoffset:0;stroke-opacity:1;paint-order:fill markers stroke"
       id="path9231"
       cx="30.775019"
       cy="38.255295"
       r="0.2732521" />
    <ellipse
       style="fill:#ffffff;fill-opacity:0.998008;fill-rule:evenodd;stroke:#000000;stroke-width:0;stroke-linecap:round;stroke-linejoin:round;stroke-dasharray:none;stroke-dashoffset:0;stroke-opacity:1;paint-order:fill markers stroke"
       id="path9233"
       cx="35.010674"
       cy="39.792339"
       rx="0.27349943"
       ry="0.2732521" />
  </g>
</svg>
